<?xml version="1.0" standalone="no"?>
<!DOCTYPE svg PUBLIC "-//W3C//DTD SVG 1.1//EN" "http://www.w3.org/Graphics/SVG/1.1/DTD/svg11.dtd" >
<svg xmlns="http://www.w3.org/2000/svg" xmlns:xlink="http://www.w3.org/1999/xlink" version="1.1">
<metadata></metadata>
<defs>
<font id="mazeletterunderworld" horiz-adv-x="2048" >
<font-face units-per-em="2048" ascent="1536" descent="-512" />
<missing-glyph horiz-adv-x="512" />
<glyph horiz-adv-x="0" />
<glyph horiz-adv-x="0" />
<glyph unicode=" "  horiz-adv-x="512" />
<glyph unicode="&#x09;" horiz-adv-x="512" />
<glyph unicode="&#xa0;" horiz-adv-x="512" />
<glyph unicode="!" horiz-adv-x="1024" d="M0 72l584 -584h-400l-184 184v400zM0 184v400l184 184l-184 184v144l328 -328l-256 -256l129 -127zM0 -440l72 -72h-72v72zM0 1464v72h72l897 -895l-72 -74l-129 129l-440 -440l696 -696v-72h-328l-641 641l641 639zM184 1536h400l440 -440v-400zM696 256l328 328v-144 l-184 -184l184 -184v-144zM696 1536h328v-328z" />
<glyph unicode="&#x22;" d="M0 72l311 313l-311 311v400l385 -383l127 127l201 -199l-129 -129l129 -127l-713 -713v400zM0 184v400l201 -199zM0 -440l823 825l-127 127l127 129l-311 311l-127 -129l-385 385v328h72l1153 -1151l-201 -201l-127 127l-569 -567l256 -256h-400l127 127l-55 57 l-184 -184h-72v72zM440 -256l457 457l127 -129l512 512l328 -328l-768 -768h-400l201 201l127 -129l696 696l-184 184l-184 -184l129 -127l-457 -457l-127 127l-256 -256zM440 1536h144l696 -696l184 184l-512 512h144l313 -311l127 127l328 -328l-127 -127l311 -313v-144 l-512 512l-256 -256zM1208 -512l328 328l201 -201l-129 -127h-400zM1208 1536h400l440 -440v-400l-201 201l129 127l-440 440l-127 -129zM1591 -129l74 74l127 -129l256 256v-144l-184 -184l184 -184v-72h-328l127 127zM1720 1536h328v-328z" />
<glyph unicode="#" d="M0 72l55 57l-55 55v400l457 -455l-457 -457v400zM0 -440l567 569l-567 567v400l768 -768l440 440l-768 768h144l696 -696l184 184l-129 129l385 383h328v-328l-383 -385l-129 129l-184 -184l440 -440l256 256v-144l-184 -184l184 -184v-144l-256 256l-440 -440l256 -256 h-400l-55 55l-57 -55h-400l201 201l127 -129l55 55l-438 440l-57 -55l129 -129l-201 -199l-127 127l-313 -311h-72v72zM0 1208v328h72l897 -895l-201 -201zM184 -512l201 201l127 -129l256 256l72 -72l-256 -256h-400zM840 256l440 -440l440 440l-440 440zM952 256l201 201 l328 -328l-201 -201zM952 1536h144l57 -55l55 55h400l-328 -328zM1464 -256l201 201l383 -385v-72h-328zM1720 768l328 328v-400l-127 -129z" />
<glyph unicode="$" d="M0 -72v144l72 -72zM0 -440l440 440l-440 440v144l55 57l-55 55v400l311 313l-127 127h400l57 -55l55 55h400l129 -127l-457 -457l-383 383l-313 -311l641 -639l-129 -129l385 -385l-201 -199l-256 256l-440 -440h-72v72zM0 1208v328h72l129 -127zM184 1024l201 201 l383 -385l256 256l328 -328l-199 -201l-201 201l127 129l-55 55l-184 -184l952 -952l256 256v-400l-127 127l-313 -311h-400l-55 55l-57 -55h-144l-129 127l330 330l383 -385l55 55l-438 440l-129 -127l-328 328l201 201l199 -201l-127 -127l55 -57l184 184l-311 311 l-129 -127zM440 -512l72 72l72 -72h-144zM1079 1153l201 199l256 -256l311 313l-127 127h328v-328l-127 127l-313 -311l256 -256l-256 -256l385 -383l-201 -201l-584 584l256 256zM1208 1536h400l129 -127l-201 -201zM1720 512l201 201l127 -129v-400zM1720 -512l201 201 l127 -129v-72h-328zM1720 1024l201 201l127 -129v-400z" />
<glyph unicode="%" d="M0 72l55 57l-55 55v400l457 -455l-457 -457v400zM0 -440l512 512l385 -383l256 256l256 -256l256 256l127 -129l256 256v-144l-440 -440h-400l-55 55l-57 -55h-400l127 127l-311 313l-440 -440h-72v72zM0 696v400l385 -383l256 256l584 -584l-256 -256l127 -129 l-199 -201l-330 330l385 383l-55 55l-385 -383zM0 1208v328h72l129 -127zM55 1153l385 383h144l256 -256l-455 -457zM184 -512l328 328l201 -201l-129 -127h-400zM328 1280l184 -184l184 184l-184 184zM952 1024l256 256l-256 256h144l256 -256l-328 -328zM1079 129l457 455 l328 -328l-455 -457zM1208 768l256 256l-129 129l74 72l639 -641v-144l-512 512l-256 -256zM1208 1536h400l-199 -201zM1352 256l184 -184l184 184l-184 184zM1464 1280l256 256h328v-328l-55 -55l55 -57v-400zM1720 -512l201 201l127 -129v-72h-328z" />
<glyph unicode="&#x26;" d="M0 72l512 -512l55 55l-567 569v400l256 256l1153 -1151l256 256l127 -129l256 256v-144l-440 -440h-400l127 127l-1079 1081l-55 -55l768 -770l-385 -383h-400l-184 184v400zM0 -440l72 -72h-72v72zM0 696v400l201 -199zM0 1208v328h72l1464 -1464l184 184l-1024 1024 l256 256h144l696 -696l55 57l-639 639h400l440 -440v-400l-127 -129l-897 897l-184 -184l1024 -1024l-455 -457zM440 1536h144l-72 -72zM696 -512l328 328l201 -201l-129 -127h-400zM1720 -512l201 201l127 -129v-72h-328zM1720 1536h328v-328zM1976 512l72 72v-144z" />
<glyph unicode="'" d="M0 -72v144l440 440l-311 311l-129 -127v400l129 129l584 -584zM0 -440l440 440l-129 129l512 512l-639 639l127 129l-127 127h400l-127 -127l512 -512l-129 -129l385 -383l-584 -586l-129 129l-440 -440h-72v72zM0 440v144l129 129l199 -201l-199 -201zM0 1208v328h72 l129 -127zM440 -512l969 969l127 -129l385 385l127 -129v-400l-512 -512l-127 127l-313 -311h-144l-129 127l512 514l-55 55l-696 -696h-144zM567 1409l74 72l895 -897l55 57l-895 895h400l768 -768l-328 -328l-127 127l-129 -127l-328 328l127 129zM1208 -512l201 201 l127 -129l512 512v-400l-127 127l-313 -311h-400zM1208 1536h400l184 -184l55 57l-127 127h328v-328l-127 127l-57 -55l184 -184v-400zM1720 -512l201 201l127 -129v-72h-328z" />
<glyph unicode="(" horiz-adv-x="512" d="M0 72l328 -328l-256 -256h-72v72l55 55l-55 57v400zM0 184v400l512 512v-400l-311 -311l311 -313v-400zM0 696v400l55 57l-55 55v328h72l385 -383zM184 -512l201 201l127 -129v-72h-328zM184 1536h328v-328zM311 385l201 199v-400z" />
<glyph unicode=")" horiz-adv-x="512" d="M0 72l311 313l-311 311v400l129 129l199 -201l-127 -127l311 -313v-400l-127 127l-313 -311l129 -129l-201 -199v400zM0 184v400l201 -199zM0 -440l72 -72h-72v72zM0 1208v328h72l129 -127zM55 -385l256 256l-127 129l201 201l127 -129v-400l-55 -57l55 -55v-72h-328z M184 1280l127 129l-127 127h328v-328l-55 -55l55 -57v-400l-201 201l129 127z" />
<glyph unicode="*" d="M0 -72v144l184 184l-184 184v144l457 -455l-72 -74l-129 129zM0 -440l1280 1280l201 -199l-840 -842l-129 129l-440 -440h-72v72zM0 696v400l256 256l201 -199zM0 1208v328h72l129 -127zM55 641l457 455l457 -455l-201 -201l-383 383l-57 -55l385 -383l-201 -201z M184 1536h400l256 -256l-199 -201zM440 -512l72 72l72 -72h-144zM696 -256l328 328l201 -201l-256 -256l127 -127h-144zM696 1024l201 201l127 -129l256 256l201 -199l-457 -457zM696 1536h400l129 -127l-201 -201zM1079 129l201 199l768 -768v-72h-328zM1079 -385l201 201 l328 -328h-400zM1208 1536h400l256 -256l-199 -201zM1335 385l256 256l-256 256l201 199l512 -512v-400l-127 127l-256 -256zM1720 0l201 201l127 -129v-400zM1720 1024l201 201l127 -129v-400zM1720 1536h328v-328z" />
<glyph unicode="+" horiz-adv-x="512" d="M0 72l55 57l-55 55v400l457 -455l-457 -457v400zM0 -440l72 -72h-72v72zM0 696v400l55 57l-55 55v328h72l385 -383zM55 -385l457 457v-400l-55 -57l55 -55v-72h-328zM55 641l457 455v-400l-55 -55l55 -57v-400zM184 1536h328v-328z" />
<glyph unicode="," horiz-adv-x="512" d="M0 72l184 184l-55 55l-129 -127v400l328 -328l-256 -256l129 -129l-201 -199v400zM0 -440l311 311l-127 129l201 201l127 -129v-400l-127 127l-313 -311h-72v72zM0 696v400l512 -512v-400zM0 1208v328h72l129 -127zM55 1153l256 256l-127 127h328v-328l-127 127l-57 -55 l184 -184v-400zM184 -512l201 201l127 -129v-72h-328z" />
<glyph unicode="-" horiz-adv-x="512" d="M0 72l512 512v-400l-512 -512v400zM0 184v400l512 512v-400zM0 -440l72 -72h-72v72zM0 696v400l55 57l-55 55v328h72l385 -383zM55 -385l457 457v-400l-55 -57l55 -55v-72h-328zM184 1536h328v-328z" />
<glyph unicode="." horiz-adv-x="512" d="M0 72l201 -201l-201 -199v400zM0 184v400l311 313l-311 311v328h72l440 -440v-400l-127 127l-313 -311l440 -440v-400l-127 127l-313 -311h-72v72l311 311zM0 696v400l201 -199zM184 512l201 201l127 -129v-400zM184 -512l201 201l127 -129v-72h-328zM184 1536h328v-328z " />
<glyph unicode="/" horiz-adv-x="1024" d="M0 72l584 -584h-400l-184 184v400zM0 184v400l184 184l-184 184v144l328 -328l-256 -256l129 -127zM0 -440l72 -72h-72v72zM0 1464v72h72l897 -895l-72 -74l-129 129l-440 -440l696 -696v-72h-328l-641 641l641 639zM184 1536h400l440 -440v-400zM696 256l328 328v-144 l-184 -184l184 -184v-144zM696 1536h328v-328z" />
<glyph unicode="0" d="M0 72l256 256l840 -840h-400l-440 440l-256 -256v400zM0 184v400l201 -199zM0 -440l256 256l328 -328h-400l-55 55l-57 -55h-72v72zM0 696v400l256 -256l696 696h144l129 -127l-72 -74l-129 129l-440 -440l129 -127l-457 -457zM0 1208v328h72l184 -184l184 184h144 l-256 -256l129 -127l-201 -201zM311 385l969 967l768 -768v-144l-895 -897zM713 385l440 -440l256 256l127 -129l440 440l-696 696l-440 -440l129 -127zM823 385l457 455l328 -328l-455 -457zM1096 512l184 -184l184 184l-184 184zM1208 -512l457 457l127 -129l256 256v-144 l-440 -440h-400zM1208 1536h400l440 -440v-400zM1720 -512l201 201l127 -129v-72h-328zM1720 1536h328v-328z" />
<glyph unicode="1" d="M0 -72v144l184 184l-129 129l330 328l127 -129l184 184l-129 129l641 639h400l129 -127l-72 -74l-129 129zM0 -440l440 440l-129 129l1098 1096l328 -328l-840 -842l-129 129l-184 -184l129 -129l-72 -72l-129 129l-440 -440h-72v72zM0 440v144l256 256l72 -72zM0 696 v400l311 313l-127 127h400l-512 -512l129 -127zM0 1208v328h72l129 -127zM184 1024l72 72l328 -328l-72 -72zM311 1153l385 383h400l-584 -584zM440 -512l328 328l72 -72l-256 -256h-144zM696 0l72 72l328 -328l-72 -72zM823 -385l74 74l127 -129l1024 1024v-400l-512 -512 l-127 127l-313 -311h-144zM952 0l1024 1024l-129 129l74 72l127 -129v-400l-895 -897zM1208 -512l201 201l127 -129l512 512v-400l-127 127l-313 -311h-400zM1464 1280l72 72l328 -328l-72 -72zM1720 -512l201 201l127 -129v-72h-328zM1720 1280l127 129l-127 127h328v-328 l-127 127l-129 -127z" />
<glyph unicode="2" d="M0 72l440 440l-256 256l72 72l256 -256l440 440l-256 256l72 72l256 -256l311 313l-127 127h400l385 -383l-201 -201l-383 383l-313 -311l256 -256l-72 -72l-256 256l-440 -440l256 -256l-72 -72l-256 256l-440 -440l256 -256l-199 -201l-129 129v400zM0 184v400l129 129 l199 -201zM0 -440l72 -72h-72v72zM0 696v400l184 184l-55 55l-129 -127v328h72l184 -184l184 184h144l-256 -256l385 -383l-201 -201l-383 383l-57 -55l129 -127zM184 0l328 328l201 -199l-129 -129l184 -184l55 55l-127 129l201 201l127 -129l55 57l-383 383l201 201 l383 -385l440 440l-385 385l74 72l383 -385l256 256v-400l-127 127l-57 -55l184 -184v-144l-256 256l-952 -952l256 -256h-400l127 127l-55 57l-184 -184h-400l201 201l127 -129l55 55zM952 -256l201 201l383 -385l55 55l-383 385l201 201l383 -385l184 184l-256 256l72 72 l256 -256v-144l-184 -184l184 -184v-72h-328l-55 55l-57 -55h-400zM952 1536h144l129 -127l-72 -74zM1720 1536h328v-328z" />
<glyph unicode="3" d="M0 -72v144l256 -256l184 184l-440 440v144l512 -512l55 57l-567 567v400l840 -840l-768 -768h-72v72l184 184zM0 1208v328h72l952 -952l55 57l-895 895h400l696 -696l55 57l-639 639h400l440 -440l55 57l-383 383h400l184 -184l55 57l-127 127h328v-328l-127 127 l-1024 -1024zM440 -512l256 256l-129 127l1354 1354l127 -129v-400l-127 127l-1337 -1335h-144zM823 -385l1098 1098l127 -129v-400l-127 127l-825 -823h-144zM1208 -512l713 713l127 -129v-400l-127 127l-313 -311h-400zM1720 -512l201 201l127 -129v-72h-328z" />
<glyph unicode="4" d="M0 72l512 512l584 -584l-256 -256l256 -256h-400l127 127l-55 57l-184 -184h-400l-184 184v400zM0 184v400l952 952h144l57 -55l55 55h400l440 -440v-400l-127 -129l-129 129l-256 -256l-584 584l256 256l-184 184l-440 -440l952 -952l512 512v-144l-440 -440l440 -440 v-72h-328l127 127l-311 313l-383 -385l-201 201l256 256l-696 696zM0 -440l72 -72h-72v72zM0 696v400l129 129l199 -201zM0 1208v328h72l256 -256l-72 -72l-127 127zM72 0l440 -440l440 440l-440 440zM184 0l328 328l328 -328l-328 -328zM440 1536h144l-72 -72zM1096 1024 l440 -440l440 440l-440 440zM1208 -512l328 328l201 -201l-129 -127h-400zM1335 1153l201 199l328 -328l-199 -201zM1720 1536h328v-328zM1976 0l72 72v-144z" />
<glyph unicode="5" d="M0 -72v144l184 184l-184 184v144l328 -328zM0 -440l72 -72h-72v72zM0 696v400l311 313l-127 127h400l129 -127zM0 1208v328h72l129 -127zM55 641l768 768l-127 127h400l129 -127l-768 -768l184 -184l512 512l711 -713l-711 -713l-201 201l512 512l-184 184l-512 -512z M184 -256l256 256l-129 129l74 72l383 -385l512 512l72 -72l-512 -512l256 -256h-144l-440 440l-184 -184l256 -256h-144zM567 641l897 895h144l-256 -256l57 -55l311 311h328v-328l-512 -512l-383 383l-512 -512zM1208 -512l713 713l127 -129v-400l-127 127l-313 -311h-400 zM1591 641l457 455v-400l-127 127l-57 -55l184 -184v-400zM1720 -512l201 201l127 -129v-72h-328z" />
<glyph unicode="6" d="M0 72l328 -328l-256 -256h-72v72l55 55l-55 57v400zM0 184v400l201 -199zM0 696v400l256 256l457 -455l-457 -457zM0 1208v328h72l129 -127zM55 129l457 455l328 -328l-455 -457zM184 -512l457 457l455 -457h-400l-55 55l-57 -55h-400zM440 1536h144l184 -184l184 184 h144l-328 -328zM567 641l457 455l328 -328l-455 -457zM696 0l457 457l455 -457l-455 -457zM840 768l184 -184l184 184l-184 184zM1079 1409l129 127h400l256 -256l-328 -328zM1208 -512l457 457l127 -129l256 256v-144l-440 -440h-400zM1464 512l256 256l-129 129l330 328 l127 -129v-400l-127 -129l-129 129l-184 -184l184 -184l256 256v-144l-256 -256zM1720 -512l201 201l127 -129v-72h-328zM1720 1536h328v-328z" />
<glyph unicode="7" d="M0 -72v144l184 184l-184 184v144l328 -328zM0 -440l440 440l-129 129l129 127l-385 385l768 768l-127 127h400l184 -184l55 57l-127 127h400l129 -127l-584 -586l-385 385l-440 -440l641 -639l-328 -330l-129 129l-440 -440h-72v72zM0 696v400l311 313l-127 127h400 l129 -127zM0 1208v328h72l129 -127zM440 -512l639 641l-639 639l328 328l840 -840l-711 -713l-129 129l-184 -184h-144zM952 -512l768 768l-512 512l639 641l-127 127h328v-328l-567 -567l383 -385l-768 -768h-144zM1208 -512l713 713l127 -129v-400l-127 127l-313 -311 h-400zM1591 641l457 455v-400l-127 127l-57 -55l184 -184v-400zM1720 -512l201 201l127 -129v-72h-328z" />
<glyph unicode="8" d="M0 72l129 129l584 -586l-129 -127h-400l-184 184v400zM0 184v400l55 57l-55 55v400l385 -383l256 256l72 -72zM0 -440l72 -72h-72v72zM0 1208v328h72l440 -440l184 184l-256 256h144l256 -256l-455 -457zM184 256l457 457l711 -713l-328 -328l-639 639l-57 -55l768 -768 h-400l127 127zM696 768l328 328l1024 -1024v-144l-1024 1024l-184 -184l768 -768l-256 -256l256 -256h-400l-129 127l385 385zM952 1536h144l952 -952v-144zM1208 1536h400l440 -440v-400zM1464 -256l201 201l383 -385v-72h-328zM1720 1536h328v-328z" />
<glyph unicode="9" d="M0 -72v144l584 -584h-144zM0 440v144l823 825l-127 127h400l129 -127l-1024 -1024l768 -770l-72 -72zM0 -440l72 -72h-72v72zM0 696v400l311 313l-127 127h400l129 -127zM0 1208v328h72l129 -127zM311 385l457 455l201 -199l-256 -256l639 -641l-256 -256h-144l127 127z M823 385l457 455l768 -768v-400l-895 895l-57 -55l952 -952v-72h-328zM823 897l457 455l768 -768v-400l-768 768l-256 -256zM1208 -512l201 201l199 -201h-400zM1208 1536h400l440 -440v-400zM1720 1536h328v-328z" />
<glyph unicode=":" horiz-adv-x="512" d="M0 72l311 313l-311 311v400l311 313l-127 127h328v-328l-311 -311l311 -313v-400l-311 -313l311 -311v-72h-328l-184 184v400zM0 184v400l201 -199zM0 -440l72 -72h-72v72zM0 1208v328h72l129 -127zM311 -129l201 201v-400zM311 897l201 199v-400z" />
<glyph unicode=";" horiz-adv-x="512" d="M0 72l512 512v-400l-512 -512v400zM0 184v400l55 57l-55 55v400l457 -455zM0 -440l72 -72h-72v72zM0 1208v328h72l440 -440v-400zM55 -385l457 457v-400l-55 -57l55 -55v-72h-328zM184 1536h328v-328z" />
<glyph unicode="&#x3c;" horiz-adv-x="512" d="M0 72l201 -201l-201 -199v400zM0 184v400l512 512v-400l-311 -311l311 -313v-400zM0 -440l256 256l72 -72l-256 -256h-72v72zM0 696v400l201 -199zM0 1208v328h72l385 -383l-201 -201zM184 -512l201 201l127 -129v-72h-328zM184 1536h328v-328zM311 385l201 199v-400z " />
<glyph unicode="=" horiz-adv-x="512" d="M0 72l201 -201l-201 -199v400zM0 184v400l512 -512v-400zM0 -440l256 256l256 -256v-72h-328l-55 55l-57 -55h-72v72zM0 696v400l512 -512v-400zM0 1208v328h72l184 -184l55 57l-127 127h328v-328l-256 -256zM311 897l201 199v-400z" />
<glyph unicode="&#x3e;" horiz-adv-x="512" d="M0 72l311 313l-311 311v400l512 -512v-400l-512 -512v400zM0 184v400l201 -199zM0 -440l72 -72h-72v72zM0 1208v328h72l129 -127zM55 -385l201 201l256 -256v-72h-328zM55 1153l256 256l-127 127h328v-328l-256 -256zM311 -129l201 201v-400zM311 897l201 199v-400z" />
<glyph unicode="?" horiz-adv-x="1024" d="M0 72l696 696l-129 129l129 127l-512 512h400l440 -440v-400l-127 -129l-129 129l-440 -440l440 -440l256 256v-144l-440 -440h-400l-184 184v400zM0 184v400l440 440l-440 440v72h72l512 -512l-512 -512l129 -127zM0 -440l72 -72h-72v72zM0 952v144l72 -72zM696 256 l328 328v-144l-256 -256zM696 -512l201 201l127 -129v-72h-328zM696 1536h328v-328z" />
<glyph unicode="@" d="M0 -72v144l584 -584h-144zM0 440v144l129 129l72 -72l-129 -129l440 -440l129 129l72 -72l-129 -129l184 -184l55 55l-127 129l201 201l127 -129l311 313l-127 127l127 129l-182 182l-129 -127l-127 127l-256 -256l-74 74l256 256l-127 127l201 201l127 -129l129 129 l72 -72l-129 -129l440 -440l129 129l72 -72l-129 -129l129 -127l-201 -201l-127 127l-313 -311l129 -129l-201 -199l-127 127l-129 -127zM0 -440l72 -72h-72v72zM0 696v400l311 313l-127 127h400l129 -127l-201 -201l-127 127l-313 -311l129 -127zM0 1208v328h72l129 -127z M184 512l127 129l-127 127l127 129l-127 127l201 201l127 -129l311 313l-127 127h400l440 -440l129 129l72 -72l-129 -129l440 -440v-400l-127 127l-313 -311l129 -129l-201 -199l-127 127l-313 -311h-144l-129 127l74 74l127 -129l311 311l-127 129l201 201l127 -129 l311 313l-127 127l127 129l-182 182l-129 -127l-328 328l127 129l-182 182l-129 -127l-127 127l-313 -311l129 -127l-201 -201l-127 127l-57 -55l440 -440l55 57l-127 127l201 201l127 -129l129 129l72 -72l-129 -129l129 -127l-201 -201l-127 127l-129 -127l-127 127 l-129 -127zM1208 -512l201 201l127 -129l311 311l-127 129l201 201l127 -129v-400l-127 127l-313 -311h-400zM1208 1536h400l129 -127l-201 -201zM1720 -512l201 201l127 -129v-72h-328zM1720 1024l127 129l-127 127l127 129l-127 127h328v-328l-127 127l-57 -55l184 -184 v-400z" />
<glyph unicode="A" horiz-adv-x="512" d="M0 72l311 313l-127 127l201 201l127 -129v-400l-127 127l-313 -311l129 -129l-201 -199v400zM0 184v400l311 313l-127 127l201 201l127 -129v-400l-127 127l-313 -311l129 -127zM0 -440l311 311l-127 129l201 201l127 -129v-400l-127 127l-313 -311h-72v72zM0 696v400 l311 313l-127 127h328v-328l-127 127l-313 -311l129 -127zM0 1208v328h72l129 -127zM184 -512l201 201l127 -129v-72h-328z" />
<glyph unicode="B" d="M0 72l184 184l-55 55l-129 -127v400l457 -455l-457 -457v400zM0 -440l567 569l-567 567v400l768 -768l55 57l-127 127l201 201l127 -129l440 440l-129 129l201 199l328 -328l-199 -201l-129 129l-440 -440l129 -127l-201 -201l-127 127l-825 -823h-72v72zM0 1208v328h72 l440 -440l440 440h144l-711 -713zM184 -512l457 457l455 -457h-400l127 127l-55 57l-184 -184h-400zM440 768l201 201l127 -129l440 440l-129 129l129 127h400l440 -440v-400l-127 -129l-129 129l-440 -440l129 -127l-201 -201l-127 127l-57 -55l512 -512h-400l-512 512 l201 201l127 -129l952 952l-440 440l-895 -897zM440 1536h144l-72 -72zM1335 -129l713 713v-144l-440 -440l440 -440v-72h-328zM1720 1536h328v-328zM1976 0l72 72v-144z" />
<glyph unicode="C" d="M0 -72v144l72 -72zM0 440v144l129 129l256 -256l55 55l-256 256l127 129l-127 127l457 457l256 -256l127 127l129 -127l55 55l-184 184l-127 -129l-201 201h400l385 -383l-201 -201l-127 127l-129 -127l-256 256l-55 -55l127 -129l-328 -328l-127 127l-57 -55l256 -256 l-256 -256l129 -127l-72 -74zM0 -440l567 569l-127 127l201 201l639 -641l55 55l-127 129l328 328l129 -127l55 55l-256 256l127 129l-127 127l201 201l383 -385v-400l-201 201l129 127l-184 184l-55 -55l127 -129l-127 -127l256 -256l-457 -457l-127 127l-129 -127 l-383 383l-129 -127l-127 127l-569 -567h-72v72zM0 696v400l311 313l-127 127h400l-512 -512l129 -127zM0 1208v328h72l129 -127zM440 -512l256 256l-129 127l74 74l127 -129l129 129l328 -330l-129 -127h-144l-184 184l-184 -184h-144zM567 641l330 328l127 -129l129 129 l127 -129l311 313l-127 127l127 129l-55 55l-127 -129l-201 201h400l440 -440v-400l-201 201l129 127l-55 55l-129 -127l-127 127l-313 -311l129 -127l-129 -129l129 -127l-328 -330zM1208 -512l201 201l127 -129l512 512v-400l-127 127l-313 -311h-400zM1720 -512l201 201 l127 -129v-72h-328zM1720 1536h328v-328z" />
<glyph unicode="D" d="M0 -72v144l256 -256l184 184l-385 385l385 383l-256 256l457 457l256 -256l127 127l840 -840l-127 -127l311 -313v-400l-457 457l129 127l-952 952l-184 -184l57 -55l127 127l328 -328l-199 -201l-129 129l-440 -440l256 -256l-328 -328zM0 440v144l55 57l-55 55v400 l328 -328zM0 -440l72 -72h-72v72zM0 1208v328h72l184 -184l55 57l-127 127h400l-455 -457zM440 256l328 328l129 -127l256 256l455 -457l-127 -127l567 -569v-72h-328l-641 641l129 127l-184 184l-55 -55l127 -129l-127 -127l639 -641h-400zM440 -512l328 328l328 -328h-144 l-184 184l-184 -184h-144zM696 1536h400l313 -311l127 127l328 -328l-127 -127l311 -313v-400l-201 201l129 127l-952 952l-127 -129zM1208 1536h400l440 -440v-400l-201 201l129 127l-440 440l-127 -129zM1720 1536h328v-328z" />
<glyph unicode="E" horiz-adv-x="512" d="M0 72l512 512v-400l-127 127l-313 -311l440 -440v-72h-328l-184 184v400zM0 184v400l311 313l-127 127l201 201l127 -129v-400zM0 -440l72 -72h-72v72zM0 696v400l311 313l-127 127h328v-328l-127 127l-313 -311l129 -127zM0 1208v328h72l129 -127zM184 0l201 201 l127 -129v-400z" />
<glyph unicode="F" d="M0 -72v144l184 184l-129 129l201 199l584 -584l-199 -201l-129 129l-440 -440h-72v72l440 440l-184 184zM0 440v144l256 256l840 -840l-512 -512h-144l512 512l-696 696zM0 696v400l256 256l1536 -1536l256 256v-400l-127 127l-256 -256l-1409 1409zM0 1208v328h72 l129 -127zM184 1536h400l57 -55l55 55h400l-328 -328l-127 -129zM696 1024l512 512h400l-512 -512l696 -696l256 256v-400l-256 -256zM823 -385l330 330l455 -457h-400l-55 55l-57 -55h-144zM1208 1024l512 512h328v-328l-256 -256l-127 127l-57 -55l184 -184l256 256v-400 l-256 -256zM1720 -512l201 201l127 -129v-72h-328z" />
<glyph unicode="G" d="M0 72l584 -584h-400l-184 184v400zM0 184v400l1096 -1096h-400zM0 -440l72 -72h-72v72zM0 696v400l440 440h144l-256 -256l129 -127zM0 1208v328h72l129 -127zM55 641l897 895h144l-768 -768l313 -311l55 55l-256 256l201 201l127 -129l440 440l-129 129l74 72l840 -840 l-72 -74l-129 129l-440 -440l129 -127l-201 -201l-328 328l201 201l127 -129l440 440l-440 440l-440 -440l129 -127l-457 -457zM567 129l713 711l72 -72l-512 -512l440 -440l768 768v-144l-895 -897zM1208 -512l457 457l127 -129l256 256v-144l-440 -440h-400zM1208 1536 h400l440 -440v-400zM1720 -512l201 201l127 -129v-72h-328zM1720 1536h328v-328z" />
<glyph unicode="H" horiz-adv-x="1024" d="M0 72l256 256l328 -328l-512 -512h-72v72l55 55l-55 57v400zM0 184v400l55 57l-55 55v400l256 256l328 -328l-512 -512l129 -127zM0 1208v328h72l129 -127zM184 512l457 457l127 -129l256 256v-144l-184 -184l184 -184v-400l-256 -256zM184 -512l457 457l127 -129 l256 256v-400l-127 127l-313 -311h-400zM440 1536h144l184 -184l184 184h72v-72l-256 -256zM696 -512l201 201l127 -129v-72h-328z" />
<glyph unicode="I" horiz-adv-x="512" d="M0 72l512 512v-400l-512 -512v400zM0 184v400l311 313l-311 311v328h72l440 -440v-400zM0 -440l512 512v-400l-127 127l-313 -311h-72v72zM0 696v400l201 -199zM184 -512l201 201l127 -129v-72h-328zM184 1536h328v-328z" />
<glyph unicode="J" d="M0 72l256 256l840 -840h-400l-440 440l-55 -57l383 -383h-400l-184 184v400zM0 184v400l256 256l1352 -1352h-400l-952 952zM0 -440l72 -72h-72v72zM0 696v400l256 256l1536 -1536l256 256v-144l-383 -385l-1409 1409zM0 1208v328h72l129 -127zM440 1536h144l1208 -1208 l256 256v-144l-256 -256zM952 1536h144l696 -696l55 57l-639 639h400l440 -440v-400l-127 -129zM1720 -512l201 201l127 -129v-72h-328zM1720 1536h328v-328z" />
<glyph unicode="K" d="M0 -72v144l184 184l-184 184v144l256 256l328 -328zM0 -440l256 256l72 -72l-256 -256h-72v72zM0 696v400l311 313l-127 127h400l129 -127zM0 1208v328h72l129 -127zM311 129l330 328l328 -328l-328 -330zM311 897l512 512l-127 127h400l129 -127l-512 -512l696 -696 l512 512l127 -129v-400l-127 127l-512 -512zM440 -512l584 584l328 -328l-256 -256h-144l-184 184l-184 -184h-144zM823 897l457 455l256 -256l311 313l-127 127h328v-328l-127 127l-313 -311l57 -55l256 256l127 -129v-400l-127 127l-512 -512zM1208 -512l713 713l127 -129 v-400l-127 127l-313 -311h-400zM1208 1536h400l129 -127l-201 -201zM1720 -512l201 201l127 -129v-72h-328z" />
<glyph unicode="L" horiz-adv-x="1024" d="M0 72l184 184l-55 55l-129 -127v400l440 440l-129 129l385 383h328v-328l-383 -385l-129 129l-440 -440l385 -383l-457 -457v400zM0 -440l696 696l-256 256l584 584v-400l-127 127l-313 -311l256 -256l-768 -768h-72v72zM0 952v144l311 313l-127 127h400zM0 1464v72h72 l129 -127l-72 -74zM184 -512l457 457l127 -129l256 256v-144l-440 -440h-400zM696 -512l201 201l127 -129v-72h-328zM823 641l74 72l127 -129v-144z" />
<glyph unicode="M" d="M0 -72v144l184 184l-184 184v144l328 -328l-256 -256l184 -184l256 256l328 -328l-256 -256h-144l256 256l-184 184l-256 -256zM0 -440l72 -72h-72v72zM0 696v400l256 256l768 -768l512 512l512 -512v-400l-127 127l-129 -127l-383 383l-641 -639zM0 1208v328h72 l129 -127zM184 1536h912l-455 -457zM696 1024l512 512h400l-256 -256l129 -127l-457 -457zM823 -129l586 586l328 -328l-641 -641h-144l127 127zM1208 -512l457 457l383 -385v-72h-328l-55 55l-57 -55h-400zM1464 1280l256 256h328v-328l-127 127l-57 -55l184 -184v-400z M1720 0l201 201l127 -129v-400z" />
<glyph unicode="N" d="M0 72l696 696l-567 567l-129 -127v328h72l440 -440l184 184l-256 256h144l256 -256l-256 -256l440 -440l256 256l328 -328l-72 -72l-256 256l-256 -256l-256 256l-696 -696l129 -129l-201 -199v400zM0 184v400l55 57l-55 55v400l129 129l455 -457l-199 -201l-129 129 l-55 -55l127 -129zM0 -440l311 311l-127 129l328 328l641 -639l55 55l-129 127l201 201l201 -201l-385 -383h-400l-311 311l-313 -311h-72v72zM184 -512l201 201l199 -201h-400zM567 385l201 199l385 -383l55 55l-129 129l74 72l383 -385l512 512v-144l-440 -440l440 -440 v-72h-328l127 127l-55 57l-184 -184h-400l383 383l-311 313l-256 -256zM952 1024l256 256l-256 256h144l696 -696l256 256v-400l-127 127l-57 -55l129 -127l-72 -74l-641 641l-256 -256zM1208 1536h400l385 -383l-201 -201zM1720 1536h328v-328zM1976 0l72 72v-144z" />
<glyph unicode="O" horiz-adv-x="512" d="M0 72l512 -512v-72h-328l-184 184v400zM0 184v400l311 313l-127 127l201 201l127 -129v-400l-127 127l-313 -311l440 -440v-400zM0 -440l72 -72h-72v72zM0 696v400l311 313l-127 127h328v-328l-127 127l-313 -311l129 -127zM0 1208v328h72l129 -127zM184 512l201 201 l127 -129v-400z" />
<glyph unicode="P" d="M0 72l385 385l840 -842l-129 -127h-400l127 127l-438 440l-385 -383v400zM0 184v400l385 385l1352 -1354l-129 -127h-400l127 127l-950 952zM0 -440l385 385l328 -330l-129 -127h-400l-55 55l-57 -55h-72v72zM0 696v400l440 440h144l-256 -256l129 -127zM0 1208v328h72 l129 -127zM440 1024l512 512h144l129 -127l-72 -74l-129 129l-440 -440l1464 -1464v-72h-328l127 127zM952 1024l383 385l-127 127h400l129 -127l-328 -330l-129 129l-184 -184l952 -952v-144zM1464 1024l328 328l256 -256v-400l-256 256l-127 -129zM1720 768l72 72 l256 -256v-144zM1720 1536h328v-328z" />
<glyph unicode="Q" d="M0 -72v144l184 184l-184 184v144l328 -328l-256 -256l512 -512h-144zM0 -440l72 -72h-72v72zM0 696v400l201 -199zM0 1208v328h72l641 -639l-256 -256l1151 -1153h-400l-567 567l-57 -55l512 -512h-144l-641 641l129 127l-385 385l256 256zM184 1536h400l440 -440l55 57 l-383 383h400l512 -512l-512 -512l256 -256l-199 -201l-586 586l256 256zM1208 0l256 256l-256 256l201 201l584 -584l-256 -258l311 -311v-72h-328zM1208 1536h400l440 -440v-400l-55 -55l55 -57v-400l-584 584l256 256zM1720 1536h328v-328zM1847 -129l201 201v-400z" />
<glyph unicode="R" horiz-adv-x="1024" d="M0 72l952 952l-512 512h144l440 -440v-144l-184 -184l129 -127l-969 -969v400zM0 184v400l440 440l-311 311l-129 -127v328h72l641 -639zM0 -440l512 512l512 -512v-72h-328l-311 311l-313 -311h-72v72zM0 696v400l129 129l199 -201zM184 -512l201 201l199 -201h-400z M567 129l457 455v-400l-55 -55l55 -57v-400zM952 1536h72v-72z" />
<glyph unicode="S" horiz-adv-x="1024" d="M0 72l129 129l584 -586l-129 -127h-400l127 127l-182 184l-129 -127v400zM0 184v400l512 -512l440 440l-641 641l201 199l328 -328l-127 -127l311 -313v-144l-440 -440l440 -440v-72h-328l127 127l-694 696zM0 -440l129 129l72 -74l-129 -127h-72v72zM0 952v144l184 184 l-129 129l129 127h400l440 -440v-400l-201 201l129 127l-440 440l-440 -440l512 -512l-72 -72zM0 1464v72h72zM696 1536h328v-328z" />
<glyph unicode="T" horiz-adv-x="1024" d="M0 72l55 57l-55 55v400l457 -455l-457 -457v400zM0 -440l1024 1024v-400l-127 127l-825 -823h-72v72zM0 696v400l512 -512l55 57l-567 567v328h72l897 -895l-457 -457zM184 -512l713 713l127 -129v-400l-127 127l-313 -311h-400zM440 1536h144l440 -440v-144zM696 -512 l201 201l127 -129v-72h-328zM952 1536h72v-72z" />
<glyph unicode="U" horiz-adv-x="512" d="M0 72l512 512v-400l-127 127l-313 -311l440 -440v-72h-328l-184 184v400zM0 184v400l311 313l-311 311v328h72l440 -440v-400zM0 -440l72 -72h-72v72zM0 696v400l201 -199zM184 0l201 201l127 -129v-400zM184 1536h328v-328z" />
<glyph unicode="V" d="M0 -72v144l184 184l-184 184v144l328 -328zM0 -440l440 440l-129 129l129 127l-440 440v400l256 -256l311 313l-383 383h400l313 -311l55 55l-256 256h400l256 -256l-455 -457l-129 129l-311 -311l768 -770l-201 -199l-256 256l-127 -129l-129 129l-440 -440h-72v72z M0 1208v328h72l385 -383l-201 -201zM440 -512l328 328l328 -328h-144l-184 184l-184 -184h-144zM567 641l201 199l129 -127l567 567l-256 256h400l440 -440v-400l-383 383l-569 -567l952 -952v-72h-328zM1079 -385l201 201l328 -328h-400zM1208 512l457 457l383 -385v-400 l-383 383l-57 -55l440 -440v-400zM1720 1536h328v-328z" />
<glyph unicode="W" d="M0 72l311 313l-311 311v400l713 -711l-512 -514l311 -311l385 385l256 -256l256 256l72 -74l-385 -383h-400l-55 55l-57 -55h-400l-184 184v400zM0 184v400l201 -199zM0 -440l72 -72h-72v72zM0 1208v328h72l1464 -1464l184 184l-512 512l256 256l-129 129l385 383h328 v-328l-383 -385l-129 129l-184 -184l440 -440l256 256v-144l-512 -512l-127 127l-256 -256l-256 256l-385 -383l-201 199l512 514zM440 1536h144l440 -440l184 184l-129 129l129 127h400l-584 -584zM952 1536h144l-72 -72zM1208 -512l457 457l127 -129l256 256v-144 l-440 -440h-400zM1720 -512l201 201l127 -129v-72h-328zM1720 768l328 328v-400l-127 -129z" />
<glyph unicode="X" d="M0 72l385 385l72 -72l-385 -385l129 -129l-201 -199v400zM0 184v400l129 129l199 -201zM0 -440l256 256l72 -72l-256 -256h-72v72zM0 696v400l184 184l-55 55l-129 -127v328h72l184 -184l184 184h144l-256 -256l184 -184l256 256l584 -584l-72 -72l-256 256l-440 -440 l385 -383l-72 -74l-713 713l72 72l256 -256l440 440l-184 184l-184 -184l129 -127l-201 -201l-383 383l-57 -55l129 -127zM184 0l328 328l328 -328l-127 -129l55 -55l440 440l-55 55l-129 -127l-328 328l201 201l383 -385l256 256l72 -72l-256 -256l385 -385l-256 -256 l55 -55l440 440l-256 256l72 72l256 -256v-144l-440 -440h-400l127 127l-256 256l74 74l256 -256l55 55l-256 256l127 129l-55 55l-440 -440l57 -55l127 127l201 -201l-129 -127h-400l127 127l-55 57l-184 -184h-400l201 201l127 -129l184 184l-55 55l-129 -127zM952 1536 h144l129 -127l-72 -74zM1208 1280l127 129l-127 127h400l385 -383l-201 -201l-328 328l127 129l-55 55l-184 -184l440 -440l256 256v-400l-127 127l-57 -55l184 -184v-144zM1720 -512l201 201l127 -129v-72h-328zM1720 1536h328v-328z" />
<glyph unicode="Y" horiz-adv-x="512" d="M0 72l55 57l-55 55v400l457 -455l-457 -457v400zM0 -440l512 512v-400l-127 127l-313 -311h-72v72zM0 696v400l311 313l-127 127h328v-328zM0 1208v328h72l129 -127zM55 641l457 455v-400l-55 -55l55 -57v-400zM184 -512l201 201l127 -129v-72h-328z" />
<glyph unicode="Z" d="M0 -72v144l72 -72zM0 -440l440 440l-440 440v144l256 -256l567 569l-256 256l201 199l328 -328l-768 -768l385 -385l-72 -72l-129 129l-440 -440h-72v72zM0 696v400l201 -199zM0 1208v328h72l129 -127zM55 641l256 256l-256 256l256 256l-127 127h400l129 -127l-256 -256 l256 -256l-457 -457zM440 256l768 768l-512 512h400l184 -184l55 57l-127 127h400l-256 -256l256 -256l-768 -768l256 -256l-256 -256l256 -256h-144l-184 184l-184 -184h-144l383 383zM952 -256l256 256l-256 256l768 768l-256 256l201 201l383 -385v-400l-256 256l-55 -55 l311 -313v-400l-512 512l-311 -311l383 -385l-455 -457zM1208 -512l512 512l-385 385l201 199l512 -512v-400l-127 127l-57 -55l184 -184v-72h-328l-55 55l-57 -55h-400zM1720 1536h328v-328z" />
<glyph unicode="[" horiz-adv-x="512" d="M0 72l311 313l-256 256l201 199l256 -256v-400l-512 -512v400zM0 184v400l201 -199zM0 -440l72 -72h-72v72zM0 696v400l311 313l-127 127h328v-328zM0 1208v328h72l129 -127zM55 -385l201 201l256 -256v-72h-328zM311 -129l201 201v-400zM311 897l201 199v-400z" />
<glyph unicode="\" horiz-adv-x="1024" d="M0 72l584 -584h-400l-184 184v400zM0 184v400l256 -256l440 440l-696 696v72h72l952 -952v-144l-256 256l-440 -440l696 -696v-72h-328zM0 -440l72 -72h-72v72zM0 952v144l328 -328l-72 -72zM184 1536h400l440 -440v-400zM696 256l72 72l256 -256v-144zM696 1536h328 v-328z" />
<glyph unicode="]" horiz-adv-x="512" d="M0 72l201 -201l-201 -199v400zM0 184v400l512 512v-400l-311 -311l256 -256l-201 -201zM0 -440l512 512v-400l-127 127l-313 -311h-72v72zM0 696v400l201 -199zM0 1208v328h72l385 -383l-201 -201zM184 -512l201 201l127 -129v-72h-328zM184 1536h328v-328zM311 385 l201 199v-400z" />
<glyph unicode="^" d="M0 -72v144l256 -256l184 184l-129 129l586 584l1151 -1153v-72h-328l-823 823l-825 -823h-72v72l184 184zM0 440v144l55 57l-55 55v400l256 -256l567 569l-127 127h400l897 -895l-201 -201l-768 768l-895 -897zM0 1208v328h72l129 -127zM55 1153l256 256l-127 127h400 l129 -127l-457 -457zM184 256l840 840l768 -768l256 256v-400l-55 -55l55 -57v-400l-1151 1151l-641 -639zM440 -512l256 256l-129 127l330 330l711 -713h-400l-311 311l-313 -311h-144zM823 -385l74 74l199 -201h-144zM1208 1536h400l440 -440v-400zM1720 1536h328v-328z " />
<glyph unicode="_" horiz-adv-x="512" d="M0 72l201 -201l-201 -199v400zM0 184v400l311 313l-256 256l256 256l-127 127h328v-328l-127 127l-57 -55l184 -184v-400l-127 127l-313 -311l129 -127zM0 -440l311 311l-256 258l256 256l-127 127l201 201l127 -129v-400l-127 127l-57 -55l184 -184v-400l-127 127 l-313 -311h-72v72zM0 696v400l201 -199zM0 1208v328h72l129 -127zM184 -512l201 201l127 -129v-72h-328z" />
<glyph unicode="`" horiz-adv-x="512" d="M0 72l512 -512v-72h-328l-184 184v400zM0 184v400l512 -512v-400zM0 -440l72 -72h-72v72zM0 696v400l256 -256l256 256v-400l-256 -256zM0 1208v328h72l184 -184l55 57l-127 127h328v-328l-256 -256zM311 385l201 199v-400z" />
<glyph unicode="a" horiz-adv-x="512" d="M0 72l512 -512v-72h-328l-184 184v400zM0 184v400l512 -512v-400zM0 -440l72 -72h-72v72zM0 696v400l512 -512v-400zM0 1208v328h72l440 -440v-400zM184 1536h328v-328z" />
<glyph unicode="b" d="M0 -72v144l512 512l897 -895l311 311l-641 641l201 199l768 -768v-400l-127 127l-313 -311h-400l-696 696l-127 -129l-129 129zM0 440v144l55 57l-55 55v400l457 -455l-328 -330zM0 -440l512 512l584 -584h-144l-440 440l-440 -440h-72v72zM0 1208v328h72l696 -696 l567 569l-127 127h400l129 -127l-768 -768l639 -641l-199 -201zM184 1536h400l184 -184l55 57l-127 127h400l129 -127l-457 -457zM440 -512l72 72l72 -72h-144zM1335 897l512 512l-127 127h328v-328l-311 -311l311 -313v-400zM1720 -512l201 201l127 -129v-72h-328z M1847 897l201 199v-400z" />
<glyph unicode="c" d="M0 72l129 129l199 -201l-127 -129l184 -182l127 127l201 -201l-129 -127h-400l127 127l-55 57l-184 -184h-72v72l184 184l-55 55l-129 -127v400zM0 184v400l184 184l-55 55l-129 -127v400l129 129l199 -201l-127 -127l127 -129l-256 -256l129 -127zM0 1208v328h72 l768 -768l-256 -256l129 -127l-201 -201l-127 127l-57 -55l440 -440l55 55l-127 129l201 201l455 -457l-256 -256h-400l201 201l127 -129l184 184l-55 55l-129 -127l-127 127l-129 -127l-256 256l-127 -129l-74 72l129 129l-256 256l127 129l-127 127l201 201l127 -129 l55 57l-256 256l129 127l-311 311zM440 1536h144l-72 -72zM567 129l256 256l-127 127l201 201l127 -129l256 256l72 -72l-256 -256l696 -696l256 256v-144l-440 -440h-400l328 328l129 -127l55 55l-184 184l-127 -129l-330 330l129 127l-55 55l-129 -127l-127 127l-256 -256 zM696 1280l256 256h144l129 -127l-72 -74l-129 129l-184 -184l184 -184l256 256l129 -127l127 127l328 -328l-127 -127l127 -129l-256 -256l184 -184l184 184l-129 129l74 72l127 -129v-144l-256 -256l-328 328l256 256l-440 440l-256 -256zM1208 1536h400l440 -440v-400 l-201 201l129 127l-440 440l-127 -129zM1720 -512l201 201l127 -129v-72h-328zM1720 1536h328v-328z" />
<glyph unicode="d" d="M0 72l328 -328l-256 -256h-72v72l55 55l-55 57v400zM0 184v400l952 952h144l-512 -512l129 -127zM0 696v400l440 440h144l-256 -256l129 -127zM0 1208v328h72l129 -127zM55 129l1153 1151l-129 129l129 127h400l-768 -768l129 -127l-256 -256l440 -440l256 256l455 -457 l-256 -256h-400l127 127l-567 569l-383 -385zM184 -512l584 584l457 -457l-129 -127h-400l-55 55l-57 -55h-400zM823 385l641 639l-129 129l385 383h328v-328l-383 -385l-129 129l-440 -440l184 -184l768 768v-400l-127 -129l-129 129l-639 -641zM1720 256l328 328v-144 l-184 -184l184 -184v-144zM1720 -512l201 201l127 -129v-72h-328z" />
<glyph unicode="e" horiz-adv-x="512" d="M0 72l201 -201l-201 -199v400zM0 184v400l512 -512v-400l-127 127l-313 -311h-72v72l311 311zM0 696v400l512 -512v-400zM0 1208v328h72l440 -440v-400zM184 -512l201 201l127 -129v-72h-328zM184 1536h328v-328z" />
<glyph unicode="f" d="M0 72l55 57l-55 55v400l328 -328l-256 -256l129 -129l-201 -199v400zM0 -440l72 -72h-72v72zM0 696v400l512 -512l696 696l-256 256h144l256 -256l-967 -969zM0 1208v328h72l569 -567l182 184l-383 383h144l385 -383l-457 -457zM55 -385l256 256l-127 129l713 713 l127 -129l440 440l-129 129l129 127l-256 256h400l385 -383l-328 -330l-129 129l-440 -440l129 -127l-768 -770l127 -127h-400zM567 -385l969 969l512 -512v-144l-512 512l-696 -696l256 -256h-400zM952 -256l457 457l639 -641v-72h-328l-311 311l-57 -55l256 -256h-400z M1720 768l328 328v-400l-127 127l-57 -55l184 -184v-144zM1720 1536h328v-328z" />
<glyph unicode="g" d="M0 -72v144l584 -584h-144zM0 440v144l823 825l-127 127h400l129 -127l-1096 -1098zM0 -440l72 -72h-72v72zM0 696v400l311 313l-127 127h400l129 -127zM0 1208v328h72l129 -127zM184 256l584 584l584 -584l-199 -201l-385 385l-311 -311l639 -641h-144zM567 129l201 199 l385 -383l311 311l-641 641l457 455l768 -768v-400l-768 768l-55 -55l639 -641l-711 -713zM1208 -512l713 713l127 -129v-400l-127 127l-313 -311h-400zM1208 1536h400l440 -440v-400zM1720 -512l201 201l127 -129v-72h-328zM1720 1536h328v-328z" />
<glyph unicode="h" horiz-adv-x="1024" d="M0 72l129 -127l55 55l-184 184v400l584 -584l-455 -457l-129 129v400zM0 -440l72 -72h-72v72zM0 952v144l256 -256l184 184l-440 440v72h72l512 -512l-328 -328zM184 -512l457 457l383 -385v-72h-328l-55 55l-57 -55h-400zM184 1536h400l440 -440v-400zM440 512l328 328 l256 -256v-144l-256 256l-184 -184l440 -440v-144zM696 1536h328v-328z" />
<glyph unicode="i" horiz-adv-x="512" d="M0 72l512 -512v-72h-328l-184 184v400zM0 184v400l512 -512v-400zM0 -440l72 -72h-72v72zM0 696v400l311 313l-127 127h328v-328l-127 127l-313 -311l440 -440v-400zM0 1208v328h72l129 -127zM184 1024l201 201l127 -129v-400z" />
<glyph unicode="j" d="M0 -72v144l1079 1081l-383 383h400l256 -256zM0 440v144l567 569l-182 182l-57 -55l129 -127l-457 -457v400l311 313l-127 127h400l385 -383l-840 -842zM0 -440l72 -72h-72v72zM0 1208v328h72l129 -127zM184 -256l1407 1409l-383 383h400l385 -383l-457 -457l-127 127 l-1081 -1079l256 -256h-144zM311 129l1098 1096l72 -72l-1096 -1098zM567 -129l842 842l127 -129l512 512v-400l-512 -512l-127 127l-569 -567l256 -256h-144zM952 -256l457 457l127 -129l512 512v-400l-512 -512l-127 127l-57 -55l184 -184l512 512v-400l-127 127 l-313 -311h-400zM1720 -512l201 201l127 -129v-72h-328zM1720 1536h328v-328z" />
<glyph unicode="k" d="M0 72l584 -584h-400l-184 184v400zM0 184v400l256 -256l55 57l-311 311v400l512 -512l55 57l-256 256l385 383l-256 256h144l256 -256l-256 -256l184 -184l440 440l-256 256h144l256 -256l-512 -512l129 -127l-713 -713zM0 -440l72 -72h-72v72zM0 1208v328h72l385 -383 l-201 -201zM311 -129l1153 1153l-129 129l201 199l328 -328l-127 -127l311 -313v-144l-512 512l-440 -440l129 -127l-512 -514l383 -383h-400zM823 -129l713 713l328 -328l-256 -256l440 -440v-72h-328l-385 383l385 385l-184 184l-184 -184l129 -127l-256 -258l383 -383 h-400zM1208 1536h400l440 -440v-400l-201 201l129 127l-440 440l-127 -129zM1720 1536h328v-328zM1976 0l72 72v-144z" />
<glyph unicode="l" horiz-adv-x="1024" d="M0 72l584 -584h-400l-184 184v400zM0 184v400l55 57l-55 55v400l457 -455l-256 -256l823 -825v-72h-328zM0 -440l72 -72h-72v72zM0 1208v328h72l897 -895l-256 -256l311 -313v-400l-713 713l256 256zM440 1536h144l440 -440v-144zM823 385l201 199v-400zM952 1536h72v-72 z" />
<glyph unicode="m" d="M0 72l129 129l328 -330l-385 -383h-72v72l55 55l-55 57v400zM0 184v400l129 129l383 -385l55 57l-256 256l201 199l457 -455l-457 -457l-383 383zM0 696v400l440 440h144l184 -184l184 184h144l-328 -328l-256 256l-184 -184l256 -256l-328 -328l-127 127zM0 1208v328h72 l129 -127zM184 -512l328 328l201 -201l-129 -127h-400zM567 -129l457 457l385 -383l55 55l-897 897l74 72l383 -385l184 184l-256 256l256 256l-129 129l74 72l256 -256l55 55l-256 256h400l256 -256l-328 -328l-256 256l-184 -184l256 -256l-256 -256l512 -512l-328 -328 l-256 256l-55 -57l256 -256l-129 -127h-400l127 127zM1208 -512l457 457l383 -385v-72h-328l-55 55l-57 -55h-400zM1464 512l72 72l512 -512v-144zM1591 897l330 328l127 -129v-400l-127 127l-57 -55l184 -184v-144zM1720 1536h328v-328z" />
<glyph unicode="n" d="M0 -72v144l184 184l-129 129l74 72l383 -385l440 440l-256 256l328 328l72 -72l-256 -256l385 -383l-72 -74l-129 129l-184 -184l57 -55l127 127l328 -328l-127 -129l184 -182l127 127l201 -201l-129 -127h-400l127 127l-182 184l-129 -127l-328 328l127 129l-55 55 l-184 -184l129 -129l-72 -72l-129 129l-440 -440h-72v72l440 440l-184 184zM0 440v144l440 440l-129 129l256 256l-55 55l-127 -129l-201 201h400l385 -383l-328 -330l-129 129l-184 -184l57 -55l127 127l328 -328l-328 -328l-328 328l127 129l-55 55zM0 696v400l256 256 l72 -72l-127 -127l127 -129zM0 1208v328h72l129 -127zM440 -512l328 328l256 -256l129 129l72 -74l-129 -127h-144l-184 184l-184 -184h-144zM696 1536h400l313 -311l256 256l127 -129l55 57l-127 127h328v-328l-127 127l-57 -55l184 -184v-400l-201 201l129 127l-55 55 l-440 -438l127 -129l-328 -328l-72 72l256 256l-55 55l-129 -127l-328 328l383 385l-55 55l-127 -129zM1208 1536h400l-199 -201zM1335 -129l129 129l-129 129l330 328l127 -129l55 57l-256 256l201 199l256 -256v-400l-127 127l-57 -55l129 -127l-256 -258l127 -127 l-72 -72l-256 256l-127 -129zM1720 -512l201 201l127 -129v-72h-328zM1847 -129l201 201v-400z" />
<glyph unicode="o" horiz-adv-x="512" d="M0 72l311 313l-311 311v400l512 -512v-400l-512 -512v400zM0 184v400l201 -199zM0 -440l512 512v-400l-127 127l-313 -311h-72v72zM0 1208v328h72l440 -440v-400zM184 -512l201 201l127 -129v-72h-328zM184 1536h328v-328z" />
<glyph unicode="p" d="M0 -72v144l823 825l-127 127l383 385l-55 55l-127 -129l-201 201h400l256 -256l-256 -256l129 -127l-840 -842l-129 129zM0 -440l1335 1337l-127 127l328 328l328 -328l-127 -127l311 -313v-400l-457 457l129 127l-55 55l-129 -127l-127 127l-1337 -1335h-72v72zM0 440 v144l311 313l-127 127l383 385l-55 55l-127 -129l-201 201h400l256 -256l-256 -256l129 -127l-584 -586zM0 696v400l184 184l-55 55l-129 -127v328h72l256 -256l-256 -256l129 -127zM440 -512l256 256l-129 127l842 842l639 -641v-400l-457 457l129 127l-55 55l-129 -127 l-127 127l-825 -823h-144zM823 -385l330 330l199 -201l-256 -256h-144zM1208 0l201 201l455 -457l-256 -256h-400l256 256zM1208 1536h400l440 -440v-400l-201 201l129 127l-440 440l-127 -129zM1720 -512l201 201l127 -129v-72h-328zM1720 1536h328v-328z" />
<glyph unicode="q" d="M0 72l311 313l-127 127l201 201l383 -385l55 57l-438 438l-313 -311l129 -127l-201 -201v400l311 313l-127 127l201 201l639 -641l256 256l72 -72l-711 -713l-256 256l-313 -311l129 -129l-201 -199v400zM0 -440l311 311l-127 129l201 201l256 -256l512 512l127 -129 l567 569l-127 127l201 201l127 -129v-400l-127 -129l-129 129l-440 -440l184 -184l512 512v-144l-639 -641l-385 385l-55 -55l256 -258l-201 -199l-127 127l-256 -256l-256 256l-313 -311h-72v72zM0 696v400l440 440h144l184 -184l184 184h144l-328 -328l-256 256l-440 -440 l129 -127zM0 1208v328h72l129 -127zM184 -512l201 201l199 -201h-400zM696 -512l201 201l127 -129l256 256l129 -127l256 256l127 -129l256 256v-144l-440 -440h-400l-55 55l-57 -55h-400zM952 1024l256 256l-129 129l74 72l383 -385l311 313l-127 127h328v-328l-127 127 l-313 -311l129 -127l-72 -74l-385 385l-256 -256zM1208 1536h400l129 -127l-201 -201zM1720 -512l201 201l127 -129v-72h-328z" />
<glyph unicode="r" horiz-adv-x="1024" d="M0 72l201 -201l-201 -199v400zM0 184v400l584 -584l-512 -512h-72v72l311 311zM0 952v144l1024 -1024v-144l-440 -440h-400l457 457l127 -129l184 184zM0 1464v72h72l440 -440l311 313l-127 127h328v-328l-127 127l-385 -383zM184 1536h400l129 -127l-201 -201zM567 897 l330 328l127 -129v-400l-55 -55l55 -57v-144zM696 -512l201 201l127 -129v-72h-328z" />
<glyph unicode="s" horiz-adv-x="1024" d="M0 72l311 313l-127 127l328 328l328 -328l-328 -328l-127 127l-313 -311l440 -440l311 311l-127 129l201 201l127 -129v-400l-127 127l-313 -311h-400l-184 184v400zM0 184v400l311 313l-127 127l201 201l127 -129l440 440h72v-72l-440 -440l440 -440v-400l-127 127 l-313 -311l129 -129l-201 -199l-328 328l201 201l127 -129l440 440l-440 440l-440 -440l129 -127zM0 -440l72 -72h-72v72zM0 696v400l440 440h144l-512 -512l129 -127zM0 1208v328h72l129 -127zM696 -512l201 201l127 -129v-72h-328zM952 1024l72 72v-144z" />
<glyph unicode="t" horiz-adv-x="1024" d="M0 72l512 512l328 -328l-768 -768h-72v72l696 696l-184 184l-184 -184l129 -127l-457 -457v400zM0 184v400l184 184l-184 184v144l328 -328l-256 -256l129 -127zM0 1464v72h72l952 -952v-144zM184 -512l457 457l127 -129l256 256v-144l-440 -440h-400zM184 1536h400 l440 -440v-400zM696 -512l201 201l127 -129v-72h-328zM696 1536h328v-328z" />
<glyph unicode="u" horiz-adv-x="512" d="M0 72l129 129l199 -201l-328 -328v400zM0 184v400l129 129l199 -201l-127 -127l311 -313v-400l-127 127l-313 -311h-72v72l440 440l-311 311zM0 696v400l311 313l-127 127h328v-328l-127 127l-313 -311l440 -440v-400l-201 201l129 127l-311 311zM0 1208v328h72l129 -127 zM184 -512l201 201l127 -129v-72h-328zM184 1024l201 201l127 -129v-400z" />
<glyph unicode="v" d="M0 72l440 440l-55 55l-385 -383v400l385 385l455 -457l-256 -256l184 -184l385 385l127 -129l256 256l72 -72l-256 -256l696 -696v-72h-328l-567 567l-569 -567h-400l256 256l-184 184l-256 -256v400zM0 -440l256 256l72 -72l-256 -256h-72v72zM0 696v400l440 440h144 l-256 -256l696 -696l823 825l-127 127h328v-328l-127 127l-1153 -1151l-72 72l256 256l-567 567zM0 1208v328h72l129 -127zM696 -512l457 457l455 -457h-400l127 127l-55 57l-184 -184h-400zM696 1280l256 256h144l-256 -256l184 -184l184 184l-129 129l129 127h400 l129 -127l-328 -330l-129 129l-256 -256zM1591 897l330 328l127 -129v-400l-127 -129zM1720 256l328 328v-144l-184 -184l184 -184v-144z" />
<glyph unicode="w" d="M0 -72v144l184 184l-184 184v144l129 129l256 -256l55 55l-311 311l-129 -127v400l311 313l-127 127h400l184 -184l55 57l-127 127h400l256 -256l-199 -201l-129 129l-256 -256l-256 256l-311 -311l55 -57l129 129l455 -457l-455 -457l-129 129zM0 -440l952 952l-512 512 l72 72l256 -256l256 256l129 -127l383 383l201 -199l-129 -129l440 -440v-400l-383 383l-313 -311l696 -696v-72h-328l-385 383l129 129l-385 385l512 512l-55 55l-1464 -1464h-72v72zM0 1208v328h72l129 -127zM440 -512l256 256l-129 127l457 457l328 -328l-127 -129 l383 -383h-400l127 127l-311 313l-55 -57l256 -256l-129 -127h-144l-184 184l-184 -184h-144zM1208 1536h400l440 -440v-400l-328 328l127 129l-311 311l-127 -129zM1464 256l201 201l383 -385v-400zM1720 1536h328v-328z" />
<glyph unicode="x" d="M0 -72v144l256 -256l184 184l-385 385l201 199l129 -127l55 55l-129 129l201 199l129 -127l127 127l72 -72l-256 -256l440 -440l256 256l72 -72l-127 -127l127 -129l-199 -201l-129 129l-55 -57l127 -127l-199 -201l-201 201l256 256l-440 440l-184 -184l57 -55l127 127 l328 -328l-199 -201l-129 129l-184 -184l256 -256h-144l-184 184l-184 -184h-72v72l184 184zM0 440v144l72 -72zM0 696v400l256 256l72 -72l-256 -256l57 -55l127 127l129 -127l55 55l-129 129l201 199l129 -127l55 55l-184 184l-127 -129l-201 201h400l184 -184l55 57 l-127 127h400l129 -127l-201 -201l-127 127l-184 -182l127 -129l-199 -201l-129 129l-383 -385zM0 1208v328h72l129 -127zM696 512l201 201l127 -129l184 184l-55 55l-129 -127l-201 201l129 127l-129 129l74 72l127 -129l129 129l199 -201l-127 -127l55 -57l184 184 l-129 129l201 199l328 -328l-127 -127l55 -57l184 184l-440 440l-256 -256l-72 72l127 129l-127 127h400l440 -440v-400l-127 127l-129 -127l-256 256l-184 -184l57 -55l127 127l201 -199l-129 -129l184 -184l55 57l-127 127l201 201l127 -129v-400l-127 127l-57 -55 l184 -184v-400l-201 199l129 129l-184 184l-55 -55l127 -129l-199 -201l-330 330l201 199l129 -127l55 55l-184 184l-127 -129l-201 201l127 129l-55 55l-184 -184l129 -127l-201 -201zM952 -512l72 72l72 -72h-144zM1079 -385l330 330l199 -201l-127 -129l55 -55l256 256 l72 -72l-256 -256h-400zM1720 -512l201 201l127 -129v-72h-328zM1720 1536h328v-328z" />
<glyph unicode="y" horiz-adv-x="512" d="M0 72l512 -512v-72h-328l-184 184v400zM0 184v400l55 57l-55 55v400l457 -455zM0 -440l72 -72h-72v72zM0 1208v328h72l440 -440v-400zM55 129l457 455v-400l-55 -55l55 -57v-400zM184 1536h328v-328z" />
<glyph unicode="z" d="M0 72l55 57l-55 55v400l385 -383l512 512l127 -129l256 256l256 -256l512 512v-400l-55 -55l55 -57v-144l-256 256l-256 -256l-256 256l-895 -897l-129 129l-256 -256v400zM0 -440l72 -72h-72v72zM0 696v400l256 256l256 -256l256 256l72 -72l-328 -328l-127 127zM0 1208 v328h72l129 -127zM55 -385l201 201l129 -127l768 768l383 -385l256 256l72 -72l-328 -328l-256 256l-440 -440l256 -256h-400l-55 55l-57 -55h-400zM55 641l330 328l127 -129l129 129l127 -129l440 440l-256 256h144l313 -311l311 311h328v-328l-383 -385l-385 385 l-895 -897zM440 1536h144l-72 -72zM952 -256l328 328l256 -256l129 129l127 -129l256 256v-144l-184 -184l184 -184v-72h-328l-55 55l-57 -55h-400zM1208 1536h400l-199 -201z" />
<glyph unicode="{" horiz-adv-x="512" d="M0 72l201 -201l-201 -199v400zM0 184v400l512 512v-400l-127 127l-313 -311l440 -440v-400zM0 -440l256 256l256 -256v-72h-328l-55 55l-57 -55h-72v72zM0 696v400l201 -199zM0 1208v328h72l184 -184l55 57l-127 127h328v-328l-256 -256zM184 512l201 201l127 -129v-400z " />
<glyph unicode="|" horiz-adv-x="1024" d="M0 72l584 -584h-400l-184 184v400zM0 184v400l256 256l512 -512l256 256v-400l-256 -256l-512 512zM0 -440l72 -72h-72v72zM0 696v400l201 -199zM0 1208v328h72l897 -895l-201 -201zM55 129l201 199l768 -768v-72h-328zM440 1536h144l440 -440v-144zM696 1536h328v-328z M823 -129l201 201v-400z" />
<glyph unicode="}" horiz-adv-x="512" d="M0 72l440 440l-311 311l-129 -127v400l512 -512v-400l-512 -512v400zM0 184v400l129 129l199 -201zM0 -440l256 256l256 -256v-72h-328l-55 55l-57 -55h-72v72zM0 1208v328h72l184 -184l55 57l-127 127h328v-328l-256 -256zM311 -129l201 201v-400zM311 897l201 199v-400 z" />
<glyph unicode="~" d="M0 -72v144l184 184l-184 184v144l457 -455l-72 -74l-129 129zM0 -440l72 -72h-72v72zM0 696v400l1096 -1096l-199 -201zM0 1208v328h72l952 -952l256 256l201 -199l-457 -457zM184 -256l328 328l385 -383l311 311l-129 129l457 455l512 -512v-400l-512 512l-55 -55 l127 -129l-512 -512h-144l-440 440l-184 -184l256 -256h-144zM184 1536h400l385 -383l-201 -201zM696 1536h400l129 -127l-201 -201zM823 897l512 512l-127 127h400l129 -127l-713 -713zM1208 -512l457 457l383 -385v-72h-328l127 127l-55 57l-184 -184h-400zM1335 897 l457 455l256 -256v-400l-256 256l-55 -55l311 -313v-400zM1720 1536h328v-328z" />
<glyph unicode="&#xa1;" horiz-adv-x="1024" d="M0 72l696 696l-129 129l330 328l127 -129v-400l-127 -129l-129 129l-696 -696l512 -512h-400l-184 184v400zM0 184v400l823 825l-127 127h328v-328l-127 127l-825 -823l129 -127zM0 -440l72 -72h-72v72zM0 952v144l184 184l-129 129l129 127h400l129 -127l-328 -330 l-129 129zM0 1464v72h72zM184 0l201 201l127 -129l512 512v-144l-440 -440l440 -440v-72h-328zM952 0l72 72v-144z" />
<glyph unicode="&#xa2;" d="M0 -72v144l440 440l-55 55l-256 -256l-129 129v144l385 385l455 -457l-455 -457l-129 129l-184 -184l440 -440l768 768l768 -768v-72h-328l-311 311l-313 -311h-144l-184 184l-184 -184h-144zM0 -440l72 -72h-72v72zM0 696v400l129 129l199 -201zM0 1208v328h72l440 -440 l311 313l-127 127h400l129 -127l-385 -385l313 -311l383 383l201 -199l-1096 -1098l-201 201l512 512l-823 823zM184 1536h400l129 -127l-201 -201zM952 1024l383 385l-127 127h400l440 -440v-400l-55 -55l55 -57v-400l-127 127l-256 -256l-330 330l512 512l-311 311 l-383 -385zM1208 -512l201 201l199 -201h-400zM1720 0l201 201l127 -129v-400zM1720 1536h328v-328z" />
<glyph unicode="&#xa3;" horiz-adv-x="512" d="M0 72l184 184l-55 55l-129 -127v400l129 129l199 -201l-127 -127l311 -313v-400l-127 127l-313 -311h-72v72l311 311l-127 129l127 129l-55 55l-184 -184l129 -129l-201 -199v400zM0 696v400l311 313l-127 127h328v-328l-127 127l-313 -311l184 -184l55 57l-127 127 l201 201l127 -129v-400l-127 127l-57 -55l184 -184v-400l-201 201l129 127l-311 311zM0 1208v328h72l129 -127zM184 -512l201 201l127 -129v-72h-328z" />
<glyph unicode="&#xa5;" horiz-adv-x="512" d="M0 72l512 -512v-72h-328l-184 184v400zM0 184v400l440 440l-311 311l-129 -127v328h72l440 -440v-400zM0 -440l72 -72h-72v72zM0 696v400l129 129l199 -201zM55 129l457 455v-400l-127 127l-57 -55l184 -184v-400zM184 1536h328v-328z" />
<glyph unicode="&#xa7;" horiz-adv-x="512" d="M0 72l201 -201l-201 -199v400zM0 184v400l256 256l256 -256v-400l-256 -256zM0 -440l512 512v-400l-127 127l-313 -311h-72v72zM0 696v400l311 313l-127 127h328v-328zM0 1208v328h72l129 -127zM72 512l184 -184l184 184l-184 184zM184 -512l201 201l127 -129v-72h-328z M311 897l201 199v-400z" />
<glyph unicode="&#xa8;" horiz-adv-x="512" d="M0 72l512 -512v-72h-328l-129 127l129 129l-55 55l-129 -127v400zM0 184v400l440 440l-55 55l-129 -127l-201 201l129 127l-55 55l-129 -127v328h72l440 -440v-400l-127 127l-57 -55l129 -127l-201 -201l-127 127l-57 -55l440 -440v-400l-201 199l129 129l-55 55 l-129 -127l-201 201l129 127l-55 55zM0 -440l72 -72h-72v72zM0 696v400l201 -199zM184 1536h328v-328zM311 385l201 199v-400z" />
<glyph unicode="&#xa9;" d="M0 72l129 129l584 -586l-129 -127h-400l-184 184v400zM0 184v400l457 -455l-72 -74l-256 256zM0 -440l72 -72h-72v72zM0 696v400l840 -840l-256 -256l512 -512h-400l127 127l-383 385l127 129zM0 1208v328h72l1208 -1208l256 256l512 -512v-144l-512 512l-440 -440 l512 -512h-400l-512 512l256 256zM440 1536h144l696 -696l184 184l-129 129l201 199l328 -328l-127 -127l311 -313v-144l-512 512l-256 -256zM952 1536h144l256 -256l-72 -72zM1208 0l201 201l639 -641v-72h-328zM1208 1536h400l440 -440v-400l-201 201l129 127l-440 440 l-127 -129zM1720 1536h328v-328z" />
<glyph unicode="&#xaa;" horiz-adv-x="1024" d="M0 72l55 57l-55 55v400l952 952h72v-72l-440 -440l129 -127l-512 -512l55 -57l256 256l201 -199l-713 -713v400zM0 -440l823 825l-256 256l201 199l256 -256v-400l-127 127l-825 -823h-72v72zM0 696v400l55 57l-55 55v328h72l184 -184l184 184h144l-256 -256l129 -127z M184 -512l201 201l199 -201h-400zM440 -256l201 201l383 -385v-72h-328zM696 0l201 201l127 -129v-400zM952 1024l72 72v-144z" />
<glyph unicode="&#xab;" horiz-adv-x="1024" d="M0 72l129 129l199 -201l-127 -129l55 -55l440 440l-256 256l383 385l-127 127l201 201l127 -129v-400l-127 127l-57 -55l129 -127l-72 -74l-129 129l-184 -184l440 -440v-144l-256 256l-440 -440l57 -55l127 127l201 -201l-129 -127h-400l127 127l-182 184l-129 -127v400 zM0 184v400l823 825l-127 127h328v-328l-127 127l-313 -311l129 -127l-72 -74l-129 129l-440 -440l385 -383l-72 -74l-256 256zM0 -440l129 129l72 -74l-129 -127h-72v72zM0 952v144l311 313l-127 127h400l129 -127l-201 -201l-127 127l-57 -55l129 -127l-72 -74l-129 129z M0 1464v72h72l129 -127l-72 -74zM567 -129l74 74l383 -385v-72h-328l127 127zM952 512l72 72v-144z" />
<glyph unicode="&#xac;" horiz-adv-x="1024" d="M0 72l696 696l-512 512l127 129l-127 127h400l-256 -256l440 -440l256 256v-400l-127 127l-569 -567l512 -512l-256 -256h-400l256 256l-184 184l-256 -256v400zM0 184v400l184 184l-184 184v144l328 -328l-256 -256l129 -127zM0 -440l256 256l72 -72l-256 -256h-72v72z M0 1464v72h72l129 -127l-72 -74zM440 1280l256 256h328v-328l-256 -256zM696 256l256 256l-129 129l74 72l127 -129v-144l-184 -184l184 -184v-144zM696 -512l201 201l127 -129v-72h-328z" />
<glyph unicode="&#xae;" horiz-adv-x="1024" d="M0 72l129 -127l311 311l-440 440v400l840 -840l-256 -256l57 -55l256 256l127 -129v-400l-127 127l-313 -311h-400l256 256l-55 55l-256 -256l-129 129v400zM0 184v400l328 -328l-199 -201zM0 -440l72 -72h-72v72zM0 1208v328h72l184 -184l184 184h144l-455 -457z M184 1024l201 201l127 -129l440 440h72v-72l-440 -440l129 -127l-201 -201zM567 641l457 455v-144l-184 -184l184 -184v-400zM696 -512l201 201l127 -129v-72h-328z" />
<glyph unicode="&#xaf;" horiz-adv-x="512" d="M0 72l201 -201l-201 -199v400zM0 184v400l512 -512v-400l-127 127l-57 -55l184 -184v-72h-328l-129 127l385 385l-55 55l-129 -127zM0 -440l72 -72h-72v72zM0 696v400l201 -199zM0 1208v328h72l440 -440v-400l-127 127l-57 -55l184 -184v-400l-457 457l385 383l-55 55 l-129 -127zM184 1536h328v-328z" />
<glyph unicode="&#xb0;" horiz-adv-x="1024" d="M0 72l512 -512l512 512v-400l-127 127l-313 -311h-400l-184 184v400zM0 184v400l512 512l201 -199l-512 -512l256 -256l-201 -201l-201 201l129 127l-55 55zM0 -440l72 -72h-72v72zM0 696v400l440 440h144l440 -440v-144l-512 512l-184 -184l129 -127zM0 1208v328h72 l129 -127zM311 -129l641 641l-55 55l-129 -127l-201 201l201 199l256 -256v-400l-512 -512zM311 385l201 199l201 -199l-201 -201zM696 -512l201 201l127 -129v-72h-328zM952 1536h72v-72z" />
<glyph unicode="&#xb1;" horiz-adv-x="512" d="M0 72l512 512v-400l-55 -55l55 -57v-400l-256 256l-256 -256v400zM0 184v400l55 57l-55 55v400l256 -256l256 256v-400zM0 -440l256 256l256 -256v-72h-328l-55 55l-57 -55h-72v72zM0 1208v328h72l184 -184l55 57l-127 127h328v-328l-256 -256z" />
<glyph unicode="&#xb4;" horiz-adv-x="512" d="M0 72l256 256l256 -256v-400l-256 256l-256 -256v400zM0 184v400l201 -199zM0 -440l256 256l256 -256v-72h-328l-55 55l-57 -55h-72v72zM0 696v400l512 -512v-400zM0 1208v328h72l440 -440v-400zM184 1536h328v-328z" />
<glyph unicode="&#xb5;" d="M0 -72v144l184 184l-184 184v144l457 -455l-72 -74l-129 129zM0 -440l567 569l-567 567v400l969 -967l-328 -330l-129 129l-440 -440h-72v72zM0 1208v328h72l1208 -1208l696 696l-55 55l-129 -127l-584 584h400l440 -440v-400l-127 127l-1337 -1335h-144l768 768l-55 55 l-129 -127zM184 1536h400l897 -895l-201 -201zM696 1536h400l641 -639l-201 -201zM823 -385l1098 1098l72 -72l-1096 -1098zM952 -512l1096 1096v-400l-127 127l-825 -823h-144zM1208 -512l201 201l127 -129l512 512v-400l-127 127l-313 -311h-400zM1464 -256l457 457 l72 -72l-457 -457zM1720 -512l201 201l127 -129v-72h-328zM1720 1536h328v-328z" />
<glyph unicode="&#xb6;" d="M0 72l55 57l-55 55v400l457 -455l-457 -457v400zM0 -440l567 569l-256 256l713 711l72 -72l-256 -256l696 -696l184 184l-256 256l256 256l-129 129l330 328l127 -129v-400l-127 -129l-129 129l-184 -184l256 -256l-711 -713l-201 201l256 256l-311 311l-825 -823h-72v72 zM0 696v400l440 440h144l-256 -256l129 -127l-256 -256l55 -57l696 696h144l57 -55l55 55h400l129 -127l-328 -330l-385 385l-440 -440l129 -127l-457 -457zM0 1208v328h72l129 -127zM184 -512l713 713l199 -201l-512 -512h-400zM696 -512l201 201l199 -201h-400zM1208 -512 l457 457l127 -129l256 256v-144l-440 -440h-400zM1208 768l639 641l-127 127h328v-328l-127 127l-641 -639zM1720 -512l201 201l127 -129v-72h-328zM1976 512l72 72v-144z" />
<glyph unicode="&#xb7;" horiz-adv-x="1024" d="M0 72l256 256l328 -328l-512 -512h-72v72l440 440l-55 55l-385 -383v400zM0 184v400l256 256l512 -512l256 256v-144l-256 -256l-512 512l-184 -184l129 -127zM0 952v144l184 184l-129 129l129 127h400zM0 1464v72h72zM184 -512l457 457l127 -129l256 256v-144l-440 -440 h-400zM311 1153l385 383h328v-328l-311 -311l55 -57l256 256v-400l-127 -129l-457 457l383 385l-55 55l-383 -385zM696 -512l201 201l127 -129v-72h-328z" />
<glyph unicode="&#xb8;" d="M0 72l55 57l-55 55v400l256 -256l55 57l-127 127l383 385l-55 55l-127 -129l-385 385v328h72l696 -696l440 440l-256 256h144l184 -184l55 57l-127 127h400l440 -440v-400l-584 584l127 129l-55 55l-184 -184l641 -639l-72 -74l-641 641l-184 -184l256 -256l-72 -72 l-256 256l-440 -440l256 -256l-199 -201l-256 256l-57 -55l512 -512l-199 -201l-512 512l-57 -55l512 -512h-400l-184 184v400zM0 -440l72 -72h-72v72zM0 696v400l328 -328l-199 -201zM440 1536h144l256 -256l-72 -72zM696 0l201 201l639 -641l55 55l-895 897l201 201 l895 -897l184 184l-512 512l72 72l512 -512v-144l-440 -440h-400zM696 -512l201 201l199 -201h-400zM1720 -512l201 201l127 -129v-72h-328zM1720 1536h328v-328zM1976 512l72 72v-144z" />
<glyph unicode="&#xba;" horiz-adv-x="1024" d="M0 72l201 -201l-201 -199v400zM0 184v400l823 825l-127 127h328v-328l-127 127l-825 -823l385 -383l-201 -201zM0 -440l952 952l-385 385l74 72l383 -385v-144l-952 -952h-72v72zM0 952v144l72 -72zM0 1464v72h72l385 -383l-72 -74zM184 -512l201 201l199 -201h-400z M184 1536h400l129 -127l-201 -201zM440 -256l201 201l383 -385v-72h-328zM696 1024l201 201l127 -129v-400zM952 0l72 72v-144z" />
<glyph unicode="&#xbb;" horiz-adv-x="1024" d="M0 72l311 313l-311 311v400l256 -256l55 57l-127 127l201 201l127 -129l184 184l-256 256h144l440 -440v-144l-256 256l-184 -184l129 -127l-201 -201l-127 127l-57 -55l385 -383l-713 -713v400zM0 184v400l201 -199zM0 -440l823 825l-256 256l201 199l256 -256v-400 l-127 127l-825 -823h-72v72zM0 1208v328h72l256 -256l-199 -201zM184 -512l713 713l127 -129v-400l-127 127l-313 -311h-400zM696 -512l201 201l127 -129v-72h-328zM696 1536h328v-328z" />
<glyph unicode="&#xbf;" horiz-adv-x="1024" d="M0 72l567 569l-311 311l-256 -256v400l440 440h144l-256 -256l440 -440l256 256v-144l-184 -184l129 -127l-768 -770l383 -383h-400l-184 184v400zM0 184v400l256 256l201 -199zM0 -440l72 -72h-72v72zM0 1208v328h72l129 -127zM311 -129l713 713v-400l-311 -313 l311 -311v-72h-328zM696 1280l256 256h72v-72l-256 -256zM823 -129l201 201v-400z" />
<glyph unicode="&#xc0;" d="M-72 -512l2120 2120v-400l-1407 -1409l-129 129l-440 -440h-144zM440 -512l328 328l328 -328h-144l-184 184l-184 -184h-144zM823 -129l1225 1225v-400l-823 -825l383 -383h-400zM1335 -129l201 201l512 -512v-72h-328zM1591 129l457 455v-400l-55 -55l55 -57v-400z" />
<glyph unicode="&#xc1;" horiz-adv-x="512" d="M0 72l512 512v-400l-127 127l-313 -311l440 -440v-72h-328l-184 184v400zM0 184v400l184 184l-55 55l-129 -127v400l457 -455zM0 -440l72 -72h-72v72zM0 1208v328h72l440 -440v-400zM184 0l201 201l127 -129v-400zM184 1536h328v-328z" />
<glyph unicode="&#xc2;" d="M0 72l696 696l-567 567l-129 -127v328h72l897 -895l-969 -969v400zM0 184v400l184 184l-55 55l-129 -127v400l129 129l455 -457zM0 -440l1208 1208l-768 768h144l1464 -1464v-144l-440 -440h-400l457 457l127 -129l184 184l-696 696l-1208 -1208h-72v72zM184 -512 l969 969l199 -201l-768 -768h-400zM696 -512l713 713l199 -201l-512 -512h-400zM952 1536h144l952 -952v-144zM1208 1536h400l440 -440v-400zM1720 -512l201 201l127 -129v-72h-328zM1720 1536h328v-328z" />
<glyph unicode="&#xc3;" horiz-adv-x="512" d="M0 72l512 512v-400l-127 127l-313 -311l184 -184l55 55l-127 129l201 201l127 -129v-400l-127 127l-313 -311h-72v72l184 184l-55 55l-129 -127v400zM0 184v400l440 440l-184 184l-55 -55l127 -129l-328 -328v400l311 313l-127 127h328v-328l-127 127l-57 -55l184 -184 v-400zM0 1208v328h72l129 -127zM184 -512l201 201l127 -129v-72h-328z" />
<glyph unicode="&#xc4;" d="M-72 -512l840 840l256 -256l129 129l199 -201l-127 -129l127 -127l-256 -256h-400l256 256l-311 311l-569 -567h-144zM184 -512l457 457l199 -201l-256 -256h-400zM823 385l1225 1223v-400l-383 -385l-129 129l-440 -440l440 -440l512 512v-144l-440 -440l129 -129 l-201 -199l-201 199l129 129l-311 311l-129 -127zM1208 -512l201 201l127 -129l512 512v-144l-440 -440h-400zM1464 512l584 584v-400l-127 -129l-129 129l-256 -256zM1720 -512l201 201l127 -129v-72h-328z" />
<glyph unicode="&#xc5;" horiz-adv-x="512" d="M0 72l256 256l256 -256v-400l-256 256l-256 -256v400zM0 184v400l256 256l256 -256v-400l-256 256zM0 -440l256 256l256 -256v-72h-328l-55 55l-57 -55h-72v72zM0 696v400l256 256l256 -256v-400l-256 256zM0 1208v328h72l57 -55l55 55h328v-328l-256 256zM72 0l57 -55 l55 55l-55 55zM72 512l57 -55l55 55l-55 55zM72 1024l57 -55l55 55l-55 55z" />
<glyph unicode="&#xc6;" d="M0 -72v144l768 768l512 -512l768 768v-400l-567 -567l567 -569v-72h-328l-952 952l-383 -385l-129 129zM0 440v144l567 569l-127 127l256 256h400l-512 -512l129 -127l-584 -586zM0 -440l768 768l840 -840h-400l-440 440l-127 -129l-129 129l-440 -440h-72v72zM0 696v400 l311 313l-127 127h400l-256 -256l129 -127zM0 1208v328h72l129 -127zM440 -512l328 328l328 -328h-144l-184 184l-184 -184h-144zM696 1024l512 512h400l-711 -713zM952 768l768 768h328v-328l-768 -768zM1591 129l457 455v-400l-256 -256zM1847 -129l201 201v-400z" />
<glyph unicode="&#xc7;" d="M0 72l129 -127l127 127l328 -328l-127 -129l127 -127h-400l127 127l-182 184l-129 -127v400zM0 184v400l311 313l-127 127l201 201l127 -129l184 184l-256 256h144l256 -256l-256 -256l129 -127l-385 -385l129 -127l-129 -129l440 -440l129 129l127 -129l385 385 l127 -129l440 440l-129 129l74 72l127 -129v-144l-440 -440l129 -129l-201 -199l-127 127l-313 -311h-400l-129 127l129 129l-440 440l-127 -129zM0 -440l129 129l72 -74l-129 -127h-72v72zM0 696v400l385 385l72 -72l-385 -385l129 -127zM0 1208v328h72l129 -127zM440 256 l127 129l-127 127l895 897l-127 127h400l-1024 -1024l440 -440l696 696l-184 184l-440 -440l129 -127l-201 -201l-328 328l201 201l127 -129l440 440l-129 129l330 328l127 -129l55 57l-127 127h328v-328l-127 127l-57 -55l129 -127l-256 -256l55 -57l256 256v-400l-127 127 l-897 -895l-127 127l-129 -127zM952 1536h144l129 -127l-72 -74zM1208 -512l201 201l127 -129l512 512v-144l-440 -440h-400zM1720 -512l201 201l127 -129v-72h-328z" />
<glyph unicode="&#xc8;" d="M-72 1536h144l1976 -1976v-144zM440 1536h144l440 -440l184 184l-129 129l129 127h400l-584 -584zM952 1536h144l-72 -72zM1208 768l256 256l-129 129l385 383h328v-328l-383 -385l-129 129l-184 -184l696 -696v-144zM1720 768l328 328v-400l-55 -57l55 -55v-144z" />
<glyph unicode="&#xcb;" d="M-72 1536h144l569 -567l567 567h400l-840 -840zM184 1536h400l184 -184l55 57l-127 127h400l-455 -457zM823 641l897 895h328v-328l-895 -897zM1208 256l840 840v-400l-567 -567l567 -569v-144zM1591 129l457 455v-400l-127 127l-57 -55l184 -184v-400z" />
<glyph unicode="&#xcd;" horiz-adv-x="1024" d="M0 72l311 313l-127 127l256 256l-256 256l201 201l455 -457l-256 -256l440 -440v-400l-201 199l129 129l-311 311l-440 -440l127 -127l-256 -256h-72v72l55 55l-55 57v400zM0 184v400l55 57l-55 55v400l440 440h144l440 -440v-144l-512 512l-440 -440l256 -256l-256 -256 l129 -127zM0 1208v328h72l129 -127zM184 -512l256 256l-129 127l330 330l199 -201l-127 -129l127 -127l-256 -256h-400zM696 512l201 201l127 -129v-400zM696 -512l201 201l127 -129v-72h-328zM952 1536h72v-72z" />
<glyph unicode="&#xce;" d="M0 72l201 -201l-201 -199v400zM0 184v400l584 -584l-512 -512h-72v72l311 311zM0 696v400l440 440h144l-256 -256l184 -184l440 440h144l-967 -969zM0 1208v328h72l129 -127zM184 -512l512 512l-512 512l457 457l127 -129l184 184l-129 129l330 328l895 -897v-144 l-895 895l-184 -182l127 -129l-512 -512l1024 -1024h-400l-311 311l-313 -311h-400zM696 512l457 457l895 -897v-144l-895 895l-184 -182l1079 -1081v-72h-328zM696 -512l201 201l199 -201h-400zM1208 1536h400l440 -440v-400zM1720 1536h328v-328z" />
<glyph unicode="&#xcf;" d="M0 72l129 129l199 -201l-127 -129l55 -55l385 385l72 -72l-385 -385l57 -55l127 127l201 -201l-129 -127h-400l127 127l-55 57l-184 -184h-72v72l184 184l-55 55l-129 -127v400zM0 184v400l184 184l-55 55l-129 -127v400l256 256l201 -199l-201 -201l-127 127l-57 -55 l256 -256l-256 -256l129 -127zM0 1208v328h72l129 -127zM184 256l127 129l-127 127l201 201l127 -129l55 57l-127 127l201 201l328 -328l-201 -201l-127 127l-57 -55l184 -184l440 440l-440 440l-383 -385l-74 74l385 383l-256 256h144l184 -184l184 184h144l129 -127 l-72 -74l-129 129l-184 -184l440 -440l385 385l72 -72l-385 -385l440 -440l184 184l-129 129l74 72l127 -129v-144l-639 -641l-74 72l385 385l-440 440l-440 -440l184 -184l55 57l-127 127l201 201l328 -328l-201 -201l-127 127l-57 -55l129 -129l-201 -199l-127 127 l-129 -127l-201 199l201 201l129 -127l55 55l-440 440l-55 -55l127 -129l-199 -201zM696 -512l201 201l127 -129l256 256l72 -72l-256 -256h-400zM1208 -512l201 201l127 -129l55 55l-127 129l201 201l127 -129l256 256v-144l-440 -440h-400zM1208 1280l127 129l-127 127 h400l440 -440v-400l-127 127l-129 -127l-201 201l201 199l129 -127l55 55l-440 440l-55 -55l127 -129l-199 -201zM1720 -512l201 201l127 -129v-72h-328zM1720 1536h328v-328z" />
<glyph unicode="&#xd1;" d="M0 72l256 -256l55 55l-311 313v400l584 -584l-455 -457l-129 129v400zM0 -440l72 -72h-72v72zM0 696v400l512 -512l55 57l-256 256l641 639h144l440 -440l55 57l-383 383h400l256 -256l-328 -328l-512 512l-440 -440l256 -256l-455 -457zM0 1208v328h72l184 -184l184 184 h144l-256 -256l129 -127l-201 -201zM184 -512l713 713l199 -201l-512 -512h-400zM440 256l457 457l1151 -1153v-72h-328l-823 823l-256 -256zM696 -512l201 201l199 -201h-400zM952 -256l201 201l455 -457h-400zM952 1024l72 72l1024 -1024v-144zM1591 897l330 328l127 -129 v-400l-55 -55l55 -57v-144zM1720 1536h328v-328z" />
<glyph unicode="&#xd2;" horiz-adv-x="1024" d="M0 72l55 57l-55 55v400l457 -455l-457 -457v400zM0 -440l72 -72h-72v72zM0 696v400l129 -127l256 256l127 -129l184 184l-256 256h144l256 -256l-256 -256l129 -127l-256 -256l567 -569v-400l-256 256l-311 -313l127 -127h-400l-129 127l512 514zM0 1208v328h72l256 -256 l-199 -201zM567 -385l201 201l256 -256v-72h-328zM567 641l457 455v-144l-184 -184l184 -184v-400zM952 1536h72v-72z" />
<glyph unicode="&#xd3;" horiz-adv-x="1024" d="M0 72l512 512l256 -256l256 256v-144l-256 -256l-256 256l-440 -440l512 -512h-400l-184 184v400zM0 184v400l440 440l-129 129l385 383h328v-328l-383 -385l-129 129l-440 -440l129 -127zM0 -440l72 -72h-72v72zM0 952v144l311 313l-127 127h400zM0 1464v72h72l129 -127 l-72 -74zM184 0l201 201l639 -641v-72h-328zM696 768l328 328v-400l-127 -129z" />
<glyph unicode="&#xd4;" d="M0 -72v144l184 184l-129 129l330 328l840 -842l-328 -328l-129 129l-184 -184h-144l383 383l-438 440zM0 440v144l256 256l72 -72zM0 -440l440 440l-129 129l74 72l328 -330l-72 -72l-129 129l-440 -440h-72v72zM0 696v400l311 313l-127 127h400l-256 -256l1720 -1720 v-72h-328l-1591 1591l-57 -55l129 -127zM0 1208v328h72l129 -127zM440 1280l256 256h400l-455 -457zM696 1024l457 457l72 -72l-457 -457zM823 897l512 512l-127 127h400l129 -127l-512 -512l184 -184l512 512l127 -129v-400l-127 127l-512 -512zM952 -512l328 328l328 -328 h-400l127 127l-55 57l-184 -184h-144zM1335 897l512 512l-127 127h328v-328l-127 127l-512 -512zM1464 256l457 457l72 -72l-457 -457zM1591 129l457 455v-400l-55 -55l55 -57v-400z" />
<glyph unicode="&#xd5;" horiz-adv-x="512" d="M0 72l184 184l-55 55l-129 -127v400l512 -512v-400l-328 328l127 129l-55 55l-184 -184l129 -129l-201 -199v400zM0 -440l72 -72h-72v72zM0 696v400l184 184l-55 55l-129 -127v328h72l440 -440v-400l-328 328l127 129l-55 55l-184 -184l129 -127zM55 -385l201 201 l256 -256v-72h-328zM55 641l201 199l256 -256v-400zM184 1536h328v-328z" />
<glyph unicode="&#xd7;" horiz-adv-x="512" d="M0 72l328 -328l-256 -256h-72v72l55 55l-55 57v400zM0 184v400l55 57l-55 55v400l457 -455zM0 1208v328h72l129 -127zM55 129l457 455v-400l-55 -55l55 -57v-400zM55 1153l256 256l-127 127h328v-328l-55 -55l55 -57v-400zM184 -512l201 201l127 -129v-72h-328z" />
<glyph unicode="&#xd8;" horiz-adv-x="512" d="M0 72l256 256l256 -256v-400l-383 383l-57 -55l440 -440v-72h-328l-184 184v400zM0 184v400l201 -199zM0 -440l72 -72h-72v72zM0 696v400l311 313l-127 127h328v-328l-127 127l-313 -311l440 -440v-400zM0 1208v328h72l129 -127zM184 1024l201 201l127 -129v-400z" />
<glyph unicode="&#xda;" horiz-adv-x="512" d="M0 72l311 313l-311 311v400l512 -512v-400l-311 -313l311 -311v-72h-328l-184 184v400zM0 184v400l201 -199zM0 -440l72 -72h-72v72zM0 1208v328h72l440 -440v-400zM184 1536h328v-328zM311 -129l201 201v-400z" />
<glyph unicode="&#xdf;" horiz-adv-x="1024" d="M0 72l55 57l-55 55v400l457 -455l-256 -258l311 -311l512 512v-144l-440 -440h-400l-184 184v400zM0 -440l72 -72h-72v72zM0 952v144l184 184l-184 184v72h72l256 -256l-256 -256l440 -440l512 512v-400l-127 127l-313 -311l256 -256l-256 -256l129 -129l-201 -199 l-201 199l385 385zM184 1536h400l385 -383l-328 -330l-330 330l129 127zM696 -512l201 201l127 -129v-72h-328zM696 1536h328v-328zM823 641l74 72l127 -129v-144z" />
<glyph unicode="&#xe0;" d="M0 72l952 952l-512 512h144l512 -512l-256 -256l129 -127l-969 -969v400zM0 184v400l55 57l-55 55v400l457 -455zM0 -440l1464 1464l-129 129l385 383h400l-2120 -2120v144zM0 1208v328h72l641 -639l-201 -201zM952 1536h144l57 -55l55 55h400l-328 -328z" />
<glyph unicode="&#xe3;" horiz-adv-x="512" d="M0 72l129 129l199 -201l-127 -129l55 -55l184 184l-311 311l-129 -127v400l512 -512v-400l-127 127l-57 -55l184 -184v-72h-328l-129 127l129 129l-55 55l-129 -127v400zM0 -440l72 -72h-72v72zM0 696v400l184 184l-55 55l-129 -127v328h72l440 -440v-400l-328 328 l127 129l-55 55l-184 -184l440 -440v-400zM184 1536h328v-328z" />
<glyph unicode="&#xe4;" d="M0 -72v144l512 512l201 -199l-328 -330l-129 129zM0 -440l823 825l-311 311l-383 -385l-129 129v144l311 313l-127 127l328 328l201 -199l-129 -129l313 -311l127 127l201 -199l-1225 -1225v144zM0 696v400l311 313l-127 127h400l-512 -512l129 -127zM0 1208v328h72 l129 -127zM567 1409l129 127h400l-127 -127l311 -313l440 440h400l-840 -840l-256 256l-127 -129l-201 201l127 129zM1079 1409l129 127h400l-328 -328z" />
<glyph unicode="&#xe5;" horiz-adv-x="512" d="M0 72l256 -256l256 256v-400l-127 127l-256 -256l-129 129v400zM0 184v400l129 -127l256 256l127 -129v-400l-256 -256zM0 -440l72 -72h-72v72zM0 696v400l256 -256l256 256v-400l-127 127l-256 -256zM0 1208v328h72l57 -55l55 55h328v-328l-256 -256zM184 -512l201 201 l127 -129v-72h-328z" />
<glyph unicode="&#xe6;" d="M0 72l584 -584h-400l-184 184v400zM0 184v400l1096 -1096h-400zM0 -440l72 -72h-72v72zM0 696v400l584 -584l-199 -201zM0 1208v328h72l768 -768l-199 -201zM440 256l457 457l127 -129l184 184l-768 768h144l696 -696l184 184l-129 129l385 383h328v-328l-383 -385 l-129 129l-440 -440l129 -127l-256 -256l639 -641h-400zM952 1536h144l256 -256l-72 -72zM1079 129l969 967v-400l-127 127l-569 -567l696 -696v-72h-328zM1208 1536h400l-199 -201zM1720 256l256 256l-129 129l74 72l127 -129v-144l-184 -184l184 -184v-144z" />
<glyph unicode="&#xe7;" d="M0 -72v144l328 -328l-72 -72zM0 440v144l823 825l-127 127h400l952 -952v-400l-328 328l127 129l-438 438l-129 -127l-256 256l-127 -129l-129 129l-440 -440l129 -127l-129 -129l256 -256l-127 -127l383 -385l-256 -256h-144l256 256zM0 -440l72 -72h-72v72zM0 696v400 l311 313l-127 127h400l129 -127zM0 1208v328h72l129 -127zM440 512l127 129l-127 127l328 328l129 -127l127 127l256 -256l129 129l328 -328l-129 -129l440 -440v-400l-201 199l129 129l-184 184l-55 -55l127 -129l-127 -129l311 -311v-72h-328l-129 127l129 129l-55 55 l-129 -127l-328 328l127 129l-383 383l72 72l385 -383l127 127l129 -127l55 55l-184 184l-127 -129l-330 330l129 127l-184 184l-55 -55l127 -129l-328 -328l-127 127l-57 -55l184 -184l129 129l328 -328l-129 -129l512 -512h-400l127 127l-311 313l-127 -129l-330 330 l129 127zM823 -385l201 201l201 -201l-129 -127h-144zM1208 1536h400l440 -440v-400zM1720 1536h328v-328z" />
<glyph unicode="&#xe8;" d="M0 -72v144l184 184l-184 184v144l328 -328zM0 -440l440 440l-129 129l129 127l-440 440v400l969 -967l-328 -330l-129 129l-440 -440h-72v72zM0 1208v400l2120 -2120h-400zM440 -512l584 584l584 -584h-400l-311 311l-313 -311h-144zM823 -385l74 74l199 -201h-144z" />
<glyph unicode="&#xe9;" horiz-adv-x="512" d="M0 72l512 -512v-72h-328l-184 184v400zM0 184v400l512 -512v-400zM0 -440l72 -72h-72v72zM0 696v400l256 -256l256 256v-400l-256 -256zM0 1208v328h72l184 -184l55 57l-127 127h328v-328l-256 -256zM311 385l201 199v-400z" />
<glyph unicode="&#xeb;" d="M0 72l567 569l-567 567v400l969 -967l-969 -969v400zM0 184v400l184 184l-55 55l-129 -127v400l457 -455zM0 -440l1024 1024l72 -72l-1024 -1024h-72v72zM184 -512l969 969l967 -969h-400l-567 567l-569 -567h-400zM696 -512l457 457l455 -457h-400l127 127l-55 57 l-184 -184h-400z" />
<glyph unicode="&#xee;" horiz-adv-x="512" d="M0 72l201 -201l-201 -199v400zM0 184v400l512 -512v-400l-127 127l-313 -311h-72v72l311 311zM0 696v400l311 313l-127 127h328v-328zM0 1208v328h72l129 -127zM55 641l457 455v-400l-127 127l-57 -55l184 -184v-400zM184 -512l201 201l127 -129v-72h-328z" />
<glyph unicode="&#xf1;" d="M0 72l256 -256l55 55l-311 313v400l584 -584l-455 -457l-129 129v400zM0 -440l72 -72h-72v72zM0 696v400l512 -512l55 57l-256 256l641 639h144l440 -440l55 57l-383 383h400l256 -256l-328 -328l-512 512l-440 -440l256 -256l-455 -457zM0 1208v328h72l184 -184l184 184 h144l-256 -256l129 -127l-201 -201zM184 -512l713 713l199 -201l-512 -512h-400zM440 256l457 457l1151 -1153v-72h-328l-823 823l-256 -256zM696 -512l201 201l199 -201h-400zM952 -256l201 201l455 -457h-400zM952 1024l72 72l1024 -1024v-144zM1591 897l330 328l127 -129 v-400l-55 -55l55 -57v-144zM1720 1536h328v-328z" />
<glyph unicode="&#xf5;" horiz-adv-x="512" d="M0 72l512 512v-400l-127 127l-57 -55l184 -184v-400l-201 199l129 129l-184 184l-55 -55l127 -129l-328 -328v400zM0 184v400l256 256l201 -199zM0 -440l256 256l72 -72l-256 -256h-72v72zM0 696v400l311 313l-127 127h328v-328l-127 127l-57 -55l184 -184v-400l-201 201 l129 127l-184 184l-55 -55l127 -129zM0 1208v328h72l129 -127zM184 -512l201 201l127 -129v-72h-328z" />
<glyph unicode="&#xf7;" horiz-adv-x="512" d="M0 72l328 -328l-256 -256h-72v72l184 184l-55 55l-129 -127v400zM0 184v400l512 -512v-400l-457 457l129 127l-55 55zM0 696v400l512 -512v-400l-201 201l129 127l-55 55l-129 -127l-201 201l129 127l-55 55zM0 1208v328h72l129 -127zM55 1153l256 256l-127 127h328v-328 l-127 127l-57 -55l184 -184v-400zM184 -512l201 201l127 -129v-72h-328z" />
<glyph unicode="&#xf8;" horiz-adv-x="512" d="M0 72l201 -201l-201 -199v400zM0 184v400l512 -512v-400l-127 127l-313 -311h-72v72l311 311zM0 696v400l256 -256l184 184l-55 55l-129 -127l-256 256v328h72l440 -440v-400l-256 -256zM184 -512l201 201l127 -129v-72h-328zM184 1536h328v-328zM311 385l201 199v-400z " />
<glyph unicode="&#xfc;" horiz-adv-x="512" d="M0 72l129 129l199 -201l-328 -328v400zM0 184v400l311 313l-127 127l201 201l127 -129v-400l-127 127l-313 -311l440 -440v-400l-127 127l-313 -311h-72v72l440 440l-311 311zM0 696v400l311 313l-127 127h328v-328l-127 127l-313 -311l129 -127zM0 1208v328h72l129 -127 zM184 512l201 201l127 -129v-400zM184 -512l201 201l127 -129v-72h-328z" />
<glyph unicode="&#x131;" d="M0 -72v144l72 -72zM0 440v144l129 129l512 -512l1206 1208l-127 127h328v-328l-127 127l-1208 -1206l127 -129l-199 -201zM0 -440l256 256l72 -72l-256 -256h-72v72zM0 696v400l311 313l-127 127h400l129 -127zM0 1208v328h72l129 -127zM184 768l639 641l-127 127h400 l-768 -768l57 -55l823 823h400l129 -127l-1096 -1098zM440 -512l512 512l-129 129l1098 1096l127 -129v-400l-55 -55l55 -57v-400l-256 256l-895 -897l-129 129l-184 -184h-144zM952 -512l840 840l256 -256v-400l-127 127l-313 -311h-400l639 641l-55 55l-696 -696h-144z M1720 -512l201 201l127 -129v-72h-328z" />
<glyph unicode="&#x152;" d="M0 72l696 696l-440 440l-55 -55l127 -129l-328 -328v400l440 440h144l-256 -256l641 -639l-969 -969v400zM0 184v400l385 385l199 -201zM0 -440l1024 1024l768 -768l256 256v-144l-440 -440h-400l328 328l129 -127l55 55l-696 696l-952 -952h-72v72zM0 1208v328h72 l129 -127zM184 -512l840 840l201 -199l-641 -641h-400zM696 -512l584 584l201 -201l-385 -383h-400zM696 1280l256 256h144l-256 -256l440 -440l567 569l-127 127h328v-328l-127 127l-569 -567l440 -440l256 256v-144l-256 -256zM1079 1409l129 127h400l129 -127l-328 -330z M1591 897l330 328l127 -129v-400l-127 -129zM1720 -512l201 201l127 -129v-72h-328z" />
<glyph unicode="&#x153;" d="M0 -72v144l256 -256l440 440l-55 55l-129 -127l-512 512v400l969 -967l-328 -330l-129 129l-184 -184l256 -256h-144zM0 440v144l457 -455l-72 -74zM0 -440l72 -72h-72v72zM0 1208v328h72l952 -952l696 696l-55 55l-129 -127l-328 328h400l440 -440v-400l-201 201 l129 127l-55 55l-897 -895l-201 201l129 127l-55 55l-129 -127zM184 1536h400l641 -639l-201 -201zM696 -256l1096 1096l256 -256v-400l-383 383l-57 -55l440 -440v-400l-639 639l-57 -55l696 -696v-72h-328l-567 567l-313 -311l256 -256h-144zM696 1536h400l385 -383 l-201 -201zM952 -256l201 201l455 -457h-400zM1720 1536h328v-328z" />
<glyph unicode="&#x192;" d="M0 -72v144l184 184l-184 184v144l457 -455l-72 -74l-129 129l-184 -184l256 -256l-72 -72zM0 -440l72 -72h-72v72zM0 696v400l55 57l-55 55v328h72l184 -184l55 57l-127 127h400l-256 -256l385 -383l-201 -201l-383 383l-57 -55l129 -127zM55 641l201 199l256 -256 l311 313l-383 383l201 201l383 -385l256 256l72 -72l-256 -256l256 -256l-72 -72l-256 256l-184 -184l57 -55l127 127l201 -199l-129 -129l184 -184l55 57l-127 127l201 201l127 -129l184 184l-55 55l-129 -127l-328 328l201 201l639 -641v-400l-328 328l127 129l-55 55 l-184 -184l129 -127l-201 -201l-127 127l-57 -55l184 -184l129 129l199 -201l-328 -328l-201 199l129 129l-184 184l-55 -55l127 -129l-199 -201l-129 129l-184 -184l57 -55l127 127l201 -201l-129 -127h-144l-184 184l-184 -184h-144l256 256l-256 256l201 201l199 -201 l-127 -129l55 -55l184 184l-129 129l201 199l129 -127l55 55l-184 184l-127 -129l-201 201l127 129l-55 55l-184 -184l256 -256l-72 -72l-127 127l-129 -127zM696 1536h400l129 -127l-201 -201zM1208 -256l72 72l256 -256l440 440l-256 256l72 72l256 -256v-400l-127 127 l-313 -311h-400l127 127zM1208 1536h400l440 -440v-400zM1720 -512l201 201l127 -129v-72h-328zM1720 1536h328v-328z" />
<glyph unicode="&#x2c6;" horiz-adv-x="512" d="M0 72l184 184l-55 55l-129 -127v400l457 -455l-457 -457v400zM0 -440l512 512v-400l-127 127l-313 -311h-72v72zM0 696v400l311 313l-127 127h328v-328l-311 -311l311 -313v-400zM0 1208v328h72l129 -127zM184 -512l201 201l127 -129v-72h-328zM311 897l201 199v-400z " />
<glyph unicode="&#x2c7;" horiz-adv-x="1024" d="M0 72l584 -584h-400l-184 184v400zM0 184v400l1024 -1024v-72h-328zM0 -440l72 -72h-72v72zM0 952v144l184 184l-129 129l129 127h400zM0 1464v72h72zM184 768l256 256l-129 129l385 383h328v-328l-385 -385l-127 129l-256 -256zM440 512l72 72l512 -512v-144zM696 768 l328 328v-400l-55 -55l55 -57v-144z" />
<glyph unicode="&#x2d8;" horiz-adv-x="512" d="M0 72l311 313l-311 311v400l311 313l-127 127h328v-328l-311 -311l311 -313v-400l-512 -512v400zM0 184v400l201 -199zM0 -440l512 512v-400l-127 127l-313 -311h-72v72zM0 1208v328h72l129 -127zM184 -512l201 201l127 -129v-72h-328zM311 897l201 199v-400z" />
<glyph unicode="&#x2d9;" horiz-adv-x="1024" d="M0 72l584 -584h-400l-184 184v400zM0 184v400l1024 -1024v-72h-328zM0 -440l72 -72h-72v72zM0 696v400l440 440h144l-512 -512l440 -440l256 256l256 -256v-400l-256 256l-256 -256zM0 1208v328h72l129 -127zM184 1024l201 201l127 -129l440 440h72v-72l-440 -440 l129 -127l-201 -201zM567 129l201 199l256 -256v-400zM952 1024l72 72v-144z" />
<glyph unicode="&#x2da;" d="M0 -72v144l1335 1337l-127 127h400l-127 -127l383 -385l-127 -127l311 -313v-400l-895 895zM0 440v144l311 313l-127 127l201 201l328 -328l-584 -586zM0 -440l440 440l-129 129l201 199l328 -328l-199 -201l-129 129l-440 -440h-72v72zM0 696v400l311 313l-127 127h400 l-512 -512l129 -127zM0 1208v328h72l129 -127zM440 -512l1024 1024l-55 55l-512 -512l-330 330l586 584l895 -897v-400l-512 512l-639 -641l-129 129l-184 -184h-144zM440 1280l256 256h400l129 -127l-457 -457zM952 -512l584 584l512 -512v-72h-328l127 127l-311 313 l-440 -440h-144zM1208 -512l328 328l201 -201l-129 -127h-400zM1591 1409l129 127h328v-328l-55 -55l55 -57v-400l-201 201l129 127z" />
<glyph unicode="&#x2db;" d="M0 -72v144l184 184l-184 184v146l512 528l258 -272l53 55l-256 256l256 256l-127 127h400l184 -184l55 57l-127 127h400l-768 -770zM0 -440l72 -72h-72v72zM0 696v400l184 184l-55 55l-129 -127v328h72l385 -383zM184 -256l256 256l-129 129l1354 1352l127 -129l55 57 l-127 127h328v-328l-127 127l-57 -55l184 -184v-400l-1151 -1153l-129 129l-184 -184h-144zM184 1536h400l129 -127l-201 -201zM324 772l188 -188l55 57l-188 188zM328 -256l184 -184l184 184l-184 184zM840 256l184 -184l55 57l-182 182zM840 1280l184 -184l55 57l-182 182 zM952 -512l584 584l512 -512v-72h-328l-55 55l-57 -55h-400l-55 55l-57 -55h-144zM1096 512l184 -184l55 57l-182 182zM1352 -256l184 -184l55 55l-182 184zM1352 768l184 -184l55 57l-182 182zM1591 129l457 455v-400l-127 127l-57 -55l184 -184v-400zM1608 1024l184 -184 l55 57l-182 182z" />
<glyph unicode="&#x2dc;" d="M0 -72v144l184 184l-184 184v144l457 -455l-72 -74l-129 129zM0 -440l72 -72h-72v72zM0 696v400l1096 -1096l-199 -201zM0 1208v328h72l952 -952l256 256l201 -199l-457 -457zM184 -256l328 328l385 -383l311 311l-129 129l457 455l512 -512v-400l-512 512l-55 -55 l127 -129l-512 -512h-144l-440 440l-184 -184l256 -256h-144zM184 1536h400l385 -383l-201 -201zM696 1536h400l129 -127l-201 -201zM823 897l512 512l-127 127h400l129 -127l-713 -713zM1208 -512l457 457l383 -385v-72h-328l127 127l-55 57l-184 -184h-400zM1335 897 l457 455l256 -256v-400l-256 256l-55 -55l311 -313v-400zM1720 1536h328v-328z" />
<glyph unicode="&#x2dd;" d="M0 -72v144l184 184l-129 129l512 512l-256 256l385 383h400l-512 -512l256 -256zM0 -440l440 440l-129 129l586 584l127 -129l55 57l-383 383l512 512h400l-383 -383l440 -440l383 383v-400l-512 -512l-383 383l-57 -55l129 -127l-584 -586l-129 129l-440 -440h-72v72z M0 440v144l385 385l72 -72zM0 696v400l311 313l-127 127h400l-383 -383l127 -129zM0 1208v328h72l129 -127zM440 -512l840 840l256 -256l512 512v-400l-383 -385l-385 385l-696 -696h-144zM823 -385l457 457l201 -201l-385 -383h-144zM1208 -512l328 328l129 -127l383 383 v-400l-127 127l-313 -311h-400zM1335 1153l385 383h328v-328l-383 -385zM1720 -512l201 201l127 -129v-72h-328z" />
<glyph unicode="&#x3a9;" d="M0 -72v144l184 184l-129 129l201 199l328 -328l-199 -201l-129 129zM0 -440l696 696l-440 440l-256 -256v144l184 184l-55 55l-129 -127v400l311 313l-127 127h400l129 -127l-201 -201l-127 127l-57 -55l129 -127l-201 -201l-127 127l-57 -55l184 -184l512 512l72 -72 l-512 -512l184 -184l55 57l-127 127l201 201l328 -328l-201 -201l-127 127l-57 -55l440 -440l55 57l-127 127l201 201l328 -328l-201 -201l-127 127l-57 -55l184 -184l512 512l72 -72l-512 -512l184 -184l55 55l-127 129l201 201l127 -129l55 55l-127 129l201 201l127 -129 v-400l-127 127l-313 -311h-400l127 127l-55 57l-184 -184h-144l256 256l-440 440l-696 -696h-72v72zM0 1208v328h72l129 -127zM440 -512l256 256l-129 127l201 201l328 -328l-199 -201l-129 129l-184 -184h-144zM696 1024l201 201l127 -129l311 313l-127 127h400l440 -440 v-400l-127 127l-313 -311l129 -127l-201 -201l-328 328l201 201l127 -129l311 313l-182 182l-57 -55l129 -127l-201 -201l-127 127l-512 -512l-74 74l512 512l-127 127l201 201l127 -129l55 57l-182 182l-313 -311l129 -127l-201 -201zM696 1536h400l129 -127l-201 -201z M1720 512l201 201l127 -129v-400zM1720 -512l201 201l127 -129v-72h-328zM1720 1536h328v-328z" />
<glyph unicode="&#x3c0;" d="M0 72l311 313l-256 256l129 127l-55 55l-129 -127v400l256 -256l129 129l328 -328l-385 -385l129 -127l-457 -457v400zM0 184v400l201 -199zM0 -440l567 569l-127 127l328 328l328 -328l-127 -127l55 -57l129 129l328 -330l-129 -127l256 -256h-400l127 127l-55 57 l-127 -129l-330 328l129 129l-55 55l-129 -127l-127 127l-569 -567h-72v72zM0 1208v328h72l385 -383l-201 -201zM184 -512l457 457l455 -457h-400l127 127l-55 57l-184 -184h-400zM440 1024l72 72l1536 -1536v-72h-328l-256 256l127 127zM440 1536h144l696 -696l184 184 l-129 129l330 328l127 -129l55 57l-127 127h328v-328l-127 127l-57 -55l129 -127l-328 -330l-129 129l-184 -184l696 -696v-144zM952 1536h144l184 -184l55 57l-127 127h400l-328 -328zM1720 768l328 328v-400l-127 127l-57 -55l184 -184v-144z" />
<glyph unicode="&#x2000;" horiz-adv-x="1024" />
<glyph unicode="&#x2001;" />
<glyph unicode="&#x2002;" horiz-adv-x="1024" />
<glyph unicode="&#x2003;" />
<glyph unicode="&#x2013;" horiz-adv-x="512" d="M0 72l201 -201l-201 -199v400zM0 184v400l55 57l-55 55v400l311 313l-127 127h328v-328l-127 127l-313 -311l385 -383zM0 -440l311 311l-256 258l457 455v-400l-55 -55l55 -57v-400l-127 127l-313 -311h-72v72zM0 1208v328h72l129 -127zM184 -512l201 201l127 -129v-72 h-328zM184 1024l201 201l127 -129v-400z" />
<glyph unicode="&#x2014;" horiz-adv-x="512" d="M0 72l55 57l-55 55v400l457 -455l-256 -258l311 -311v-72h-328l-184 184v400zM0 -440l72 -72h-72v72zM0 696v400l201 -199zM0 1208v328h72l440 -440v-400l-55 -55l55 -57v-400l-457 457l256 256zM184 1536h328v-328zM311 -129l201 201v-400z" />
<glyph unicode="&#x2018;" d="M0 -72v144l72 -72zM0 -440l440 440l-440 440v144l512 -512l512 512l1024 -1024v-72h-328l-823 823l-313 -311l512 -512h-144l-440 440l-440 -440h-72v72zM0 696v400l713 -711l-201 -201zM0 1208v328h72l897 -895l-201 -201zM184 1536h400l696 -696l311 313l-383 383h400 l184 -184l55 57l-127 127h328v-328l-127 127l-57 -55l184 -184v-400l-383 383l-313 -311l696 -696v-400zM440 -512l72 72l72 -72h-144zM696 0l201 201l711 -713h-400zM696 1536h400l385 -383l-201 -201zM1464 768l201 201l383 -385v-400z" />
<glyph unicode="&#x2019;" d="M0 72l567 569l-567 567v328h72l696 -696l440 440l-129 129l129 127h400l-768 -768l129 -127l-969 -969v400zM0 184v400l55 57l-55 55v400l457 -455zM0 -440l1024 1024l1024 -1024v-72h-328l127 127l-823 825l-952 -952h-72v72zM184 -512l840 840l713 -713l-129 -127h-400 l-311 311l-313 -311h-400zM440 1536h144l184 -184l184 184h144l-328 -328zM696 -512l201 201l199 -201h-400zM1208 768l256 256l-129 129l385 383h328v-328l-383 -385l-129 129l-256 -256zM1464 512l584 584v-400l-127 -129l-129 129l-184 -184l440 -440v-144z" />
<glyph unicode="&#x201a;" horiz-adv-x="1024" d="M0 72l55 57l-55 55v400l457 -455l-457 -457v400zM0 -440l512 512l328 -328l-256 -256h-400l-55 55l-57 -55h-72v72zM0 696v400l1024 -1024v-400zM0 1208v328h72l129 -127zM55 1153l385 383h144l-256 -256l184 -184l440 440h72v-72l-440 -440l129 -127l-201 -201zM567 641 l457 455v-144l-184 -184l184 -184v-400zM696 -512l201 201l127 -129v-72h-328z" />
<glyph unicode="&#x201c;" d="M0 -72v144l512 512l201 -199l-256 -256l55 -57l311 313l-768 768l201 199l1792 -1792v-72h-328l-696 696l-311 -313l55 -55l256 256l201 -201l-328 -328l-129 129l-184 -184h-144l256 256l-184 184l-440 -440h-72v72l440 440l-184 184zM0 440v144l201 -199l-72 -74z M0 696v400l457 -455l-201 -201zM0 1208v328h72l129 -127zM184 1536h400l256 -256l-199 -201zM696 1024l512 512h400l-256 -256l57 -55l311 311h328v-328l-127 127l-313 -311l57 -55l256 256l127 -129v-400l-127 127l-512 -512l-201 201l256 256l-55 55l-256 -256l-201 201 l256 256l-55 55l-256 -256zM696 1536h400l-199 -201zM952 -512l72 72l72 -72h-144zM1079 -385l201 201l328 -328h-400zM1464 256l201 201l383 -385v-400zM1720 512l201 201l127 -129v-400z" />
<glyph unicode="&#x201d;" d="M0 72l55 57l-55 55v400l512 512l256 -256l256 256l72 -72l-455 -457l-129 129l-55 -55l127 -129l-256 -256l129 -127l-457 -457v400zM0 -440l72 -72h-72v72zM0 696v400l440 440h144l256 -256l-72 -72l-256 256l-184 -184l129 -127zM0 1208v328h72l129 -127zM55 -385 l457 457l129 -127l256 256l455 -457l-256 -256h-400l256 256l-55 55l-256 -256l-129 129l-55 -57l127 -127h-400zM440 256l457 457l639 -641l256 256l256 -256v-144l-256 256l-184 -184l440 -440v-72h-328l-823 823l-256 -256zM952 1536h144l184 -184l55 57l-127 127h400 l184 -184l55 57l-127 127h328v-328l-256 -256l-383 383l-57 -55l256 -256l-256 -256l184 -184l256 256l256 -256v-144l-256 256l-256 -256l-328 328l256 256zM1208 -512l201 201l199 -201h-400zM1847 897l201 199v-400z" />
<glyph unicode="&#x201e;" d="M0 -72v144l512 -512l385 385l328 -330l-129 -127h-144l-184 184l-184 -184h-144zM0 440v144l129 129l639 -641l55 57l-694 694l-129 -127v400l129 129l1352 -1354l-201 -199l-383 383l-256 -256zM0 -440l72 -72h-72v72zM0 1208v328h72l440 -440l256 256l713 -711 l-201 -201l-639 639l-129 -127l-383 383zM184 1536h400l129 -127l-201 -201zM567 897l74 72l199 -201l-72 -72zM696 1536h400l57 -55l55 55h400l57 -55l55 55h328v-328l-127 -129l-385 385l-256 -256l-256 256l-127 -129zM823 641l74 72l383 -385l256 256l256 -256l256 256 v-400l-127 127l-256 -256l-256 256l-129 -127zM952 1280l72 72l201 -199l-72 -74zM1208 -512l328 328l201 -201l-129 -127h-400zM1208 1024l328 328l328 -328l-328 -328zM1335 129l74 72l199 -201l-72 -72zM1591 -129l330 330l127 -129v-400l-127 127l-129 -127zM1591 641 l74 72l199 -201l-72 -72zM1720 -512l201 201l127 -129v-72h-328zM1720 768l328 328v-400l-127 -129z" />
<glyph unicode="&#x2020;" horiz-adv-x="1024" d="M0 72l768 768l201 -199l-768 -770l383 -383h-400l-184 184v400zM0 184v400l55 57l-55 55v400l457 -455zM0 -440l72 -72h-72v72zM0 1208v328h72l641 -639l-201 -201zM311 -129l713 713v-400l-311 -313l311 -311v-72h-328zM440 1536h144l440 -440v-144zM823 -129l201 201 v-400zM952 1536h72v-72z" />
<glyph unicode="&#x2021;" d="M0 -72v144l256 256l201 -199l-72 -74l-129 129zM0 440v144l55 57l-55 55v400l768 -768l55 57l-127 127l201 201l199 -201l-584 -584l-72 72l256 256l-55 55l-129 -127l-383 383l-57 -55l129 -127l-72 -74zM0 -440l72 -72h-72v72zM0 1208v328h72l129 -127zM55 1153 l201 199l256 -256l55 57l-383 383h400l184 -184l55 57l-127 127h400l256 -256l-199 -201l-256 256l-57 -55l440 -440l55 57l-127 127l201 201l127 -129l55 57l-383 383h400l440 -440v-400l-383 383l-512 -512l-201 201l127 129l-55 55l-127 -129l-256 256l-57 -55l256 -256 l-199 -201zM184 -256l72 72l328 -328h-144zM567 -129l1098 1098l328 -328l-1096 -1098zM952 -512l584 584l201 -201l-201 -199l-127 127l-313 -311h-144zM1208 -512l201 201l127 -129l512 512v-400l-127 127l-57 -55l184 -184v-72h-328l127 127l-55 57l-184 -184h-400z M1591 129l457 455v-400l-127 127l-57 -55l129 -127l-201 -201zM1720 1536h328v-328z" />
<glyph unicode="&#x2022;" horiz-adv-x="1024" d="M0 72l256 256l256 -256l512 512v-144l-440 -440l129 -129l-201 -199l-328 328l127 129l-55 55l-184 -184l129 -129l-201 -199v400zM0 184v400l440 440l-129 129l74 72l383 -385l256 256v-400l-127 127l-57 -55l129 -127l-72 -74l-385 385l-440 -440l129 -127zM0 -440 l256 256l72 -72l-256 -256h-72v72zM0 952v144l184 184l-129 129l74 72l127 -129l55 57l-127 127h400zM0 1464v72h72zM184 -512l201 201l127 -129l512 512v-144l-440 -440h-400zM440 1280l256 256h328v-328l-256 -256zM696 -512l201 201l127 -129v-72h-328z" />
<glyph unicode="&#x2026;" horiz-adv-x="1024" d="M0 72l952 952l-440 440l-184 -184l129 -127l-457 -457v400l440 440h144l440 -440v-144l-184 -184l129 -127l-969 -969v400zM0 184v400l512 512l201 -199zM0 -440l1024 1024v-400l-127 127l-313 -311l440 -440v-72h-328l-311 311l-313 -311h-72v72zM0 1208v328h72 l129 -127zM184 -512l201 201l199 -201h-400zM696 0l201 201l127 -129v-400zM952 1536h72v-72z" />
<glyph unicode="&#x2030;" horiz-adv-x="1024" d="M0 72l696 696l-440 440l-256 -256v144l256 256l256 -256l55 57l-383 383h400l440 -440v-400l-383 383l-57 -55l256 -256l-512 -512l129 -127l-457 -457v400zM0 184v400l256 256l72 -72l-256 -256l129 -127zM0 -440l256 256l328 -328h-400l-55 55l-57 -55h-72v72zM0 1464 v72h72l129 -127l-72 -74zM311 -129l201 201l512 -512v-72h-328zM696 256l256 256l-129 129l74 72l127 -129v-144l-184 -184l184 -184v-144zM696 1536h328v-328z" />
<glyph unicode="&#x2039;" d="M0 -72v144l328 -328l-256 -256h-72v72l184 184zM0 440v144l897 -895l895 895l72 -72l-127 -127l311 -313v-400l-201 199l129 129l-184 184l-696 -696h-144zM0 696v400l55 57l-55 55v328h72l256 -256l-256 -256l184 -184l129 129l72 -72l-328 -330zM184 512l383 385 l-182 182l-129 -127l-72 72l256 256l-256 256h400l256 -256l-256 -256l184 -184l129 129l72 -72l-385 -385l313 -311l694 696l-182 182l-129 -127l-72 72l256 256l-256 256h400l385 -383l-256 -256l311 -313v-400l-201 201l129 127l-184 184l-895 -897zM440 -512l72 72 l72 -72h-144zM696 512l383 385l-182 182l-129 -127l-72 72l256 256l-256 256h400l256 -256l-256 -256l184 -184l129 129l72 -72l-584 -586zM1208 -512l584 584l72 -72l-127 -129l127 -127l-256 -256h-400zM1720 -512l201 201l127 -129v-72h-328zM1720 1536h328v-328z M1847 897l201 199v-400z" />
<glyph unicode="&#x203a;" d="M0 72l256 256l256 -256l256 256l256 -256l440 440l-696 696l-184 -184l129 -127l-201 -201l-256 256l-256 -256v400l256 256l256 -256l440 440h144l-256 -256l768 -768l-711 -713l-129 129l-256 -256l-256 256l-256 -256v400zM0 184v400l256 256l256 -256l256 256 l457 -455l-201 -201l-256 256l-256 -256l-256 256zM0 -440l256 256l256 -256l256 256l72 -72l-256 -256h-400l-55 55l-57 -55h-72v72zM0 1208v328h72l129 -127zM440 1536h144l-72 -72zM696 -512l713 713l127 -129l440 440l-897 897l129 127h400l-256 -256l696 -696v-144 l-952 -952h-400zM1208 -512l457 457l383 -385v-72h-328l-55 55l-57 -55h-400zM1464 1280l201 201l383 -385v-400zM1720 1536h328v-328zM1976 0l72 72v-144z" />
<glyph unicode="&#x2044;" horiz-adv-x="512" d="M0 72l256 256l256 -256v-400l-256 256l-256 -256v400zM0 184v400l201 -199zM0 -440l256 256l256 -256v-72h-328l-55 55l-57 -55h-72v72zM0 696v400l256 -256l256 256v-400l-256 -256zM0 1208v328h72l184 -184l55 57l-127 127h328v-328l-256 -256zM311 385l201 199v-400z " />
<glyph unicode="&#x20ac;" d="M0 72l440 440l-311 311l-129 -127v400l129 129l512 -512l55 55l-129 129l74 72l383 -385l440 440l-129 129l330 328l383 -385v-400l-201 201l129 127l-55 55l-256 -256l-129 129l-440 -440l129 -127l-72 -74l-385 385l-311 -311l127 -129l-584 -584v400zM0 184v400 l129 129l199 -201zM0 -440l696 696l-129 129l201 199l385 -383l639 639l201 -199l-72 -74l-129 129l-440 -440l129 -127l-72 -74l-129 129l-55 -55l127 -129l-199 -201l-385 385l-696 -696h-72v72zM0 1208v328h72l129 -127zM184 -512l584 584l385 -383l895 895v-144 l-952 -952h-400l127 127l-55 57l-184 -184h-400zM184 1280l256 256h144l-256 -256l184 -184l256 256l256 -256l184 184l-129 129l74 72l127 -129l55 57l-127 127h400l-584 -584l-256 256l-256 -256zM952 1536h144l-72 -72zM1208 -512l328 328l129 -127l55 55l-129 127l74 74 l127 -129l256 256v-144l-440 -440h-400zM1720 -512l201 201l127 -129v-72h-328zM1720 1536h328v-328z" />
<glyph unicode="&#x2122;" d="M0 -72v144l72 -72zM0 -440l440 440l-440 440v144l584 -584l-512 -512h-72v72zM0 696v400l512 -512l311 313l-55 55l-256 -256l-328 328l201 201l127 -129l311 313l-127 127h400l952 -952v-400l-383 383l-313 -311l129 -127l-201 -201l-328 328l256 256l-55 55l-313 -311 l440 -440l311 313l-127 127l201 201l328 -328l-201 -201l-127 127l-313 -311l184 -184l55 55l-127 129l201 201l127 -129l256 256v-400l-127 127l-313 -311h-400l-641 641l713 711l201 -199l-256 -256l55 -57l311 313l-311 311l-768 -768l-72 72l768 768l-311 311l-313 -311 l57 -55l256 256l199 -201l-711 -713zM0 1208v328h72l129 -127zM55 1153l256 256l-127 127h400l129 -127l-201 -201l-127 127l-256 -256zM440 -512l328 328l328 -328h-144l-184 184l-184 -184h-144zM1208 1536h400l440 -440v-400zM1720 -512l201 201l127 -129v-72h-328z M1720 1536h328v-328z" />
<glyph unicode="&#x2202;" d="M0 -72v144l440 440l-311 311l-129 -127v400l129 129l512 -512l383 383l840 -840l-768 -768h-144l-129 127l457 457l129 -127l311 311l-696 696l-311 -311l127 -129l-455 -457l-129 129zM0 -440l952 952l-129 129l201 199l584 -584l-199 -201l-129 129l-696 -696h-144 l256 256l-184 184l-440 -440h-72v72zM0 440v144l129 129l199 -201l-199 -201zM0 1208v328h72l313 -311l311 311h400l129 -127l-584 -586l-512 512zM184 1536h400l-199 -201zM1079 1153l256 256l-127 127h400l440 -440v-400l-639 639l-57 -55l696 -696v-400zM1208 -512 l713 713l127 -129v-400l-127 127l-313 -311h-400zM1720 -512l201 201l127 -129v-72h-328zM1720 1536h328v-328z" />
<glyph unicode="&#x2206;" d="M0 72l256 -256l567 569l-127 127l201 201l127 -129l440 440l-129 129l385 383h328v-328l-383 -385l-129 129l-440 -440l129 -127l-201 -201l-127 127l-569 -567l256 -256h-400l-184 184v400zM0 184v400l457 -455l-201 -201zM0 -440l72 -72h-72v72zM0 696v400l512 -512 l440 440l-512 512h144l512 -512l-512 -512l129 -127l-201 -201zM0 1208v328h72l641 -639l-201 -201zM440 -256l201 201l455 -457h-400zM696 0l201 201l127 -129l512 512l512 -512v-144l-512 512l-440 -440l512 -512h-400zM952 1536h144l57 -55l55 55h400l-328 -328zM1208 0 l201 201l639 -641v-72h-328zM1720 768l328 328v-400l-55 -55l55 -57v-144z" />
<glyph unicode="&#x220f;" d="M0 -72v144l567 569l-127 127l127 129l-311 311l-127 -129l-129 129v328h72l768 -768zM0 -440l440 440l-129 129l586 584l127 -129l55 57l-127 127l201 201l328 -328l-201 -201l-127 127l-57 -55l129 -127l-584 -586l-129 129l-440 -440h-72v72zM0 440v144l55 57l-55 55 v400l129 -127l127 127l201 -199l-129 -129l129 -127l-328 -330zM184 1536h400l440 -440l55 57l-127 127l201 201l127 -129l55 57l-127 127h400l-711 -713l-201 201l127 129l-55 55l-127 -129l-201 201l127 129l-55 55l-127 -129zM440 -512l1608 1608v-400l-127 127l-57 -55 l129 -127l-201 -201l-127 127l-57 -55l129 -127l-201 -201l-127 127l-57 -55l696 -696v-72h-328l-129 127l129 129l-311 311l-129 -127l-127 127l-569 -567h-144zM696 1536h400l-199 -201zM823 -385l330 330l127 -129l129 129l199 -201l-127 -129l127 -127h-400l-55 55 l-57 -55h-144zM1208 1024l201 201l127 -129l55 57l-127 127l201 201l127 -129l55 57l-127 127h328v-328l-127 127l-57 -55l129 -127l-201 -201l-127 127l-57 -55l129 -127l-201 -201zM1591 129l457 455v-400l-127 127l-57 -55l184 -184v-400l-201 199l129 129l-55 55 l-129 -127z" />
<glyph unicode="&#x2211;" d="M0 72l201 -201l-201 -199v400zM0 184v400l55 57l-55 55v400l440 440h144l-512 -512l385 -383zM0 -440l72 -72h-72v72zM0 1208v328h72l129 -127zM55 129l512 512l-383 383l201 201l127 -129l440 440h144l-512 -512l184 -184l567 569l-127 127h400l129 -127l-201 -201 l-127 127l-569 -567l129 -127l-512 -512l127 -129l-199 -201zM55 -385l201 201l328 -328h-400zM440 -256l256 256l-129 129l713 711l72 -72l-256 -256l129 -127l-256 -256l127 -129l-256 -256l256 -256h-400zM952 -256l201 201l455 -457h-400zM1079 129l641 639l-256 256 l383 385l-127 127h328v-328l-127 127l-313 -311l256 -256l-512 -512l256 -256l-199 -201zM1464 -256l201 201l127 -129l184 184l-256 256l328 328v-144l-184 -184l184 -184v-144l-184 -184l184 -184v-72h-328zM1720 1024l201 201l127 -129v-400z" />
<glyph unicode="&#x221a;" d="M0 -72v144l512 -512l440 440l-129 129l713 711l328 -328l-584 -584l-256 256l-55 -55l311 -313l385 385l199 -201l-127 -129l311 -311v-72h-328l127 127l-311 313l-440 -440h-144l-129 127l201 201l129 -127l55 55l-184 184l-440 -440h-144zM0 440v144l328 -328l-72 -72z M0 -440l72 -72h-72v72zM0 696v400l512 -512l823 825l-127 127h400l256 -256l-72 -72l-256 256l-440 -440l184 -184l55 57l-127 127l328 328l201 -199l-129 -129l440 -440v-400l-201 201l129 127l-440 440l-823 -823l127 -129l-199 -201l-330 330l713 711l129 -127l55 55 l-184 184l-639 -641zM0 1208v328h72l440 -440l256 256l201 -199l-72 -74l-129 129l-55 -55l127 -129l-328 -328zM184 1536h400l129 -127l-201 -201zM696 1536h400l129 -127l-201 -201zM1208 -512l328 328l201 -201l-129 -127h-400zM1720 256l72 72l256 -256v-400l-201 199 l129 129zM1720 1024l201 201l127 -129v-400zM1720 1536h328v-328z" />
<glyph unicode="&#x221e;" d="M0 72l512 512l201 -199l-713 -713v400zM0 184v400l311 313l-256 256l385 383h144l-256 -256l440 -440l440 440l-129 129l129 127h400l-768 -768l440 -440l768 768v-400l-127 -129l-129 129l-440 -440l440 -440l256 256v-144l-383 -385l-256 256l-313 -311h-400l512 512 l-311 311l-825 -823h-72v72l823 825l-311 311zM0 696v400l201 -199zM0 1208v328h72l129 -127zM184 -512l713 713l199 -201l-512 -512h-400zM696 1280l256 256h144l-328 -328zM1208 -512l201 201l199 -201h-400zM1208 768l256 256l-129 129l385 383h328v-328l-383 -385 l-129 129l-256 -256zM1720 256l328 328v-144l-256 -256zM1720 -512l201 201l127 -129v-72h-328z" />
<glyph unicode="&#x222b;" d="M0 72l584 -584h-400l-184 184v400zM0 184v400l311 313l-127 127l201 201l1663 -1665v-72h-328l-1335 1335l-313 -311l129 -127zM0 -440l72 -72h-72v72zM0 696v400l201 -199zM0 1208v328h72l256 -256l-199 -201zM55 129l256 256l-127 127l201 201l1223 -1225h-400 l-823 823l-57 -55l768 -768h-400zM440 1536h144l1208 -1208l184 184l-129 129l74 72l127 -129v-144l-256 -256zM952 1536h144l696 -696l55 57l-639 639h400l440 -440v-400l-127 127l-129 -127zM1720 1536h328v-328zM1976 0l72 72v-144z" />
<glyph unicode="&#x2248;" d="M0 72l256 -256l55 55l-311 313v400l584 -584l-512 -512h-72v72l184 184l-55 55l-129 -127v400zM0 696v400l256 256l1792 -1792v-72h-328l-567 567l-57 -55l512 -512h-400l-311 311l-57 -55l256 -256h-400l-55 55l-57 -55h-400l895 897l-55 55l-383 -385zM0 1208v328h72 l129 -127zM72 1024l696 -696l55 57l-694 694zM440 1536h144l698 -696l197 184l-527 510v2h146l528 -512l-272 -258l182 -182l256 256l256 -256v-144l-256 256l-184 -184l440 -440v-144l-770 768zM1208 1536h400l184 -184l55 57l-127 127h328v-328l-127 127l-256 -256z M1720 1024l201 201l127 -129v-400z" />
<glyph unicode="&#x2260;" horiz-adv-x="512" d="M0 72l55 57l-55 55v400l512 -512v-400l-256 256l-256 -256v400zM0 -440l256 256l256 -256v-72h-328l-55 55l-57 -55h-72v72zM0 696v400l256 -256l256 256v-400l-55 -55l55 -57v-400zM0 1208v328h72l184 -184l55 57l-127 127h328v-328l-256 -256z" />
<glyph unicode="&#x2264;" horiz-adv-x="512" d="M0 72l201 -201l-201 -199v400zM0 184v400l440 440l-256 256l127 129l-127 127h328v-328l-55 -55l55 -57v-400l-311 -311l127 -129l-201 -201zM0 -440l72 -72h-72v72zM0 696v400l127 129l201 -201zM0 1208v328h72l129 -127zM55 -385l256 256l-127 129l199 201l129 -129 v-400l-55 -57l55 -55v-72h-328zM311 385l201 199v-400z" />
<glyph unicode="&#x2265;" horiz-adv-x="512" d="M0 72l440 440l-256 256l72 72l256 -256v-400l-127 127l-313 -311l256 -256l-256 -256h-72v72l55 55l-55 57v400zM0 184v400l129 129l199 -201zM0 696v400l184 184l-55 55l-129 -127v328h72l256 -256l-256 -256l129 -127zM184 0l201 201l127 -129v-400zM184 -512l201 201 l127 -129v-72h-328zM184 1024l201 201l127 -129v-400zM184 1536h328v-328z" />
<glyph unicode="&#x25ca;" d="M0 72l129 129l199 -201l-328 -328v400zM0 184v400l129 129l199 -201zM0 -440l440 440l-256 256l201 201l328 -328l-641 -641h-72v72zM0 696v400l256 256l72 -72l-256 -256l440 -440l184 184l-55 55l-129 -127l-328 328l201 201l127 -129l440 440h144l-512 -512 l1153 -1153l-201 -199l-840 840l127 129l-55 55l-184 -184l512 -512l-512 -512h-400l639 641l-694 694zM0 1208v328h72l129 -127zM440 1536h144l-72 -72zM696 -512l457 457l199 -201l-256 -256h-400zM952 1024l72 72l512 -512l184 184l-385 385l385 383h328v-328l-127 127 l-313 -311l440 -440v-144l-256 256l-184 -184l440 -440v-144l-440 -440h-400l201 201l127 -129l440 440zM1079 1409l129 127h400l-328 -328zM1720 -512l201 201l127 -129v-72h-328zM1720 1024l201 201l127 -129v-400z" />
<glyph unicode="&#x25fc;" horiz-adv-x="1536" d="M0 0v1536h1536v-1536h-1536z" />
<glyph unicode="&#xf8ff;" d="M0 72l584 -584h-400l-184 184v400zM0 184v400l457 -455l-201 -201zM0 -440l72 -72h-72v72zM0 696v400l256 -256l696 696h144l129 -127l-72 -74l-129 129l-696 -696l1280 -1280h-400zM0 1208v328h72l184 -184l184 184h144l-256 -256l129 -127l-201 -201zM311 -129l201 201 l584 -584h-400zM440 768l201 201l127 -129l567 569l-127 127h400l129 -127l-201 -201l-127 127l-313 -311l952 -952v-144l-1024 1024l-184 -184l641 -639l-201 -201zM1335 -129l201 201l512 -512v-72h-328zM1335 1153l74 72l127 -129l311 313l-127 127h328v-328l-127 127 l-313 -311l440 -440v-144zM1720 1024l201 201l127 -129v-400z" />
<glyph unicode="&#xfb01;" d="M0 -72v144l584 -584h-144zM0 440v144l129 129l383 -385l1208 1208h328v-328l-55 -55l55 -57v-400l-201 201l129 127l-55 55l-1081 -1079l385 -385l-129 -127h-144zM0 -440l72 -72h-72v72zM0 696v400l129 129l383 -385l567 569l-55 55l-127 -129l-201 201h400l256 -256 l-840 -840l-383 383zM0 1208v328h72l313 -311l182 184l-55 55l-127 -129l-201 201h400l256 -256l-328 -328l-383 383zM952 0l840 840l256 -256v-400l-201 201l129 127l-55 55l-569 -567l385 -385l-129 -127h-400l127 127zM1208 1536h400l-199 -201zM1464 0l328 328l256 -256 v-400l-201 199l129 129l-55 55l-184 -184l311 -311v-72h-328l127 127z" />
<glyph unicode="&#xfb02;" d="M0 72l1335 1337l-127 127h400l-768 -768l184 -184l440 440l-129 129l385 383h328v-328l-383 -385l-129 129l-440 -440l440 -440l440 440l-129 129l74 72l127 -129v-400l-127 127l-313 -311l256 -256l-256 -256h-400l383 383l-311 313l-696 -696h-400l201 201l127 -129 l696 696l-440 440l-696 -696l129 -129l-201 -199v400zM0 184v400l440 440l-55 55l-385 -383v400l256 256l256 -256l440 440h144l129 -127l-72 -74l-129 129l-440 -440l129 -127zM0 -440l311 311l-127 129l584 584l328 -328l-584 -584l-127 127l-313 -311h-72v72zM0 1208v328 h72l129 -127zM440 1536h144l-72 -72zM696 -512l584 584l201 -201l-385 -383h-400zM1464 512l584 584v-400l-127 127l-385 -383zM1720 -512l201 201l127 -129v-72h-328zM1847 -129l201 201v-400z" />
<glyph />
<glyph />
<glyph />
<glyph />
<glyph />
<glyph />
<glyph />
<glyph />
<glyph />
<glyph />
<glyph />
<glyph />
<glyph />
<glyph />
<glyph />
<glyph />
<glyph />
<glyph />
<glyph />
<glyph />
<glyph />
<glyph />
<glyph />
<glyph />
<glyph />
<glyph />
<glyph />
<glyph />
<glyph />
<glyph />
<glyph />
<glyph />
<glyph />
<glyph />
<glyph />
<glyph />
<glyph />
<glyph />
<glyph />
<glyph />
<glyph />
<glyph />
<glyph />
<glyph />
<glyph />
<glyph />
<glyph />
<glyph />
<glyph />
<glyph />
<glyph />
<glyph />
<glyph />
<glyph />
<glyph />
<glyph />
<glyph />
<glyph />
<glyph />
<glyph />
<glyph />
<glyph />
<glyph />
<glyph />
<glyph />
<glyph />
<glyph />
<glyph />
<glyph horiz-adv-x="1024" />
<glyph />
<glyph />
<glyph />
</font>
</defs>
</svg>
