<?xml version="1.0" encoding="UTF-8" standalone="no"?>
<svg
   xmlns:dc="http://purl.org/dc/elements/1.1/"
   xmlns:cc="http://creativecommons.org/ns#"
   xmlns:rdf="http://www.w3.org/1999/02/22-rdf-syntax-ns#"
   xmlns:svg="http://www.w3.org/2000/svg"
   xmlns="http://www.w3.org/2000/svg"
   xmlns:inkscape="http://www.inkscape.org/namespaces/inkscape"
   version="1.1"
   id="svg2"
   width="2829.3333"
   height="2829.3333"
   viewBox="0 0 2829.3333 2829.3333">
  <g
     id="g10"
     inkscape:groupmode="layer"
     inkscape:label="ink_ext_XXXXXX"
     transform="matrix(1.3333333,0,0,-1.3333333,0,2829.3333)">
     <g
       id="g12"
       transform="scale(0.1)"><path
         d="m 8631.29,12687.9 c 323.12,-0.2 584.88,-261.9 584.96,-585 -0.08,-323.2 -261.84,-584.9 -584.96,-585 -323.13,0.1 -584.92,261.8 -585,585 0.12,323.1 261.87,584.9 585,585 z m 1821.71,1292.9 -343.9,450.1 21.6,-256.5 c 4.6,-54.1 -20.6,-106 -65.9,-135.9 -45.1,-29.8 -102.53,-32.6 -150.39,-7.3 v 0 h -0.11 l -1.8,1 -9.45,4.6 c -8.87,4.2 -22.85,10.7 -41.6,18.6 -37.47,16 -93.87,37.8 -166.29,59.8 -144.81,43.9 -353.44,88.4 -603.17,88.4 -252.34,-0.4 -546.25,-45 -863.79,-181.9 22.62,-3.8 45.12,-7.9 67.39,-12.4 87.85,-18.7 171.21,-42 246.71,-83.8 50.12,-28.2 79.22,-82.5 74.97,-139.8 -4.26,-57.4 -40.98,-106.8 -94.73,-127.3 h -0.16 l -2.18,-0.9 -10.24,-4.2 c -9.41,-3.8 -23.83,-9.9 -42.69,-18.3 -37.78,-16.9 -93.36,-43.2 -162.47,-79.6 -138.12,-73 -330.07,-187 -540.78,-349 -355.97,-273.7 -763.9,-683.5 -1063.55,-1264.3 33.48,14.2 66.01,28 95.78,40.5 58.67,24.7 105.82,44.3 131.72,54.6 7.26,2.9 11.91,4.7 20.16,7.5 -0.04,0 -0.12,0 -0.16,0 l 0.7,0.2 c -0.23,-0.1 -0.35,-0.1 -0.54,-0.2 10.58,3.4 24.8,7.9 49.06,8.2 16.56,0 39.06,-2.7 63.59,-14.2 24.53,-11 48.44,-32.2 62.23,-54.4 9.45,-14.6 15.12,-29.1 18.47,-41.4 4.54,-16.7 5.4,-29.7 5.43,-40.2 -0.5,-26.8 -4.96,-38.5 -7.65,-48.3 -3.01,-9.4 -5.59,-15.5 -8.01,-21 -4.8,-10.7 -9.02,-18.7 -13.63,-27.4 -9.18,-17 -20.08,-35.7 -33.36,-59.3 -26.49,-46.7 -62.35,-111.2 -103.21,-195.3 -51.95,-107 -111.79,-245.8 -168.2,-416 72.07,35.8 148.99,73 221.49,105.8 80.07,36.1 153.67,67 217.03,87 50.9,15.9 106.64,3.1 145.47,-33.5 38.82,-36.5 55,-91.4 42.18,-143.1 l -0.07,-0.5 -0.59,-2.4 -2.46,-10.6 c -2.19,-9.6 -5.39,-24.2 -9.3,-43 -7.77,-37.8 -18.32,-93 -28.83,-160.9 -21.13,-135.9 -42.14,-322.9 -42.11,-523 -0.03,-145 11.06,-296.7 40,-440.1 8.95,-44.5 20.32,-87.7 32.82,-130.2 26.68,45.3 56.6,94.6 90,147.3 153.04,240.9 374.29,547.2 654.65,812.9 187.07,176.9 400.82,336.2 641.28,442.8 321.22,141.9 655.39,217.1 953.87,230.7 -4.14,76.6 -13.98,178.8 -36.6,292.3 -34.22,172.7 -97.97,369.5 -209.69,540 -74.53,113.8 -169.49,216.3 -293.04,297.3 -164.77,107.6 -382.15,180.2 -684.73,180.6 -228.95,0.1 -506.25,-42.7 -839.18,-147.1 -77.93,-24.4 -160.9,19 -185.31,97 -24.42,77.9 18.98,160.9 96.91,185.2 355.39,111.4 661.76,160.7 927.58,160.7 350.47,0.4 631.44,-87.4 846.87,-229.1 215.71,-141.3 363.13,-332.7 462.11,-527.6 166.7,-330 203.6,-671 211.5,-858.3 88,-10.2 171.4,-26.5 247.7,-51.6 113.5,-37.8 215.5,-93.8 291.3,-178.1 v 2690.9 c -54.8,-12.6 -114.3,6.5 -150.7,54"
         style="fill:#292a2c;fill-opacity:1;fill-rule:nonzero;stroke:none"
         id="path14" /><path
         d="m 7583.75,13440.8 c 169.38,130.2 327.3,231.5 459.18,307.6 -2.66,0.3 -5.35,0.7 -8.01,0.9 -145,14.8 -276.99,16.7 -303.87,16.8 h -4.96 c -65.23,0 -122.38,42.4 -141.44,104.7 -19.02,62.4 4.73,129.4 58.79,165.9 483.55,326.3 952.15,443 1342.85,460 -14.57,198.2 -57.7,344.8 -112.77,452.2 -68.25,132.2 -153.36,209.9 -238.75,261 -56.96,33.9 -114.42,55 -165.59,68 -68.05,17.4 -124.65,19.9 -149.57,19.9 -8.28,0 -13.09,-0.3 -13.48,-0.3 v 0 c -9.88,-0.7 -18.24,-0.5 -28.12,0.7 v 0 l -1.37,0.2 -8.94,0.7 c -8.56,0.6 -22.11,1.2 -39.73,1.2 -52.11,0.1 -138.91,-6 -233.95,-35.2 -95.31,-29.4 -198.08,-80.6 -290.78,-172 -61.87,-61.2 -120.08,-140.8 -168.55,-248.2 -54.18,-120.4 -124.65,-219 -204.18,-296.8 -79.49,-78 -167.54,-135.1 -255.59,-175.8 -176.52,-81.5 -351.64,-99.5 -481.33,-99.8 -124.37,0.1 -208.28,17.2 -215.39,18.6 l -3.43,0.8 v 0 l -2.35,0.5 -11.91,2.4 c -10.98,2 -27.78,4.9 -49.22,7.9 -42.89,5.9 -104.49,11.8 -175.16,11.8 -110.66,0.2 -243.08,-15.1 -361.79,-63.2 -119.26,-48.8 -224.3,-125.2 -302.54,-260 -51.92,-90.4 -92.15,-209.5 -108.17,-370.2 -2.77,-28.4 -4.14,-55.9 -4.14,-82.6 0.08,-101.2 18.95,-191.1 52.23,-274.5 33.32,-83.2 81.52,-160 141.64,-231.2 119.8,-142.3 288.36,-260.7 462.62,-352.3 245.93,-129.9 500.15,-205.4 633.98,-239.6 289.73,439.5 630.31,766.7 933.79,999.9"
         style="fill:#292a2c;fill-opacity:1;fill-rule:nonzero;stroke:none"
         id="path16" /><path
         d="m 7834.84,8338.2 c 0.16,-182.1 42.39,-330.2 105.75,-455 63.43,-124.6 149.21,-225.7 237.42,-305.5 60.15,-54.7 121.25,-98.8 175.9,-133.5 39.76,383.3 175.04,710.6 362.46,976.5 224.92,319.6 521.83,552.5 818.4,707.4 197.93,103.2 395.89,171.9 576.53,207.6 141.7,27.9 231,67 283.6,102.5 33.4,22.9 52.6,43 64.7,60.7 -2.3,18 -3.7,35.7 -3.7,52.4 0,10.5 0.9,20.1 1.6,29.9 -153.4,11.2 -296.9,51 -421.7,114.7 -147.83,75.6 -270.76,184.8 -347.79,322.1 -51.21,91.3 -80.98,195.6 -80.86,304.6 -0.12,109 29.65,213.2 80.86,304.5 51.21,91.5 123.24,170.6 209.02,235.5 130.07,98.1 291.97,164.7 470.57,191.5 -17,15.3 -38.4,30.6 -66.3,45.1 -93.8,49.8 -250.6,83.1 -437.75,82.5 -274.29,0.3 -612.34,-67.6 -929.41,-208.2 -193.16,-85.4 -376.48,-218.1 -541.76,-372.3 -165.31,-154 -312.54,-329 -435.43,-495.6 -245.62,-332.7 -394.06,-631.5 -409.29,-662.9 -123.28,-282.8 -163.48,-580.2 -163.36,-843.4 -0.12,-135 10.43,-260.7 25.11,-370.1 3.83,5.5 7.7,11.3 11.49,16.7 82.62,115.5 156.52,191.7 159.88,195.3 41.95,43.2 105.86,56.7 161.68,34.1 55.86,-22.7 92.38,-76.8 92.38,-137.1"
         style="fill:#c6b9a4;fill-opacity:1;fill-rule:nonzero;stroke:none"
         id="path18" /><path
         d="m 7793.09,8235.2 v 0 0 z"
         style="fill:#c6b9a4;fill-opacity:1;fill-rule:nonzero;stroke:none"
         id="path20" /><path
         d="m 10168.6,9045.6 c -225.12,-44.2 -502.47,-156.5 -755.01,-338.7 -253.16,-182.3 -481.83,-432.8 -624.06,-754.1 -94.88,-214.5 -152.19,-461 -152.26,-745.5 0,-48.4 -23.56,-93.6 -63.32,-121.2 -39.77,-27.8 -90.28,-34.3 -135.71,-17.5 -4.22,1.6 -41.6,15.7 -98.4,44.1 31.21,-97.6 79.57,-203.4 152.89,-295.6 27.11,-34.1 57.62,-66.4 91.92,-96.5 6.17,38.5 13.55,78.6 22.73,118.5 13.56,57.7 29.77,114.3 54.89,168 26.05,55.4 83.55,88.9 144.53,84.5 60.97,-4.5 112.89,-46 130.7,-104.5 v 0 l 0.04,-0.1 v 0 l 0.12,-0.4 0.89,-2.9 4.34,-13.1 c 4.02,-11.9 10.27,-29.7 18.79,-52.2 17.07,-44.9 43.32,-108.4 78.87,-179.8 70.78,-143 180.39,-316.6 320.47,-437.9 41.32,-35.9 84.84,-67 130.62,-92.7 -3.05,79.7 -5.51,172.9 -5.51,267.2 0.04,99.4 2.66,199.7 10.71,288.9 6.13,67.6 57.93,122.6 125.04,132.8 67.1,10.2 132.89,-26.9 158.9,-89.6 h -0.04 l 0.16,-0.4 1.21,-2.8 5.59,-12.7 c 5.19,-11.5 13.12,-28.7 23.86,-50.5 21.49,-43.6 54.1,-105.4 97.19,-175.9 86.05,-141 215.05,-315.8 376.85,-448.8 95.8,-79.1 202.3,-143.2 318.1,-181.4 v 3290.4 c -99.1,-80.1 -239.3,-140.8 -435.1,-179.6"
         style="fill:#a79d90;fill-opacity:1;fill-rule:nonzero;stroke:none"
         id="path22" /><path
         d="m 15654.7,14107.7 c -94.1,98.4 -213.4,152.9 -337.8,181.4 -82.5,18.9 -166.1,25.5 -239.8,25.4 -132.4,0.2 -232.5,-21.2 -238.7,-22.6 v 0 l -3.4,-0.8 c -7.1,-1.4 -91.1,-18.5 -215.4,-18.6 -97.4,0.1 -219.9,10.5 -349.9,49.8 -129.7,39.3 -267.6,108.6 -387,225.8 -79.5,77.8 -150,176.5 -204.1,296.8 -48.6,107.4 -106.7,187 -168.6,248.2 -62,61 -128,103.9 -193.6,134.7 -130.9,61.5 -261.5,72.8 -331.2,72.5 -30.8,0 -49.3,-2 -50,-2.1 v 0 c -9.9,-1.2 -18.2,-1.4 -28.1,-0.7 v 0 l -1.8,0.1 -11.7,0.2 c -28.1,0.1 -96.1,-3.3 -175.7,-27.1 -79.8,-23.9 -170.1,-67.1 -251.6,-147.1 -54.6,-53.6 -106.1,-124.1 -148.6,-221.1 -44.5,-101.8 -78.4,-234.5 -91,-405.8 390.8,-17 859.5,-133.6 1343.1,-460 54.1,-36.5 77.8,-103.5 58.8,-165.9 -19.1,-62.3 -76.2,-104.7 -141.5,-104.7 h -2.6 -9.1 c -8.1,-0.1 -20.1,-0.3 -35.4,-0.7 -30.6,-0.7 -74,-2.2 -124.4,-5.2 -44.2,-2.5 -94.2,-6.6 -145.1,-12 131.9,-76 289.7,-177.3 459,-307.4 303.4,-233.2 644,-560.4 933.7,-999.9 1.3,0.4 2.5,0.6 3.8,0.9 64.4,16.6 155.4,42.3 259.5,78.9 208.3,72.7 468.3,189.9 670.4,354.2 135.1,109.4 243.2,237.8 303,385.2 34.3,84.4 53.7,175.6 53.8,278.4 0,26.7 -1.4,54.2 -4.1,82.6 -24.6,241.3 -101.2,387.8 -194.9,486.6"
         style="fill:#181819;fill-opacity:1;fill-rule:nonzero;stroke:none"
         id="path24" /><path
         d="m 12582,11517.9 c -323.2,0.1 -584.9,261.8 -585,585 0.1,323.1 261.8,584.9 585,585 323.1,-0.2 584.8,-261.9 585,-585 -0.2,-323.2 -261.9,-584.9 -585,-585 z m 887,1673.1 c -417,324.9 -765.8,462.7 -778.2,467.4 h -0.1 c -53.8,20.5 -90.5,69.9 -94.8,127.3 -4.2,57.3 24.9,111.6 75,139.8 75.5,41.8 158.9,65.1 246.8,83.8 22.7,4.7 45.8,7.9 68.9,11.7 -318.1,137.4 -612.7,182.2 -865.4,182.6 -460.7,0.3 -782.5,-152.2 -819,-170.7 l -3.4,-1.7 v 0 c -47.9,-25.3 -105.3,-22.5 -150.5,7.3 -45.2,29.9 -70.4,81.8 -65.8,135.9 l 21.7,256.5 -344,-450.1 c -37,-48.4 -98,-67.5 -153.6,-53.6 -1,-0.2 -2,-0.2 -2.9,-0.4 v -2690.9 c 1.1,-1.2 2.3,-2.3 3.4,-3.5 47,53.2 104.4,95.9 168.2,129.1 107.9,55.7 234.2,88.7 373.1,104.5 3.8,90.2 14.6,215.6 43,358.7 39.6,198 112.5,429.8 252.3,644 93.1,142.6 216.8,277 378.4,382.8 215.4,141.7 496.4,229.5 846.9,229.1 265.8,0 572.1,-49.3 927.6,-160.7 77.9,-24.3 121.3,-107.3 96.9,-185.2 -24.4,-78 -107.4,-121.4 -185.4,-97 -332.9,104.4 -610.1,147.2 -839.1,147.1 -302.6,-0.4 -520,-73 -684.7,-180.6 -164.5,-107.9 -279.2,-254.4 -360.6,-414.4 -132,-257.5 -169.8,-548.2 -179,-715.2 298.6,-13.5 632.8,-88.8 954.1,-230.7 240.5,-106.6 454.2,-265.9 641.2,-442.8 187.1,-177.2 347.5,-372.3 479.3,-554.1 109,-150.6 198,-291.6 265.4,-406.1 12.6,42.5 23.9,85.7 32.8,130.2 28.9,143.4 40.1,295.1 40.1,440.1 0.2,387.9 -79.6,725.6 -83.3,739.9 l -0.2,0.5 c -12.8,51.7 3.5,106.6 42.3,143.1 38.8,36.6 94.6,49.4 145.4,33.5 63.4,-20 137,-50.9 217.1,-87 72.8,-33 149.3,-70.1 221.5,-105.9 -38.3,115.3 -78.1,216.5 -115.9,302.8 -70,159.2 -132.3,267.6 -168.9,332.2 -10.7,18.8 -19.2,33.6 -27.2,49.5 -4.3,9 -8.6,16.9 -14.5,34.6 -2.6,9.8 -7.1,21.5 -7.6,48.3 0.1,11.7 1,26.8 7.3,46.4 5.9,19.2 18.9,43.6 40,63.4 13.9,13.1 30.8,23.4 46.8,29.7 21.6,8.5 40.8,10.7 55.6,10.7 24.4,-0.3 38.6,-4.8 49,-8.1 l -0.5,0.2 c 8.7,-3 13.2,-4.9 20.7,-7.8 7.1,-2.8 15.4,-6.2 25.1,-10.1 19.4,-8 44.3,-18.3 73,-30.4 38,-15.9 83,-34.9 129.5,-54.6 -294.1,570 -692.5,975.3 -1043.8,1248.9"
         style="fill:#181819;fill-opacity:1;fill-rule:nonzero;stroke:none"
         id="path26" /><path
         d="m 13665.5,9442.9 -1.7,3.4 c -2.3,4.6 -5.8,11.7 -10.5,20.9 -9.4,18.7 -23.7,46.2 -42.5,80.8 -37.7,69.6 -93.6,168 -165.8,281.7 -144.2,227.4 -353.9,516 -608.3,756.5 -169.4,160.6 -358.2,299.2 -557.6,387.3 -317.1,140.6 -655.2,208.5 -929.4,208.2 -15.6,0 -30.9,-0.3 -46.1,-0.7 -0.2,0 -0.4,-0.1 -0.6,-0.1 -0.4,0 -0.7,0.1 -1.1,0 -120.5,-3.5 -226.5,-20.6 -308.3,-47.7 -67.9,-22.3 -116.9,-50.9 -148.6,-79.3 119.8,-18 232.2,-53.5 332.4,-104.7 147.8,-75.6 270.8,-184.8 347.8,-322.1 51.2,-91.3 81,-195.5 80.9,-304.5 0.1,-109 -29.7,-213.3 -80.9,-304.6 -51.2,-91.5 -123.3,-170.6 -209.1,-235.5 -146,-110.1 -332.4,-180.2 -537.3,-199.1 0,-3.3 0.4,-6.4 0.4,-9.8 0,-26 -2.8,-54.4 -8.7,-84 5.7,-8.5 13.2,-17.7 24,-28.1 39.4,-38.3 129.5,-90.9 307.4,-125.8 270.7,-53.7 581.6,-181.1 870.5,-388.8 288.4,-207.6 554.7,-497.2 721.7,-874.4 83.5,-188.3 141.6,-398.1 165.5,-628 11.5,7.3 23,14.6 34.9,22.7 127.6,86.7 277.7,221.5 375.1,410 65.1,126.1 108.6,276 108.8,461 0,60.3 36.5,114.4 92.3,137.1 55.9,22.6 119.8,9.1 161.7,-34.1 3.6,-4.2 84.2,-86.6 171.4,-211.7 14.6,109.4 25.1,234.8 25.1,369.7 0.1,263.3 -40.1,560.7 -163.4,843.7"
         style="fill:#a99c89;fill-opacity:1;fill-rule:nonzero;stroke:none"
         id="path28" /><path
         d="m 12873.4,7112.5 c -57,-28.3 -94.2,-42.2 -98.4,-43.9 -45.5,-16.8 -96,-10.3 -135.7,17.5 -39.8,27.6 -63.3,72.8 -63.3,121.2 -0.4,426.4 -128.4,768.6 -321.1,1043.3 -192.6,274.2 -452.6,479.3 -713.2,615.3 -173.6,90.6 -347.2,150.2 -497.1,179.7 -159.1,31.5 -279.3,77.2 -371.7,137.1 -22.9,14.8 -44.1,30.7 -63.4,47.5 -2,-1.7 -3.8,-3.4 -5.8,-5 V 5934.8 c 0.9,-0.3 1.9,-0.6 2.9,-0.9 114.9,37.5 220.6,100.3 316,178.1 106.4,86.8 199.2,191.7 274.7,293.9 151.2,203.9 232.9,395.7 235.2,401.4 v 0 0 0 c 25.9,62.7 91.7,99.8 158.8,89.6 67.1,-10.2 118.9,-65.2 125.1,-132.8 8,-89.2 10.6,-189.5 10.7,-288.9 0,-94.3 -2.5,-187.5 -5.5,-267.2 44.1,24.9 86.2,54.6 126.2,88.9 92.2,79 171.8,180.5 235.4,282 127.9,202.6 191.1,402.9 192.5,408.1 v 0 c 17.8,58.5 69.8,100.1 130.7,104.6 61.1,4.4 118.5,-29.1 144.6,-84.5 25.1,-53.7 41.3,-110.3 54.9,-168 9.1,-39.7 16.1,-79.1 22.3,-117.5 31.4,27.6 60.6,56.6 86,87.7 66.1,81.1 112.8,172.8 144.9,261 5.2,14.2 9.9,28.3 14.3,42.2"
         style="fill:#888077;fill-opacity:1;fill-rule:nonzero;stroke:none"
         id="path30" /><path
         d="m 11009.1,10193.7 c -94.7,-54.7 -202.3,-45.7 -240.2,20.1 -38,65.8 7.9,163.4 102.5,218.1 94.7,54.6 202.2,45.6 240.2,-20.2 38,-65.7 -7.9,-163.4 -102.5,-218 z m -562.9,20.1 c -38,-65.8 -145.6,-74.8 -240.2,-20.1 -94.6,54.6 -140.6,152.3 -102.6,218 38,65.8 145.5,74.8 240.2,20.2 94.6,-54.7 140.6,-152.3 102.6,-218.1 z m 691.6,413 c -113.9,86.4 -281.2,145.1 -469,144.8 h -124.3 c -140.9,0.1 -270.3,-32.6 -374.1,-85.8 -104.2,-53 -181.49,-126.1 -224.27,-203.1 -28.71,-51.5 -43.12,-104.3 -43.24,-160.1 0.12,-55.9 14.53,-108.7 43.24,-160.2 28.67,-51.3 72.27,-100.9 129.27,-144 113.9,-86.5 281.3,-145.1 469.1,-144.9 h 124.3 c 140.8,0 270.2,32.6 374.1,85.8 104.1,53.1 181.4,126.2 224.2,203.1 28.7,51.5 43.1,104.3 43.2,160.2 -0.1,55.8 -14.5,108.6 -43.2,160.1 -28.7,51.4 -72.2,100.9 -129.3,144.1"
         style="fill:#292a2c;fill-opacity:1;fill-rule:nonzero;stroke:none"
         id="path32" /><path
         d="m 10343.6,10431.9 c -94.7,54.6 -202.2,45.6 -240.2,-20.2 -38,-65.7 8,-163.4 102.6,-218 94.6,-54.7 202.2,-45.7 240.2,20.1 38,65.8 -8,163.4 -102.6,218.1"
         style="fill:#000000;fill-opacity:1;fill-rule:nonzero;stroke:none"
         id="path34" /><path
         d="m 10871.4,10431.9 c -94.6,-54.7 -140.5,-152.3 -102.5,-218.1 37.9,-65.8 145.5,-74.8 240.2,-20.1 94.6,54.6 140.5,152.3 102.5,218 -38,65.8 -145.5,74.8 -240.2,20.2"
         style="fill:#000000;fill-opacity:1;fill-rule:nonzero;stroke:none"
         id="path36" /><path
         d="m 8568.2,12326 c 70.55,0 127.78,-57.2 127.78,-127.8 0,-70.5 -57.23,-127.8 -127.78,-127.8 -70.58,0 -127.73,57.3 -127.73,127.8 0,70.6 57.15,127.8 127.73,127.8 z m 245.2,-358.3 c 0,-39.3 -31.88,-71.2 -71.21,-71.2 -39.34,0 -71.21,31.9 -71.21,71.2 0,39.4 31.87,71.2 71.21,71.2 39.33,0 71.21,-31.8 71.21,-71.2 z m -182.11,-154.1 c 80.31,0.1 151.68,32.2 204.49,84.8 52.58,52.8 84.69,124.1 84.73,204.5 -0.04,80.3 -32.15,151.7 -84.73,204.5 -52.81,52.6 -124.18,84.6 -204.49,84.7 -80.35,-0.1 -151.72,-32.1 -204.57,-84.7 -52.54,-52.8 -84.61,-124.2 -84.69,-204.5 0.08,-80.4 32.15,-151.7 84.69,-204.5 52.85,-52.6 124.22,-84.7 204.57,-84.8"
         style="fill:#000000;fill-opacity:1;fill-rule:nonzero;stroke:none"
         id="path38" /><path
         d="m 12691.4,11896.5 c -39.3,0 -71.2,31.9 -71.2,71.2 0,39.4 31.9,71.2 71.2,71.2 39.3,0 71.2,-31.8 71.2,-71.2 0,-39.3 -31.9,-71.2 -71.2,-71.2 z m -174,173.9 c -70.6,0 -127.8,57.3 -127.8,127.8 0,70.6 57.2,127.8 127.8,127.8 70.6,0 127.8,-57.2 127.8,-127.8 0,-70.5 -57.2,-127.8 -127.8,-127.8 z m 64.6,321.7 c -80.4,-0.1 -151.8,-32.1 -204.6,-84.7 -52.6,-52.8 -84.6,-124.2 -84.7,-204.5 0.1,-80.4 32.1,-151.7 84.7,-204.5 52.8,-52.6 124.2,-84.7 204.6,-84.8 80.2,0.1 151.6,32.2 204.4,84.8 52.6,52.8 84.7,124.1 84.8,204.5 -0.1,80.3 -32.2,151.7 -84.8,204.5 -52.8,52.6 -124.2,84.6 -204.4,84.7"
         style="fill:#000000;fill-opacity:1;fill-rule:nonzero;stroke:none"
         id="path40" /><path
         d="m 8568.2,12070.4 c 70.55,0 127.78,57.3 127.78,127.8 0,70.6 -57.23,127.8 -127.78,127.8 -70.58,0 -127.73,-57.2 -127.73,-127.8 0,-70.5 57.15,-127.8 127.73,-127.8"
         style="fill:#ffffff;fill-opacity:1;fill-rule:nonzero;stroke:none"
         id="path42" /><path
         d="m 8670.98,11967.7 c 0,-39.3 31.87,-71.2 71.21,-71.2 39.33,0 71.21,31.9 71.21,71.2 0,39.4 -31.88,71.2 -71.21,71.2 -39.34,0 -71.21,-31.8 -71.21,-71.2"
         style="fill:#ffffff;fill-opacity:1;fill-rule:nonzero;stroke:none"
         id="path44" /><path
         d="m 12517.4,12326 c -70.6,0 -127.8,-57.2 -127.8,-127.8 0,-70.5 57.2,-127.8 127.8,-127.8 70.6,0 127.8,57.3 127.8,127.8 0,70.6 -57.2,127.8 -127.8,127.8"
         style="fill:#ffffff;fill-opacity:1;fill-rule:nonzero;stroke:none"
         id="path46" /><path
         d="m 12691.4,12038.9 c -39.3,0 -71.2,-31.8 -71.2,-71.2 0,-39.3 31.9,-71.2 71.2,-71.2 39.3,0 71.2,31.9 71.2,71.2 0,39.4 -31.9,71.2 -71.2,71.2"
         style="fill:#ffffff;fill-opacity:1;fill-rule:nonzero;stroke:none"
         id="path48" /><path
         d="m 6947.97,12044.7 c 0.04,0 0.12,0 0.16,0 0.19,0.1 0.31,0.1 0.54,0.2 l -0.7,-0.2"
         style="fill:#040606;fill-opacity:1;fill-rule:nonzero;stroke:none"
         id="path50" /><path
         d="m 8426.72,12307.4 c 52.85,52.6 124.22,84.6 204.57,84.7 80.31,-0.1 151.68,-32.1 204.49,-84.7 52.58,-52.8 84.69,-124.2 84.73,-204.5 -0.04,-80.4 -32.15,-151.7 -84.73,-204.5 -52.81,-52.6 -124.18,-84.7 -204.49,-84.8 -80.35,0.1 -151.72,32.2 -204.57,84.8 -52.54,52.8 -84.61,124.1 -84.69,204.5 0.08,80.3 32.15,151.7 84.69,204.5 z m 204.57,-789.5 c 323.12,0.1 584.88,261.8 584.96,585 -0.08,323.1 -261.84,584.8 -584.96,585 -323.13,-0.1 -584.88,-261.9 -585,-585 0.08,-323.2 261.87,-584.9 585,-585"
         style="fill:#040606;fill-opacity:1;fill-rule:nonzero;stroke:none"
         id="path52" /><path
         d="m 14775,14580.7 v 0 0 z M 5553.36,13032.8 c -60.12,71.2 -108.32,148 -141.64,231.2 -33.28,83.4 -52.15,173.3 -52.23,274.5 0,26.7 1.37,54.2 4.14,82.6 16.02,160.7 56.25,279.8 108.17,370.2 78.24,134.8 183.28,211.2 302.54,260 118.71,48.1 251.13,63.4 361.79,63.2 70.67,0 132.27,-5.9 175.16,-11.8 21.44,-3 38.24,-5.9 49.22,-7.9 l 11.91,-2.4 2.35,-0.5 v 0 l 3.43,-0.8 c 7.11,-1.4 91.02,-18.5 215.39,-18.6 129.69,0.3 304.81,18.3 481.33,99.8 88.05,40.7 176.1,97.8 255.59,175.8 79.53,77.8 150,176.4 204.18,296.8 48.47,107.4 106.68,187 168.55,248.2 92.7,91.4 195.47,142.6 290.78,172 95.04,29.2 181.84,35.3 233.95,35.2 17.62,0 31.17,-0.6 39.73,-1.2 l 8.94,-0.7 1.37,-0.2 v 0 c 9.88,-1.2 18.24,-1.4 28.12,-0.7 v 0 c 0.39,0 5.2,0.3 13.48,0.3 24.92,0 81.52,-2.5 149.57,-19.9 51.17,-13 108.63,-34.1 165.59,-68 85.39,-51.1 170.5,-128.8 238.75,-261 55.07,-107.4 98.2,-254 112.77,-452.2 -390.7,-17 -859.3,-133.7 -1342.85,-460 -54.06,-36.5 -77.81,-103.5 -58.79,-165.9 19.06,-62.3 76.21,-104.7 141.44,-104.7 h 4.96 c 26.88,-0.1 158.87,-2 303.87,-16.8 2.66,-0.2 5.35,-0.6 8.01,-0.9 -131.88,-76.1 -289.8,-177.4 -459.18,-307.6 -303.48,-233.2 -644.06,-560.4 -933.79,-999.9 -133.83,34.2 -388.05,109.7 -633.98,239.6 -174.26,91.6 -342.82,210 -462.62,352.3 z m 5756.94,-2710.2 c -0.1,-55.9 -14.5,-108.7 -43.2,-160.2 -42.8,-76.9 -120.1,-150 -224.2,-203.1 -103.9,-53.2 -233.3,-85.8 -374.1,-85.8 h -124.3 c -187.8,-0.2 -355.2,58.4 -469.1,144.9 -57,43.1 -100.6,92.7 -129.27,144 -28.71,51.5 -43.12,104.3 -43.24,160.2 0.12,55.8 14.53,108.6 43.24,160.1 42.78,77 120.07,150.1 224.27,203.1 103.8,53.2 233.2,85.9 374.1,85.8 h 124.3 c 187.8,0.3 355.1,-58.4 469,-144.8 57.1,-43.2 100.6,-92.7 129.3,-144.1 28.7,-51.5 43.1,-104.3 43.2,-160.1 z M 7742.46,8475.3 c -55.82,22.6 -119.73,9.1 -161.68,-34.1 -3.36,-3.6 -77.26,-79.8 -159.88,-195.3 -3.79,-5.4 -7.66,-11.2 -11.49,-16.7 -14.68,109.4 -25.23,235.1 -25.11,370.1 -0.12,263.2 40.08,560.6 163.36,843.4 15.23,31.4 163.67,330.2 409.29,662.9 122.89,166.6 270.12,341.6 435.43,495.6 165.28,154.2 348.6,286.9 541.76,372.3 317.07,140.6 655.12,208.5 929.41,208.2 187.15,0.6 343.95,-32.7 437.75,-82.5 27.9,-14.5 49.3,-29.8 66.3,-45.1 -178.6,-26.8 -340.5,-93.4 -470.57,-191.5 -85.78,-64.9 -157.81,-144 -209.02,-235.5 -51.21,-91.3 -80.98,-195.5 -80.86,-304.5 -0.12,-109 29.65,-213.3 80.86,-304.6 77.03,-137.3 199.96,-246.5 347.79,-322.1 124.8,-63.7 268.3,-103.5 421.7,-114.7 -0.7,-9.8 -1.6,-19.4 -1.6,-29.9 0,-16.7 1.4,-34.4 3.7,-52.4 -12.1,-17.7 -31.3,-37.8 -64.7,-60.7 -52.6,-35.5 -141.9,-74.6 -283.6,-102.5 -180.64,-35.7 -378.6,-104.4 -576.53,-207.6 -296.57,-154.9 -593.48,-387.8 -818.4,-707.4 -187.42,-265.9 -322.7,-593.2 -362.46,-976.5 -54.65,34.7 -115.75,78.8 -175.9,133.5 -88.21,79.8 -173.99,180.9 -237.42,305.5 -63.36,124.8 -105.59,272.9 -105.75,455 0,60.3 -36.52,114.4 -92.38,137.1 z m 50.63,-240.1 v 0 0 z m 6010.71,-5.7 c -87.2,125.1 -167.8,207.5 -171.4,211.7 -41.9,43.2 -105.8,56.7 -161.7,34.1 -55.8,-22.7 -92.3,-76.8 -92.3,-137.1 -0.2,-185 -43.7,-334.9 -108.8,-461 -97.4,-188.5 -247.5,-323.3 -375.1,-410 -11.9,-8.1 -23.4,-15.4 -34.9,-22.7 -23.9,229.9 -82,439.7 -165.5,628 -167,377.2 -433.3,666.8 -721.7,874.4 -288.9,207.7 -599.8,335.1 -870.5,388.8 -177.9,34.9 -268,87.5 -307.4,125.8 -10.8,10.4 -18.3,19.6 -24,28.1 5.9,29.6 8.7,58 8.7,84 0,3.4 -0.4,6.5 -0.4,9.8 204.9,18.9 391.3,89 537.3,199.1 85.8,64.9 157.9,144 209.1,235.5 51.2,91.3 81,195.6 80.9,304.6 0.1,109 -29.7,213.2 -80.9,304.5 -77,137.3 -200,246.5 -347.8,322.1 -100.2,51.2 -212.6,86.7 -332.4,104.7 31.7,28.4 80.7,57 148.6,79.3 81.8,27.1 187.8,44.2 308.3,47.7 0.4,0.1 0.7,0 1.1,0 0.2,0 0.4,0.1 0.6,0.1 15.2,0.4 30.5,0.7 46.1,0.7 274.2,0.3 612.3,-67.6 929.4,-208.2 199.4,-88.1 388.2,-226.7 557.6,-387.3 254.4,-240.5 464.1,-529.1 608.3,-756.5 72.2,-113.7 128.1,-212.1 165.8,-281.7 18.8,-34.6 33.1,-62.1 42.5,-80.8 4.7,-9.2 8.2,-16.3 10.5,-20.9 l 1.7,-3.4 c 123.3,-283 163.5,-580.4 163.4,-843.7 0,-134.9 -10.5,-260.3 -25.1,-369.7 z M 12628.2,6721.6 c -6.2,38.4 -13.2,77.8 -22.3,117.5 -13.6,57.7 -29.8,114.3 -54.9,168 -26.1,55.4 -83.5,88.9 -144.6,84.5 -60.9,-4.5 -112.9,-46.1 -130.7,-104.6 v 0 c -1.4,-5.2 -64.6,-205.5 -192.5,-408.1 -63.6,-101.5 -143.2,-203 -235.4,-282 -40,-34.3 -82.1,-64 -126.2,-88.9 3,79.7 5.5,172.9 5.5,267.2 -0.1,99.4 -2.7,199.7 -10.7,288.9 -6.2,67.6 -58,122.6 -125.1,132.8 -67.1,10.2 -132.9,-26.9 -158.8,-89.6 v 0 0 0 c -2.3,-5.7 -84,-197.5 -235.2,-401.4 -75.5,-102.2 -168.3,-207.1 -274.7,-293.9 -95.4,-77.8 -201.1,-140.6 -316,-178.1 -1,0.3 -2,0.6 -2.9,0.9 -115.8,38.2 -222.3,102.3 -318.1,181.4 -161.8,133 -290.8,307.8 -376.85,448.8 -43.09,70.5 -75.7,132.3 -97.19,175.9 -10.74,21.8 -18.67,39 -23.86,50.5 l -5.59,12.7 -1.21,2.8 -0.16,0.4 h 0.04 c -26.01,62.7 -91.8,99.8 -158.9,89.6 -67.11,-10.2 -118.91,-65.2 -125.04,-132.8 -8.05,-89.2 -10.67,-189.5 -10.71,-288.9 0,-94.3 2.46,-187.5 5.51,-267.2 -45.78,25.7 -89.3,56.8 -130.62,92.7 -140.08,121.3 -249.69,294.9 -320.47,437.9 -35.55,71.4 -61.8,134.9 -78.87,179.8 -8.52,22.5 -14.77,40.3 -18.79,52.2 l -4.34,13.1 -0.89,2.9 -0.12,0.4 v 0 l -0.04,0.1 v 0 c -17.81,58.5 -69.73,100 -130.7,104.5 -60.98,4.4 -118.48,-29.1 -144.53,-84.5 -25.12,-53.7 -41.33,-110.3 -54.89,-168 -9.18,-39.9 -16.56,-80 -22.73,-118.5 -34.3,30.1 -64.81,62.4 -91.92,96.5 -73.32,92.2 -121.68,198 -152.89,295.6 56.8,-28.4 94.18,-42.5 98.4,-44.1 45.43,-16.8 95.94,-10.3 135.71,17.5 39.76,27.6 63.32,72.8 63.32,121.2 0.07,284.5 57.38,531 152.26,745.5 142.23,321.3 370.9,571.8 624.06,754.1 252.54,182.2 529.89,294.5 755.01,338.7 195.8,38.8 336,99.5 435.1,179.6 2,1.6 3.8,3.3 5.8,5 19.3,-16.8 40.5,-32.7 63.4,-47.5 92.4,-59.9 212.6,-105.6 371.7,-137.1 149.9,-29.5 323.5,-89.1 497.1,-179.7 260.6,-136 520.6,-341.1 713.2,-615.3 192.7,-274.7 320.7,-616.9 321.1,-1043.3 0,-48.4 23.5,-93.6 63.3,-121.2 39.7,-27.8 90.2,-34.3 135.7,-17.5 4.2,1.7 41.4,15.6 98.4,43.9 -4.4,-13.9 -9.1,-28 -14.3,-42.2 -32.1,-88.2 -78.8,-179.9 -144.9,-261 -25.4,-31.1 -54.6,-60.1 -86,-87.7 z m 1755.1,5275.1 c -28.7,12.1 -53.6,22.4 -73,30.4 -9.7,3.9 -18,7.3 -25.1,10.1 -7.5,2.9 -12,4.8 -20.7,7.8 l 0.5,-0.2 c -10.4,3.3 -24.6,7.8 -49,8.1 -14.8,0 -34,-2.2 -55.6,-10.7 -16,-6.3 -32.9,-16.6 -46.8,-29.7 -21.1,-19.8 -34.1,-44.2 -40,-63.4 -6.3,-19.6 -7.2,-34.7 -7.3,-46.4 0.5,-26.8 5,-38.5 7.6,-48.3 5.9,-17.7 10.2,-25.6 14.5,-34.6 8,-15.9 16.5,-30.7 27.2,-49.5 36.6,-64.6 98.9,-173 168.9,-332.2 37.8,-86.3 77.6,-187.5 115.9,-302.8 -72.2,35.8 -148.7,72.9 -221.5,105.9 -80.1,36.1 -153.7,67 -217.1,87 -50.8,15.9 -106.6,3.1 -145.4,-33.5 -38.8,-36.5 -55.1,-91.4 -42.3,-143.1 l 0.2,-0.5 c 3.7,-14.3 83.5,-352 83.3,-739.9 0,-145 -11.2,-296.7 -40.1,-440.1 -8.9,-44.5 -20.2,-87.7 -32.8,-130.2 -67.4,114.5 -156.4,255.5 -265.4,406.1 -131.8,181.8 -292.2,376.9 -479.3,554.1 -187,176.9 -400.7,336.2 -641.2,442.8 -321.3,141.9 -655.5,217.2 -954.1,230.7 9.2,167 47,457.7 179,715.2 81.4,160 196.1,306.5 360.6,414.4 164.7,107.6 382.1,180.2 684.7,180.6 229,0.1 506.2,-42.7 839.1,-147.1 78,-24.4 161,19 185.4,97 24.4,77.9 -19,160.9 -96.9,185.2 -355.5,111.4 -661.8,160.7 -927.6,160.7 -350.5,0.4 -631.5,-87.4 -846.9,-229.1 -161.6,-105.8 -285.3,-240.2 -378.4,-382.8 -139.8,-214.2 -212.7,-446 -252.3,-644 -28.4,-143.1 -39.2,-268.5 -43,-358.7 -138.9,-15.8 -265.2,-48.8 -373.1,-104.5 -63.8,-33.2 -121.2,-75.9 -168.2,-129.1 -1.1,1.2 -2.3,2.3 -3.4,3.5 -75.8,84.3 -177.8,140.3 -291.3,178.1 -76.3,25.1 -159.7,41.4 -247.7,51.6 -7.9,187.3 -44.8,528.3 -211.5,858.3 -98.98,194.9 -246.4,386.3 -462.11,527.6 -215.43,141.7 -496.4,229.5 -846.87,229.1 -265.82,0 -572.19,-49.3 -927.58,-160.7 -77.93,-24.3 -121.33,-107.3 -96.91,-185.2 24.41,-78 107.38,-121.4 185.31,-97 332.93,104.4 610.23,147.2 839.18,147.1 302.58,-0.4 519.96,-73 684.73,-180.6 123.55,-81 218.51,-183.5 293.04,-297.3 111.72,-170.5 175.47,-367.3 209.69,-540 22.62,-113.5 32.46,-215.7 36.6,-292.3 -298.48,-13.6 -632.65,-88.8 -953.87,-230.7 -240.46,-106.6 -454.21,-265.9 -641.28,-442.8 -280.36,-265.7 -501.61,-572 -654.65,-812.9 -33.4,-52.7 -63.32,-102 -90,-147.3 -12.5,42.5 -23.87,85.7 -32.82,130.2 -28.94,143.4 -40.03,295.1 -40,440.1 -0.03,200.1 20.98,387.1 42.11,523 10.51,67.9 21.06,123.1 28.83,160.9 3.91,18.8 7.11,33.4 9.3,43 l 2.46,10.6 0.59,2.4 0.07,0.5 c 12.82,51.7 -3.36,106.6 -42.18,143.1 -38.83,36.6 -94.57,49.4 -145.47,33.5 -63.36,-20 -136.96,-50.9 -217.03,-87 -72.5,-32.8 -149.42,-70 -221.49,-105.8 56.41,170.2 116.25,309 168.2,416 40.86,84.1 76.72,148.6 103.21,195.3 13.28,23.6 24.18,42.3 33.36,59.3 4.61,8.7 8.83,16.7 13.63,27.4 2.42,5.5 5,11.6 8.01,21 2.69,9.8 7.15,21.5 7.65,48.3 -0.03,10.5 -0.89,23.5 -5.43,40.2 -3.35,12.3 -9.02,26.8 -18.47,41.4 -13.79,22.2 -37.7,43.4 -62.23,54.4 -24.53,11.5 -47.03,14.2 -63.59,14.2 -24.26,-0.3 -38.48,-4.8 -49.06,-8.2 -8.25,-2.8 -12.9,-4.6 -20.16,-7.5 -25.9,-10.3 -73.05,-29.9 -131.72,-54.6 -29.77,-12.5 -62.3,-26.3 -95.78,-40.5 299.65,580.8 707.58,990.6 1063.55,1264.3 210.71,162 402.66,276 540.78,349 69.11,36.4 124.69,62.7 162.47,79.6 18.86,8.4 33.28,14.5 42.69,18.3 l 10.24,4.2 2.18,0.9 h 0.16 c 53.75,20.5 90.47,69.9 94.73,127.3 4.25,57.3 -24.85,111.6 -74.97,139.8 -75.5,41.8 -158.86,65.1 -246.71,83.8 -22.27,4.5 -44.77,8.6 -67.39,12.4 317.54,136.9 611.45,181.5 863.79,181.9 249.73,0 458.36,-44.5 603.17,-88.4 72.42,-22 128.82,-43.8 166.29,-59.8 18.75,-7.9 32.73,-14.4 41.6,-18.6 l 9.45,-4.6 1.8,-1 h 0.11 v 0 c 47.86,-25.3 105.29,-22.5 150.39,7.3 45.3,29.9 70.5,81.8 65.9,135.9 l -21.6,256.5 343.9,-450.1 c 36.4,-47.5 95.9,-66.6 150.7,-54 0.9,0.2 1.9,0.2 2.9,0.4 55.6,-13.9 116.6,5.2 153.6,53.6 l 344,450.1 -21.7,-256.5 c -4.6,-54.1 20.6,-106 65.8,-135.9 45.2,-29.8 102.6,-32.6 150.5,-7.3 v 0 l 3.4,1.7 c 36.5,18.5 358.3,171 819,170.7 252.7,-0.4 547.3,-45.2 865.4,-182.6 -23.1,-3.8 -46.2,-7 -68.9,-11.7 -87.9,-18.7 -171.3,-42 -246.8,-83.8 -50.1,-28.2 -79.2,-82.5 -75,-139.8 4.3,-57.4 41,-106.8 94.8,-127.3 h 0.1 c 12.4,-4.7 361.2,-142.5 778.2,-467.4 351.3,-273.6 749.7,-678.9 1043.8,-1248.9 -46.5,19.7 -91.5,38.7 -129.5,54.6 z m 1416.6,1263.4 c -59.8,-147.4 -167.9,-275.8 -303,-385.2 -202.1,-164.3 -462.1,-281.5 -670.4,-354.2 -104.1,-36.6 -195.1,-62.3 -259.5,-78.9 -1.3,-0.3 -2.5,-0.5 -3.8,-0.9 -289.7,439.5 -630.3,766.7 -933.7,999.9 -169.3,130.1 -327.1,231.4 -459,307.4 50.9,5.4 100.9,9.5 145.1,12 50.4,3 93.8,4.5 124.4,5.2 15.3,0.4 27.3,0.6 35.4,0.7 h 9.1 2.6 c 65.3,0 122.4,42.4 141.5,104.7 19,62.4 -4.7,129.4 -58.8,165.9 -483.6,326.4 -952.3,443 -1343.1,460 12.6,171.3 46.5,304 91,405.8 42.5,97 94,167.5 148.6,221.1 81.5,80 171.8,123.2 251.6,147.1 79.6,23.8 147.6,27.2 175.7,27.1 l 11.7,-0.2 1.8,-0.1 v 0 c 9.9,-0.7 18.2,-0.5 28.1,0.7 v 0 c 0.7,0.1 19.2,2.1 50,2.1 69.7,0.3 200.3,-11 331.2,-72.5 65.6,-30.8 131.6,-73.7 193.6,-134.7 61.9,-61.2 120,-140.8 168.6,-248.2 54.1,-120.3 124.6,-219 204.1,-296.8 119.4,-117.2 257.3,-186.5 387,-225.8 130,-39.3 252.5,-49.7 349.9,-49.8 124.3,0.1 208.3,17.2 215.4,18.6 l 3.4,0.8 v 0 c 6.2,1.4 106.3,22.8 238.7,22.6 73.7,0.1 157.3,-6.5 239.8,-25.4 124.4,-28.5 243.7,-83 337.8,-181.4 93.7,-98.8 170.3,-245.3 194.9,-486.6 2.7,-28.4 4.1,-55.9 4.1,-82.6 -0.1,-102.8 -19.5,-194 -53.8,-278.4 z m 343.9,390.2 c -19.2,195.1 -70.4,357.1 -146.1,488.5 -113.2,197.8 -280.9,320 -448.2,386.8 -167.9,67.4 -336.1,84.5 -472.4,84.7 -163.9,-0.1 -281.7,-25.1 -301.6,-29.5 v 0 c -1.7,-0.4 -65.2,-12.5 -155.9,-12.5 -101.2,-0.2 -235.2,15.6 -357,72.3 -61.1,28.4 -119.6,66.5 -172.8,118.7 -53.2,52.2 -101.7,118.7 -141.6,207.1 -62.6,139 -142.4,250.4 -230.4,337.1 -132,130.5 -280.6,204.2 -411.9,244.4 -131.6,40.2 -246.7,48.1 -320.7,48.2 -33.1,0 -57,-1.6 -71.5,-2.9 -5.5,0.2 -12.1,0.4 -20.1,0.4 -43.7,-0.1 -123.9,-4.1 -222.5,-29.1 -73.9,-18.8 -158.1,-49.6 -243.6,-100.2 -128.1,-75.6 -257.8,-198 -351,-380.5 -78.9,-153.8 -131.7,-348.8 -146.4,-592.4 -219.5,-17.5 -401,-61.8 -532.8,-104.3 l 44.2,523.5 c 5.6,65.4 -32.8,126.8 -94,150.4 -61.3,23.7 -130.9,4 -170.8,-48.1 l -570.1,-746 -570.1,746 c -39.82,52.1 -109.47,71.8 -170.72,48.1 -61.25,-23.6 -99.61,-85 -94.1,-150.4 l 44.22,-523.5 c -131.8,42.5 -313.28,86.8 -532.77,104.3 -12.78,211.5 -54.11,386.4 -116.61,529.5 -56.83,130.3 -130.97,233.9 -212.42,313.8 -122.26,120 -258.87,185 -374.22,219.4 -115.66,34.4 -211.13,39.3 -260.27,39.5 -8.09,0 -14.61,-0.2 -20.12,-0.4 -14.53,1.3 -38.44,2.9 -71.52,2.9 -98.4,-0.2 -270.74,-13.9 -456.45,-100.5 -92.61,-43.3 -188.16,-105.2 -276.09,-192.1 -87.97,-86.7 -167.81,-198.1 -230.35,-337.1 -39.96,-88.4 -88.44,-154.9 -141.64,-207.1 -79.73,-78.1 -171.84,-125.3 -265.78,-153.9 -93.64,-28.5 -188.21,-37.2 -264.07,-37.1 -48.39,0 -89.06,3.4 -116.68,6.7 -13.78,1.7 -24.37,3.2 -31.01,4.4 l -6.99,1.2 -1.18,0.2 v 0 c -19.88,4.4 -137.73,29.4 -301.6,29.5 -90.93,0 -195.86,-7.8 -305.58,-32.8 -163.99,-37.3 -341.76,-114.8 -485.78,-265.3 -144.38,-150.2 -247.07,-369.6 -275.43,-661.9 -3.75,-38 -5.59,-75.2 -5.59,-111.8 -0.12,-140.9 27.54,-272 75.63,-389.9 84.33,-206.9 228.55,-372 390.7,-503.5 243.9,-197.2 531.09,-323.3 758.67,-403.5 75.08,-26.3 143.52,-47.4 201.99,-64 -80.23,-145.1 -154.57,-300.1 -220.11,-466.7 -21.92,-55.7 -8.33,-118.7 34.6,-160.3 42.93,-41.6 106.25,-53.3 161.22,-29.8 0.11,0.1 34.21,14.6 86.13,36.9 36.68,15.7 82.34,35.1 130.9,55.8 -7.15,-15.6 -14.34,-31.2 -21.64,-47.7 -77.04,-174.2 -161.33,-402.4 -227.89,-684 -13.44,-56.9 7.53,-115.8 53.9,-151.4 46.37,-35.6 108.67,-40.6 160.12,-12.9 0,0 7.58,4.1 21.64,11.6 49.22,26.2 176.37,93.2 312.54,160.1 39.41,19.4 79.22,38.4 118.36,56.7 -20.98,-143.3 -40.43,-330.4 -40.59,-534.7 0.04,-159.9 11.96,-330.2 45.86,-498.5 29.06,-144 74.42,-287 143.79,-419.5 -121.76,-309.2 -160.98,-621.2 -161.05,-893.9 0.35,-495 124.84,-864.2 127.73,-873.6 21.48,-64 83.16,-105.2 150.43,-100.4 67.27,4.7 122.66,54 135.04,120.2 9.37,50.7 31.21,109.1 60.27,166.3 9.18,18.1 19.3,36 29.61,53.7 23.63,-80.7 53.83,-155.8 89.45,-224.4 86.33,-166.3 199.93,-295.1 312.11,-394.2 6.37,-76.7 24.26,-207.5 75.51,-356.4 39.69,-114.5 99.65,-240.1 192.23,-357.1 92.38,-116.8 218.44,-224.5 383.32,-298.2 44.18,-19.8 95.58,-16.6 137.03,8.4 41.48,25.1 68.09,69.2 71.05,117.5 l 0.16,2.7 c 0.04,0.5 0.08,1.6 0.16,2.1 6.52,-11.1 13.04,-22 19.92,-33.2 74.96,-120.8 170.94,-247.5 294.26,-355 122.89,-107.3 275.47,-195.7 456.99,-229.3 45.16,-8.2 91.05,4.6 125.31,35.2 34.3,30.5 52.27,74.7 49.06,120.5 0,0 -0.19,3.4 -0.66,10.1 -1.72,26.8 -6.48,104.7 -10.31,204.4 83.75,-111.6 185.94,-228.1 310.31,-330.7 125.9,-103.8 275,-193.1 447,-244.1 16.5,-7.2 34.1,-11.4 52.5,-12.2 3.2,-0.3 6.4,-0.4 9.6,-0.4 3.2,0 6.4,0.1 9.6,0.4 18.4,0.8 36,5 52.5,12.3 172.1,50.9 321.1,140.2 447,244 123.9,102.4 226.8,218.4 310.2,329.8 -0.8,-23.6 -1.8,-46.2 -2.8,-66.9 -2,-44.4 -4,-81.2 -5.6,-106.9 -0.7,-12.8 -1.4,-22.9 -1.8,-29.7 -0.5,-6.7 -0.7,-10.1 -0.7,-10.1 -3.1,-45.8 14.8,-90 49.1,-120.5 34.3,-30.6 80.2,-43.4 125.3,-35.2 181.5,33.6 334.1,122 457,229.2 134.6,117.7 236.8,257.8 314.2,388.5 l 0.3,-3.6 v -1.4 c 3,-48.3 29.6,-92.4 71.1,-117.5 41.4,-25 92.8,-28.2 137,-8.4 164.9,73.7 291,181.4 383.4,298.3 138.7,175.7 204.5,369.5 237.9,519.2 17.5,79.5 25.8,146.4 29.7,193.5 1.1,1 2.2,1.9 3.3,2.9 111,98.6 223.6,227.5 308.9,392 35.5,68.4 65.7,143.2 89.2,223.7 10.7,-18.5 21.7,-36.8 31.2,-55.7 28.4,-56.3 49.6,-113.6 58.9,-163.6 12.4,-66.2 67.8,-115.5 135.1,-120.2 67.2,-4.8 128.9,36.4 150.4,100.4 2.9,9.4 127.3,378.6 127.7,873.5 -0.1,272.8 -39.3,584.8 -161.1,894 69.4,132.5 114.8,275.5 143.9,419.5 33.8,168.3 45.7,338.6 45.8,498.5 -0.1,204.3 -19.6,391.4 -40.6,534.7 97.1,-45.4 200,-96.8 283.1,-139.6 49.6,-25.4 92.1,-47.7 122.2,-63.6 15,-7.9 26.9,-14.2 35,-18.6 8.1,-4.3 12.2,-6.6 12.2,-6.6 51.5,-27.7 113.9,-22.7 160.2,12.9 46.4,35.6 67.4,94.5 53.9,151.4 -72.9,308.2 -167,552.3 -249.5,731.7 117.3,-49.9 216.7,-92.6 217,-92.7 54.9,-23.5 118.3,-11.8 161.1,29.8 43,41.6 56.6,104.6 34.7,160.3 -65.6,166.5 -139.9,321.6 -220.1,466.6 151.3,43 370.6,116.6 593.8,231.6 199.3,103.1 403,239.5 562.1,424.2 79.4,92.3 147.4,197.3 195.4,315.3 48.1,117.9 75.7,249 75.7,389.9 0,36.6 -1.9,73.8 -5.7,111.8"
         style="fill:#040606;fill-opacity:1;fill-rule:nonzero;stroke:none"
         id="path54" /><path
         d="m 12786.4,11898.4 c -52.8,-52.6 -124.2,-84.7 -204.4,-84.8 -80.4,0.1 -151.8,32.2 -204.6,84.8 -52.6,52.8 -84.6,124.1 -84.7,204.5 0.1,80.3 32.1,151.7 84.7,204.5 52.8,52.6 124.2,84.6 204.6,84.7 80.2,-0.1 151.6,-32.1 204.4,-84.7 52.6,-52.8 84.7,-124.2 84.8,-204.5 -0.1,-80.4 -32.2,-151.7 -84.8,-204.5 z m -204.4,789.5 c -323.2,-0.1 -584.9,-261.9 -585,-585 0.1,-323.2 261.8,-584.9 585,-585 323.1,0.1 584.8,261.8 585,585 -0.2,323.1 -261.9,584.8 -585,585"
         style="fill:#040606;fill-opacity:1;fill-rule:nonzero;stroke:none"
         id="path56" />
    </g>
  </g>
</svg>
